G04 #@! TF.FileFunction,Soldermask,Top*
%FSLAX46Y46*%
G04 Gerber Fmt 4.6, Leading zero omitted, Abs format (unit mm)*
G04 Created by KiCad (PCBNEW (after 2015-mar-04 BZR unknown)-product) date 5/23/2015 10:25:57 AM*
%MOMM*%
G01*
G04 APERTURE LIST*
%ADD10C,0.100000*%
G04 APERTURE END LIST*
D10*
G36*
X2414600Y42977500D02*
X1374600Y42977500D01*
X1374600Y44107500D01*
X2414600Y44107500D01*
X2414600Y42977500D01*
X2414600Y42977500D01*
G37*
G36*
X2414600Y41407500D02*
X1374600Y41407500D01*
X1374600Y42537500D01*
X2414600Y42537500D01*
X2414600Y41407500D01*
X2414600Y41407500D01*
G37*
G36*
X2414600Y39867500D02*
X1374600Y39867500D01*
X1374600Y40997500D01*
X2414600Y40997500D01*
X2414600Y39867500D01*
X2414600Y39867500D01*
G37*
G36*
X2414600Y38327500D02*
X1374600Y38327500D01*
X1374600Y39457500D01*
X2414600Y39457500D01*
X2414600Y38327500D01*
X2414600Y38327500D01*
G37*
G36*
X2414600Y36787500D02*
X1374600Y36787500D01*
X1374600Y37917500D01*
X2414600Y37917500D01*
X2414600Y36787500D01*
X2414600Y36787500D01*
G37*
G36*
X2414600Y35247500D02*
X1374600Y35247500D01*
X1374600Y36377500D01*
X2414600Y36377500D01*
X2414600Y35247500D01*
X2414600Y35247500D01*
G37*
G36*
X2414600Y31407500D02*
X1374600Y31407500D01*
X1374600Y32537500D01*
X2414600Y32537500D01*
X2414600Y31407500D01*
X2414600Y31407500D01*
G37*
G36*
X2414600Y29867500D02*
X1374600Y29867500D01*
X1374600Y30997500D01*
X2414600Y30997500D01*
X2414600Y29867500D01*
X2414600Y29867500D01*
G37*
G36*
X2414600Y28327500D02*
X1374600Y28327500D01*
X1374600Y29457500D01*
X2414600Y29457500D01*
X2414600Y28327500D01*
X2414600Y28327500D01*
G37*
G36*
X2414600Y26787500D02*
X1374600Y26787500D01*
X1374600Y27917500D01*
X2414600Y27917500D01*
X2414600Y26787500D01*
X2414600Y26787500D01*
G37*
G36*
X2414600Y25247500D02*
X1374600Y25247500D01*
X1374600Y26377500D01*
X2414600Y26377500D01*
X2414600Y25247500D01*
X2414600Y25247500D01*
G37*
G36*
X2414600Y21407500D02*
X1374600Y21407500D01*
X1374600Y22537500D01*
X2414600Y22537500D01*
X2414600Y21407500D01*
X2414600Y21407500D01*
G37*
G36*
X2414600Y19867500D02*
X1374600Y19867500D01*
X1374600Y20997500D01*
X2414600Y20997500D01*
X2414600Y19867500D01*
X2414600Y19867500D01*
G37*
G36*
X2414600Y18327500D02*
X1374600Y18327500D01*
X1374600Y19457500D01*
X2414600Y19457500D01*
X2414600Y18327500D01*
X2414600Y18327500D01*
G37*
G36*
X2414600Y16787500D02*
X1374600Y16787500D01*
X1374600Y17917500D01*
X2414600Y17917500D01*
X2414600Y16787500D01*
X2414600Y16787500D01*
G37*
G36*
X4004600Y42977500D02*
X2964600Y42977500D01*
X2964600Y44107500D01*
X4004600Y44107500D01*
X4004600Y42977500D01*
X4004600Y42977500D01*
G37*
G36*
X4004600Y41407500D02*
X2964600Y41407500D01*
X2964600Y42537500D01*
X4004600Y42537500D01*
X4004600Y41407500D01*
X4004600Y41407500D01*
G37*
G36*
X4004600Y39867500D02*
X2964600Y39867500D01*
X2964600Y40997500D01*
X4004600Y40997500D01*
X4004600Y39867500D01*
X4004600Y39867500D01*
G37*
G36*
X4004600Y38327500D02*
X2964600Y38327500D01*
X2964600Y39457500D01*
X4004600Y39457500D01*
X4004600Y38327500D01*
X4004600Y38327500D01*
G37*
G36*
X4004600Y36787500D02*
X2964600Y36787500D01*
X2964600Y37917500D01*
X4004600Y37917500D01*
X4004600Y36787500D01*
X4004600Y36787500D01*
G37*
G36*
X4004600Y35247500D02*
X2964600Y35247500D01*
X2964600Y36377500D01*
X4004600Y36377500D01*
X4004600Y35247500D01*
X4004600Y35247500D01*
G37*
G36*
X4004600Y31407500D02*
X2964600Y31407500D01*
X2964600Y32537500D01*
X4004600Y32537500D01*
X4004600Y31407500D01*
X4004600Y31407500D01*
G37*
G36*
X4004600Y29867500D02*
X2964600Y29867500D01*
X2964600Y30997500D01*
X4004600Y30997500D01*
X4004600Y29867500D01*
X4004600Y29867500D01*
G37*
G36*
X4004600Y28327500D02*
X2964600Y28327500D01*
X2964600Y29457500D01*
X4004600Y29457500D01*
X4004600Y28327500D01*
X4004600Y28327500D01*
G37*
G36*
X4004600Y26787500D02*
X2964600Y26787500D01*
X2964600Y27917500D01*
X4004600Y27917500D01*
X4004600Y26787500D01*
X4004600Y26787500D01*
G37*
G36*
X4004600Y25247500D02*
X2964600Y25247500D01*
X2964600Y26377500D01*
X4004600Y26377500D01*
X4004600Y25247500D01*
X4004600Y25247500D01*
G37*
G36*
X4004600Y21407500D02*
X2964600Y21407500D01*
X2964600Y22537500D01*
X4004600Y22537500D01*
X4004600Y21407500D01*
X4004600Y21407500D01*
G37*
G36*
X4004600Y19867500D02*
X2964600Y19867500D01*
X2964600Y20997500D01*
X4004600Y20997500D01*
X4004600Y19867500D01*
X4004600Y19867500D01*
G37*
G36*
X4004600Y18327500D02*
X2964600Y18327500D01*
X2964600Y19457500D01*
X4004600Y19457500D01*
X4004600Y18327500D01*
X4004600Y18327500D01*
G37*
G36*
X4004600Y16787500D02*
X2964600Y16787500D01*
X2964600Y17917500D01*
X4004600Y17917500D01*
X4004600Y16787500D01*
X4004600Y16787500D01*
G37*
G36*
X4009600Y54701538D02*
X4009570Y54697319D01*
X4009553Y54694870D01*
X4009539Y54692847D01*
X3995942Y54571628D01*
X3959060Y54455359D01*
X3900296Y54348469D01*
X3821890Y54255028D01*
X3726827Y54178595D01*
X3618729Y54122083D01*
X3501713Y54087643D01*
X3501679Y54087640D01*
X3501666Y54087636D01*
X3380240Y54076585D01*
X3258974Y54089332D01*
X3258969Y54089334D01*
X3258926Y54089338D01*
X3142403Y54125409D01*
X3035104Y54183425D01*
X2941118Y54261177D01*
X2864024Y54355703D01*
X2806759Y54463404D01*
X2771503Y54580177D01*
X2759600Y54701573D01*
X2759600Y54703772D01*
X2759600Y55913427D01*
X2759600Y55913462D01*
X2759629Y55917682D01*
X2759661Y55922153D01*
X2773258Y56043372D01*
X2810140Y56159641D01*
X2868904Y56266531D01*
X2947310Y56359972D01*
X3042373Y56436405D01*
X3150471Y56492917D01*
X3267487Y56527357D01*
X3267520Y56527361D01*
X3267534Y56527364D01*
X3388960Y56538415D01*
X3510226Y56525668D01*
X3510230Y56525667D01*
X3510274Y56525662D01*
X3626797Y56489591D01*
X3734096Y56431575D01*
X3828082Y56353823D01*
X3905176Y56259297D01*
X3962441Y56151596D01*
X3997697Y56034823D01*
X4009600Y55913427D01*
X4009600Y55911228D01*
X4009600Y54701573D01*
X4009600Y54701538D01*
X4009600Y54701538D01*
G37*
G36*
X4009600Y51251538D02*
X4009570Y51247319D01*
X4009553Y51244870D01*
X4009539Y51242847D01*
X3995942Y51121628D01*
X3959060Y51005359D01*
X3900296Y50898469D01*
X3821890Y50805028D01*
X3726827Y50728595D01*
X3618729Y50672083D01*
X3501713Y50637643D01*
X3501679Y50637640D01*
X3501666Y50637636D01*
X3380240Y50626585D01*
X3258974Y50639332D01*
X3258969Y50639334D01*
X3258926Y50639338D01*
X3142403Y50675409D01*
X3035104Y50733425D01*
X2941118Y50811177D01*
X2864024Y50905703D01*
X2806759Y51013404D01*
X2771503Y51130177D01*
X2759600Y51251573D01*
X2759600Y51253772D01*
X2759600Y52463427D01*
X2759600Y52463462D01*
X2759629Y52467682D01*
X2759661Y52472153D01*
X2773258Y52593372D01*
X2810140Y52709641D01*
X2868904Y52816531D01*
X2947310Y52909972D01*
X3042373Y52986405D01*
X3150471Y53042917D01*
X3267487Y53077357D01*
X3267520Y53077361D01*
X3267534Y53077364D01*
X3388960Y53088415D01*
X3510226Y53075668D01*
X3510230Y53075667D01*
X3510274Y53075662D01*
X3626797Y53039591D01*
X3734096Y52981575D01*
X3828082Y52903823D01*
X3905176Y52809297D01*
X3962441Y52701596D01*
X3997697Y52584823D01*
X4009600Y52463427D01*
X4009600Y52461228D01*
X4009600Y51251573D01*
X4009600Y51251538D01*
X4009600Y51251538D01*
G37*
G36*
X4109623Y3161730D02*
X4107903Y3038533D01*
X4107827Y3038200D01*
X4107827Y3038188D01*
X4084009Y2933353D01*
X4040138Y2834817D01*
X3977965Y2746680D01*
X3899850Y2672293D01*
X3808784Y2614500D01*
X3708222Y2575494D01*
X3602002Y2556766D01*
X3494165Y2559024D01*
X3388816Y2582187D01*
X3289981Y2625367D01*
X3201406Y2686928D01*
X3126481Y2764515D01*
X3068052Y2855178D01*
X3028346Y2955463D01*
X3008874Y3061557D01*
X3010381Y3169406D01*
X3032805Y3274907D01*
X3075298Y3374048D01*
X3136236Y3463045D01*
X3213301Y3538513D01*
X3303553Y3597573D01*
X3403560Y3637978D01*
X3509507Y3658189D01*
X3617369Y3657435D01*
X3723028Y3635746D01*
X3822458Y3593950D01*
X3911883Y3533633D01*
X3987882Y3457100D01*
X4047575Y3367257D01*
X4088674Y3267541D01*
X4109558Y3162074D01*
X4109557Y3162060D01*
X4109623Y3161730D01*
X4109623Y3161730D01*
G37*
G36*
X4434631Y33963590D02*
X4432363Y33801194D01*
X4432287Y33800861D01*
X4432287Y33800848D01*
X4400867Y33662548D01*
X4343036Y33532659D01*
X4261080Y33416478D01*
X4158112Y33318424D01*
X4038070Y33242243D01*
X3905510Y33190825D01*
X3765493Y33166137D01*
X3623344Y33169114D01*
X3484474Y33199647D01*
X3354189Y33256567D01*
X3237439Y33337711D01*
X3138670Y33439989D01*
X3061652Y33559497D01*
X3009311Y33691693D01*
X2983644Y33831543D01*
X2985630Y33973707D01*
X3015190Y34112778D01*
X3071202Y34243463D01*
X3151529Y34360777D01*
X3253114Y34460257D01*
X3372084Y34538109D01*
X3503912Y34591371D01*
X3643570Y34618012D01*
X3785750Y34617019D01*
X3925028Y34588429D01*
X4056095Y34533333D01*
X4173972Y34453825D01*
X4274156Y34352939D01*
X4352836Y34234516D01*
X4407017Y34103064D01*
X4434565Y33963935D01*
X4434564Y33963925D01*
X4434631Y33963590D01*
X4434631Y33963590D01*
G37*
G36*
X4434631Y23963590D02*
X4432363Y23801194D01*
X4432287Y23800861D01*
X4432287Y23800848D01*
X4400867Y23662548D01*
X4343036Y23532659D01*
X4261080Y23416478D01*
X4158112Y23318424D01*
X4038070Y23242243D01*
X3905510Y23190825D01*
X3765493Y23166137D01*
X3623344Y23169114D01*
X3484474Y23199647D01*
X3354189Y23256567D01*
X3237439Y23337711D01*
X3138670Y23439989D01*
X3061652Y23559497D01*
X3009311Y23691693D01*
X2983644Y23831543D01*
X2985630Y23973707D01*
X3015190Y24112778D01*
X3071202Y24243463D01*
X3151529Y24360777D01*
X3253114Y24460257D01*
X3372084Y24538109D01*
X3503912Y24591371D01*
X3643570Y24618012D01*
X3785750Y24617019D01*
X3925028Y24588429D01*
X4056095Y24533333D01*
X4173972Y24453825D01*
X4274156Y24352939D01*
X4352836Y24234516D01*
X4407017Y24103064D01*
X4434565Y23963935D01*
X4434564Y23963925D01*
X4434631Y23963590D01*
X4434631Y23963590D01*
G37*
G36*
X4849673Y48709194D02*
X4844356Y48328403D01*
X4844280Y48328070D01*
X4844280Y48328057D01*
X4770498Y48003301D01*
X4634896Y47698735D01*
X4442722Y47426310D01*
X4201287Y47196395D01*
X3919803Y47017760D01*
X3608976Y46897197D01*
X3280656Y46839307D01*
X2947341Y46846288D01*
X2621725Y46917880D01*
X2316224Y47051349D01*
X2042464Y47241618D01*
X1810871Y47481440D01*
X1630275Y47761670D01*
X1507546Y48071647D01*
X1447362Y48399562D01*
X1452018Y48732916D01*
X1521332Y49059015D01*
X1652669Y49365445D01*
X1841021Y49640527D01*
X2079219Y49873789D01*
X2358185Y50056339D01*
X2667297Y50181228D01*
X2994776Y50243698D01*
X3328158Y50241370D01*
X3654738Y50174332D01*
X3962073Y50045141D01*
X4238465Y49858713D01*
X4473383Y49622148D01*
X4657877Y49344464D01*
X4784920Y49036234D01*
X4849608Y48709537D01*
X4849607Y48709524D01*
X4849673Y48709194D01*
X4849673Y48709194D01*
G37*
G36*
X4849673Y9409194D02*
X4844356Y9028403D01*
X4844280Y9028070D01*
X4844280Y9028057D01*
X4770498Y8703301D01*
X4634896Y8398735D01*
X4442722Y8126310D01*
X4201287Y7896395D01*
X3919803Y7717760D01*
X3608976Y7597197D01*
X3280656Y7539307D01*
X2947341Y7546288D01*
X2621725Y7617880D01*
X2316224Y7751349D01*
X2042464Y7941618D01*
X1810871Y8181440D01*
X1630275Y8461670D01*
X1507546Y8771647D01*
X1447362Y9099562D01*
X1452018Y9432916D01*
X1521332Y9759015D01*
X1652669Y10065445D01*
X1841021Y10340527D01*
X2079219Y10573789D01*
X2358185Y10756339D01*
X2667297Y10881228D01*
X2994776Y10943698D01*
X3328158Y10941370D01*
X3654738Y10874332D01*
X3962073Y10745141D01*
X4238465Y10558713D01*
X4473383Y10322148D01*
X4657877Y10044464D01*
X4784920Y9736234D01*
X4849608Y9409537D01*
X4849607Y9409524D01*
X4849673Y9409194D01*
X4849673Y9409194D01*
G37*
G36*
X5159600Y4507800D02*
X3759600Y4507800D01*
X3759600Y7207800D01*
X5159600Y7207800D01*
X5159600Y4507800D01*
X5159600Y4507800D01*
G37*
G36*
X5754630Y42261139D02*
X5752441Y42104342D01*
X5752364Y42104004D01*
X5752364Y42103996D01*
X5722030Y41970478D01*
X5666194Y41845067D01*
X5587063Y41732892D01*
X5487646Y41638219D01*
X5371743Y41564665D01*
X5243756Y41515022D01*
X5108565Y41491184D01*
X4971318Y41494058D01*
X4837240Y41523538D01*
X4711444Y41578497D01*
X4598720Y41656842D01*
X4503357Y41755593D01*
X4428995Y41870980D01*
X4378459Y41998618D01*
X4353678Y42133645D01*
X4355595Y42270908D01*
X4384135Y42405181D01*
X4438215Y42531358D01*
X4515777Y42644634D01*
X4613852Y42740678D01*
X4728723Y42815847D01*
X4856004Y42867272D01*
X4990847Y42892994D01*
X5128124Y42892036D01*
X5262599Y42864432D01*
X5389147Y42811236D01*
X5502959Y42734469D01*
X5599689Y42637062D01*
X5675655Y42522722D01*
X5727968Y42395804D01*
X5754564Y42261483D01*
X5754563Y42261474D01*
X5754630Y42261139D01*
X5754630Y42261139D01*
G37*
G36*
X5754630Y18201139D02*
X5752441Y18044342D01*
X5752364Y18044004D01*
X5752364Y18043996D01*
X5722030Y17910478D01*
X5666194Y17785067D01*
X5587063Y17672892D01*
X5487646Y17578219D01*
X5371743Y17504665D01*
X5243756Y17455022D01*
X5108565Y17431184D01*
X4971318Y17434058D01*
X4837240Y17463538D01*
X4711444Y17518497D01*
X4598720Y17596842D01*
X4503357Y17695593D01*
X4428995Y17810980D01*
X4378459Y17938618D01*
X4353678Y18073645D01*
X4355595Y18210908D01*
X4384135Y18345181D01*
X4438215Y18471358D01*
X4515777Y18584634D01*
X4613852Y18680678D01*
X4728723Y18755847D01*
X4856004Y18807272D01*
X4990847Y18832994D01*
X5128124Y18832036D01*
X5262599Y18804432D01*
X5389147Y18751236D01*
X5502959Y18674469D01*
X5599689Y18577062D01*
X5675655Y18462722D01*
X5727968Y18335804D01*
X5754564Y18201483D01*
X5754563Y18201474D01*
X5754630Y18201139D01*
X5754630Y18201139D01*
G37*
G36*
X6734600Y43692500D02*
X5304600Y43692500D01*
X5304600Y44292500D01*
X5304600Y44342500D01*
X5304600Y44942500D01*
X5304600Y44992500D01*
X5304600Y45592500D01*
X6734600Y45592500D01*
X6734600Y44992500D01*
X6734600Y44942500D01*
X6734600Y44342500D01*
X6734600Y44292500D01*
X6734600Y43692500D01*
X6734600Y43692500D01*
G37*
G36*
X7024630Y39721139D02*
X7022441Y39564342D01*
X7022364Y39564004D01*
X7022364Y39563996D01*
X6992030Y39430478D01*
X6936194Y39305067D01*
X6857063Y39192892D01*
X6757646Y39098219D01*
X6641743Y39024665D01*
X6513756Y38975022D01*
X6378565Y38951184D01*
X6241318Y38954058D01*
X6107240Y38983538D01*
X5981444Y39038497D01*
X5868720Y39116842D01*
X5773357Y39215593D01*
X5698995Y39330980D01*
X5648459Y39458618D01*
X5623678Y39593645D01*
X5625595Y39730908D01*
X5654135Y39865181D01*
X5708215Y39991358D01*
X5785777Y40104634D01*
X5883852Y40200678D01*
X5998723Y40275847D01*
X6126004Y40327272D01*
X6260847Y40352994D01*
X6398124Y40352036D01*
X6532599Y40324432D01*
X6659147Y40271236D01*
X6772959Y40194469D01*
X6869689Y40097062D01*
X6945655Y39982722D01*
X6997968Y39855804D01*
X7024564Y39721483D01*
X7024563Y39721474D01*
X7024630Y39721139D01*
X7024630Y39721139D01*
G37*
G36*
X7024630Y15661139D02*
X7022441Y15504342D01*
X7022364Y15504004D01*
X7022364Y15503996D01*
X6992030Y15370478D01*
X6936194Y15245067D01*
X6857063Y15132892D01*
X6757646Y15038219D01*
X6641743Y14964665D01*
X6513756Y14915022D01*
X6378565Y14891184D01*
X6241318Y14894058D01*
X6107240Y14923538D01*
X5981444Y14978497D01*
X5868720Y15056842D01*
X5773357Y15155593D01*
X5698995Y15270980D01*
X5648459Y15398618D01*
X5623678Y15533645D01*
X5625595Y15670908D01*
X5654135Y15805181D01*
X5708215Y15931358D01*
X5785777Y16044634D01*
X5883852Y16140678D01*
X5998723Y16215847D01*
X6126004Y16267272D01*
X6260847Y16292994D01*
X6398124Y16292036D01*
X6532599Y16264432D01*
X6659147Y16211236D01*
X6772959Y16134469D01*
X6869689Y16037062D01*
X6945655Y15922722D01*
X6997968Y15795804D01*
X7024564Y15661483D01*
X7024563Y15661474D01*
X7024630Y15661139D01*
X7024630Y15661139D01*
G37*
G36*
X7659600Y4507800D02*
X6259600Y4507800D01*
X6259600Y7207800D01*
X7659600Y7207800D01*
X7659600Y4507800D01*
X7659600Y4507800D01*
G37*
G36*
X7969600Y49377500D02*
X5949600Y49377500D01*
X5949600Y50747500D01*
X7969600Y50747500D01*
X7969600Y49377500D01*
X7969600Y49377500D01*
G37*
G36*
X7969600Y46337500D02*
X5949600Y46337500D01*
X5949600Y47707500D01*
X7969600Y47707500D01*
X7969600Y46337500D01*
X7969600Y46337500D01*
G37*
G36*
X8294630Y42261139D02*
X8292441Y42104342D01*
X8292364Y42104004D01*
X8292364Y42103996D01*
X8262030Y41970478D01*
X8206194Y41845067D01*
X8127063Y41732892D01*
X8027646Y41638219D01*
X7911743Y41564665D01*
X7783756Y41515022D01*
X7648565Y41491184D01*
X7511318Y41494058D01*
X7377240Y41523538D01*
X7251444Y41578497D01*
X7138720Y41656842D01*
X7043357Y41755593D01*
X6968995Y41870980D01*
X6918459Y41998618D01*
X6893678Y42133645D01*
X6895595Y42270908D01*
X6924135Y42405181D01*
X6978215Y42531358D01*
X7055777Y42644634D01*
X7153852Y42740678D01*
X7268723Y42815847D01*
X7396004Y42867272D01*
X7530847Y42892994D01*
X7668124Y42892036D01*
X7802599Y42864432D01*
X7929147Y42811236D01*
X8042959Y42734469D01*
X8139689Y42637062D01*
X8215655Y42522722D01*
X8267968Y42395804D01*
X8294564Y42261483D01*
X8294563Y42261474D01*
X8294630Y42261139D01*
X8294630Y42261139D01*
G37*
G36*
X8294630Y18201139D02*
X8292441Y18044342D01*
X8292364Y18044004D01*
X8292364Y18043996D01*
X8262030Y17910478D01*
X8206194Y17785067D01*
X8127063Y17672892D01*
X8027646Y17578219D01*
X7911743Y17504665D01*
X7783756Y17455022D01*
X7648565Y17431184D01*
X7511318Y17434058D01*
X7377240Y17463538D01*
X7251444Y17518497D01*
X7138720Y17596842D01*
X7043357Y17695593D01*
X6968995Y17810980D01*
X6918459Y17938618D01*
X6893678Y18073645D01*
X6895595Y18210908D01*
X6924135Y18345181D01*
X6978215Y18471358D01*
X7055777Y18584634D01*
X7153852Y18680678D01*
X7268723Y18755847D01*
X7396004Y18807272D01*
X7530847Y18832994D01*
X7668124Y18832036D01*
X7802599Y18804432D01*
X7929147Y18751236D01*
X8042959Y18674469D01*
X8139689Y18577062D01*
X8215655Y18462722D01*
X8267968Y18335804D01*
X8294564Y18201483D01*
X8294563Y18201474D01*
X8294630Y18201139D01*
X8294630Y18201139D01*
G37*
G36*
X8614600Y44992500D02*
X7184600Y44992500D01*
X7184600Y45592500D01*
X8614600Y45592500D01*
X8614600Y44992500D01*
X8614600Y44992500D01*
G37*
G36*
X8614600Y43692500D02*
X7184600Y43692500D01*
X7184600Y44292500D01*
X8614600Y44292500D01*
X8614600Y43692500D01*
X8614600Y43692500D01*
G37*
G36*
X9214600Y35927500D02*
X8604600Y35927500D01*
X8564600Y35927500D01*
X7954600Y35927500D01*
X7914600Y35927500D01*
X7304600Y35927500D01*
X7264600Y35927500D01*
X6654600Y35927500D01*
X6614600Y35927500D01*
X6004600Y35927500D01*
X5964600Y35927500D01*
X5354600Y35927500D01*
X5314600Y35927500D01*
X4704600Y35927500D01*
X4704600Y37597500D01*
X5314600Y37597500D01*
X5354600Y37597500D01*
X5964600Y37597500D01*
X6004600Y37597500D01*
X6614600Y37597500D01*
X6654600Y37597500D01*
X7264600Y37597500D01*
X7304600Y37597500D01*
X7914600Y37597500D01*
X7954600Y37597500D01*
X8564600Y37597500D01*
X8604600Y37597500D01*
X9214600Y37597500D01*
X9214600Y35927500D01*
X9214600Y35927500D01*
G37*
G36*
X9214600Y30187500D02*
X8604600Y30187500D01*
X8564600Y30187500D01*
X7954600Y30187500D01*
X7914600Y30187500D01*
X7304600Y30187500D01*
X7264600Y30187500D01*
X6654600Y30187500D01*
X6614600Y30187500D01*
X6004600Y30187500D01*
X5964600Y30187500D01*
X5354600Y30187500D01*
X5314600Y30187500D01*
X4704600Y30187500D01*
X4704600Y31857500D01*
X5314600Y31857500D01*
X5354600Y31857500D01*
X5964600Y31857500D01*
X6004600Y31857500D01*
X6614600Y31857500D01*
X6654600Y31857500D01*
X7264600Y31857500D01*
X7304600Y31857500D01*
X7914600Y31857500D01*
X7954600Y31857500D01*
X8564600Y31857500D01*
X8604600Y31857500D01*
X9214600Y31857500D01*
X9214600Y30187500D01*
X9214600Y30187500D01*
G37*
G36*
X9214600Y25927500D02*
X8604600Y25927500D01*
X8564600Y25927500D01*
X7954600Y25927500D01*
X7914600Y25927500D01*
X7304600Y25927500D01*
X7264600Y25927500D01*
X6654600Y25927500D01*
X6614600Y25927500D01*
X6004600Y25927500D01*
X5964600Y25927500D01*
X5354600Y25927500D01*
X5314600Y25927500D01*
X4704600Y25927500D01*
X4704600Y27597500D01*
X5314600Y27597500D01*
X5354600Y27597500D01*
X5964600Y27597500D01*
X6004600Y27597500D01*
X6614600Y27597500D01*
X6654600Y27597500D01*
X7264600Y27597500D01*
X7304600Y27597500D01*
X7914600Y27597500D01*
X7954600Y27597500D01*
X8564600Y27597500D01*
X8604600Y27597500D01*
X9214600Y27597500D01*
X9214600Y25927500D01*
X9214600Y25927500D01*
G37*
G36*
X9214600Y20187500D02*
X8604600Y20187500D01*
X8564600Y20187500D01*
X7954600Y20187500D01*
X7914600Y20187500D01*
X7304600Y20187500D01*
X7264600Y20187500D01*
X6654600Y20187500D01*
X6614600Y20187500D01*
X6004600Y20187500D01*
X5964600Y20187500D01*
X5354600Y20187500D01*
X5314600Y20187500D01*
X4704600Y20187500D01*
X4704600Y21857500D01*
X5314600Y21857500D01*
X5354600Y21857500D01*
X5964600Y21857500D01*
X6004600Y21857500D01*
X6614600Y21857500D01*
X6654600Y21857500D01*
X7264600Y21857500D01*
X7304600Y21857500D01*
X7914600Y21857500D01*
X7954600Y21857500D01*
X8564600Y21857500D01*
X8604600Y21857500D01*
X9214600Y21857500D01*
X9214600Y20187500D01*
X9214600Y20187500D01*
G37*
G36*
X9459621Y53056528D02*
X9458057Y52944530D01*
X9457981Y52944197D01*
X9457981Y52944184D01*
X9436337Y52848913D01*
X9396452Y52759332D01*
X9339934Y52679211D01*
X9268921Y52611587D01*
X9186127Y52559045D01*
X9094710Y52523587D01*
X8998147Y52506560D01*
X8900114Y52508613D01*
X8804341Y52529670D01*
X8714488Y52568926D01*
X8638136Y52621992D01*
X8619909Y52629861D01*
X8600057Y52630016D01*
X8581709Y52622433D01*
X8567759Y52608309D01*
X8559600Y52580935D01*
X8559600Y51257500D01*
X7959600Y51257500D01*
X7909600Y51257500D01*
X7309600Y51257500D01*
X7259600Y51257500D01*
X6659600Y51257500D01*
X6609600Y51257500D01*
X6009600Y51257500D01*
X5959600Y51257500D01*
X5359600Y51257500D01*
X5359600Y52581280D01*
X5355659Y52600737D01*
X5344456Y52617127D01*
X5327759Y52627866D01*
X5308198Y52631260D01*
X5288859Y52626775D01*
X5275119Y52617488D01*
X5268924Y52611589D01*
X5268920Y52611588D01*
X5186127Y52559045D01*
X5094710Y52523587D01*
X4998147Y52506560D01*
X4900114Y52508613D01*
X4804341Y52529670D01*
X4714489Y52568926D01*
X4633970Y52624887D01*
X4565854Y52695424D01*
X4512739Y52777842D01*
X4476642Y52869012D01*
X4458940Y52965462D01*
X4460310Y53063505D01*
X4480696Y53159415D01*
X4519325Y53249543D01*
X4574723Y53330450D01*
X4644783Y53399058D01*
X4726830Y53452748D01*
X4817746Y53489480D01*
X4914061Y53507853D01*
X5012117Y53507168D01*
X5108171Y53487451D01*
X5198565Y53449453D01*
X5279852Y53394625D01*
X5351705Y53322268D01*
X5368212Y53311239D01*
X5387184Y53307500D01*
X5959600Y53307500D01*
X6009600Y53307500D01*
X6609600Y53307500D01*
X6659600Y53307500D01*
X7259600Y53307500D01*
X7309600Y53307500D01*
X7909600Y53307500D01*
X7959600Y53307500D01*
X8532646Y53307500D01*
X8552103Y53311441D01*
X8571198Y53327042D01*
X8571220Y53327020D01*
X8571469Y53327263D01*
X8573900Y53329250D01*
X8574720Y53330447D01*
X8644783Y53399058D01*
X8726830Y53452748D01*
X8817746Y53489480D01*
X8914061Y53507853D01*
X9012117Y53507168D01*
X9108171Y53487451D01*
X9198565Y53449453D01*
X9279855Y53394623D01*
X9348948Y53325046D01*
X9403214Y53243370D01*
X9440576Y53152720D01*
X9440576Y53152715D01*
X9459555Y53056871D01*
X9459554Y53056862D01*
X9459621Y53056528D01*
X9459621Y53056528D01*
G37*
G36*
X9564630Y39721139D02*
X9562441Y39564342D01*
X9562364Y39564004D01*
X9562364Y39563996D01*
X9532030Y39430478D01*
X9476194Y39305067D01*
X9397063Y39192892D01*
X9297646Y39098219D01*
X9181743Y39024665D01*
X9053756Y38975022D01*
X8918565Y38951184D01*
X8781318Y38954058D01*
X8647240Y38983538D01*
X8521444Y39038497D01*
X8408720Y39116842D01*
X8313357Y39215593D01*
X8238995Y39330980D01*
X8188459Y39458618D01*
X8163678Y39593645D01*
X8165595Y39730908D01*
X8194135Y39865181D01*
X8248215Y39991358D01*
X8325777Y40104634D01*
X8423852Y40200678D01*
X8538723Y40275847D01*
X8666004Y40327272D01*
X8800847Y40352994D01*
X8938124Y40352036D01*
X9072599Y40324432D01*
X9199147Y40271236D01*
X9312959Y40194469D01*
X9409689Y40097062D01*
X9485655Y39982722D01*
X9537968Y39855804D01*
X9564564Y39721483D01*
X9564563Y39721474D01*
X9564630Y39721139D01*
X9564630Y39721139D01*
G37*
G36*
X9564630Y15661139D02*
X9562441Y15504342D01*
X9562364Y15504004D01*
X9562364Y15503996D01*
X9532030Y15370478D01*
X9476194Y15245067D01*
X9397063Y15132892D01*
X9297646Y15038219D01*
X9181743Y14964665D01*
X9053756Y14915022D01*
X8918565Y14891184D01*
X8781318Y14894058D01*
X8647240Y14923538D01*
X8521444Y14978497D01*
X8408720Y15056842D01*
X8313357Y15155593D01*
X8238995Y15270980D01*
X8188459Y15398618D01*
X8163678Y15533645D01*
X8165595Y15670908D01*
X8194135Y15805181D01*
X8248215Y15931358D01*
X8325777Y16044634D01*
X8423852Y16140678D01*
X8538723Y16215847D01*
X8666004Y16267272D01*
X8800847Y16292994D01*
X8938124Y16292036D01*
X9072599Y16264432D01*
X9199147Y16211236D01*
X9312959Y16134469D01*
X9409689Y16037062D01*
X9485655Y15922722D01*
X9537968Y15795804D01*
X9564564Y15661483D01*
X9564563Y15661474D01*
X9564630Y15661139D01*
X9564630Y15661139D01*
G37*
G36*
X10159600Y4507800D02*
X8759600Y4507800D01*
X8759600Y7207800D01*
X10159600Y7207800D01*
X10159600Y4507800D01*
X10159600Y4507800D01*
G37*
G36*
X10434631Y33963590D02*
X10432363Y33801194D01*
X10432287Y33800861D01*
X10432287Y33800848D01*
X10400867Y33662548D01*
X10343036Y33532659D01*
X10261080Y33416478D01*
X10158112Y33318424D01*
X10038070Y33242243D01*
X9905510Y33190825D01*
X9765493Y33166137D01*
X9623344Y33169114D01*
X9484474Y33199647D01*
X9354189Y33256567D01*
X9237439Y33337711D01*
X9138670Y33439989D01*
X9061652Y33559497D01*
X9009311Y33691693D01*
X8983644Y33831543D01*
X8985630Y33973707D01*
X9015190Y34112778D01*
X9071202Y34243463D01*
X9151529Y34360777D01*
X9253114Y34460257D01*
X9372084Y34538109D01*
X9503912Y34591371D01*
X9643570Y34618012D01*
X9785750Y34617019D01*
X9925028Y34588429D01*
X10056095Y34533333D01*
X10173972Y34453825D01*
X10274156Y34352939D01*
X10352836Y34234516D01*
X10407017Y34103064D01*
X10434565Y33963935D01*
X10434564Y33963925D01*
X10434631Y33963590D01*
X10434631Y33963590D01*
G37*
G36*
X10434631Y23963590D02*
X10432363Y23801194D01*
X10432287Y23800861D01*
X10432287Y23800848D01*
X10400867Y23662548D01*
X10343036Y23532659D01*
X10261080Y23416478D01*
X10158112Y23318424D01*
X10038070Y23242243D01*
X9905510Y23190825D01*
X9765493Y23166137D01*
X9623344Y23169114D01*
X9484474Y23199647D01*
X9354189Y23256567D01*
X9237439Y23337711D01*
X9138670Y23439989D01*
X9061652Y23559497D01*
X9009311Y23691693D01*
X8983644Y23831543D01*
X8985630Y23973707D01*
X9015190Y24112778D01*
X9071202Y24243463D01*
X9151529Y24360777D01*
X9253114Y24460257D01*
X9372084Y24538109D01*
X9503912Y24591371D01*
X9643570Y24618012D01*
X9785750Y24617019D01*
X9925028Y24588429D01*
X10056095Y24533333D01*
X10173972Y24453825D01*
X10274156Y24352939D01*
X10352836Y24234516D01*
X10407017Y24103064D01*
X10434565Y23963935D01*
X10434564Y23963925D01*
X10434631Y23963590D01*
X10434631Y23963590D01*
G37*
G36*
X10909623Y3161730D02*
X10907903Y3038533D01*
X10907827Y3038200D01*
X10907827Y3038188D01*
X10884009Y2933353D01*
X10840138Y2834817D01*
X10777965Y2746680D01*
X10699850Y2672293D01*
X10608784Y2614500D01*
X10508222Y2575494D01*
X10402002Y2556766D01*
X10294165Y2559024D01*
X10188816Y2582187D01*
X10089981Y2625367D01*
X10001406Y2686928D01*
X9926481Y2764515D01*
X9868052Y2855178D01*
X9828346Y2955463D01*
X9808874Y3061557D01*
X9810381Y3169406D01*
X9832805Y3274907D01*
X9875298Y3374048D01*
X9936236Y3463045D01*
X10013301Y3538513D01*
X10103553Y3597573D01*
X10203560Y3637978D01*
X10309507Y3658189D01*
X10417369Y3657435D01*
X10523028Y3635746D01*
X10622458Y3593950D01*
X10711883Y3533633D01*
X10787882Y3457100D01*
X10847575Y3367257D01*
X10888674Y3267541D01*
X10909558Y3162074D01*
X10909557Y3162060D01*
X10909623Y3161730D01*
X10909623Y3161730D01*
G37*
G36*
X10954600Y42977500D02*
X9914600Y42977500D01*
X9914600Y44107500D01*
X10954600Y44107500D01*
X10954600Y42977500D01*
X10954600Y42977500D01*
G37*
G36*
X10954600Y41407500D02*
X9914600Y41407500D01*
X9914600Y42537500D01*
X10954600Y42537500D01*
X10954600Y41407500D01*
X10954600Y41407500D01*
G37*
G36*
X10954600Y39867500D02*
X9914600Y39867500D01*
X9914600Y40997500D01*
X10954600Y40997500D01*
X10954600Y39867500D01*
X10954600Y39867500D01*
G37*
G36*
X10954600Y38327500D02*
X9914600Y38327500D01*
X9914600Y39457500D01*
X10954600Y39457500D01*
X10954600Y38327500D01*
X10954600Y38327500D01*
G37*
G36*
X10954600Y36787500D02*
X9914600Y36787500D01*
X9914600Y37917500D01*
X10954600Y37917500D01*
X10954600Y36787500D01*
X10954600Y36787500D01*
G37*
G36*
X10954600Y35247500D02*
X9914600Y35247500D01*
X9914600Y36377500D01*
X10954600Y36377500D01*
X10954600Y35247500D01*
X10954600Y35247500D01*
G37*
G36*
X10954600Y31407500D02*
X9914600Y31407500D01*
X9914600Y32537500D01*
X10954600Y32537500D01*
X10954600Y31407500D01*
X10954600Y31407500D01*
G37*
G36*
X10954600Y29867500D02*
X9914600Y29867500D01*
X9914600Y30997500D01*
X10954600Y30997500D01*
X10954600Y29867500D01*
X10954600Y29867500D01*
G37*
G36*
X10954600Y28327500D02*
X9914600Y28327500D01*
X9914600Y29457500D01*
X10954600Y29457500D01*
X10954600Y28327500D01*
X10954600Y28327500D01*
G37*
G36*
X10954600Y26787500D02*
X9914600Y26787500D01*
X9914600Y27917500D01*
X10954600Y27917500D01*
X10954600Y26787500D01*
X10954600Y26787500D01*
G37*
G36*
X10954600Y25247500D02*
X9914600Y25247500D01*
X9914600Y26377500D01*
X10954600Y26377500D01*
X10954600Y25247500D01*
X10954600Y25247500D01*
G37*
G36*
X10954600Y21407500D02*
X9914600Y21407500D01*
X9914600Y22537500D01*
X10954600Y22537500D01*
X10954600Y21407500D01*
X10954600Y21407500D01*
G37*
G36*
X10954600Y19867500D02*
X9914600Y19867500D01*
X9914600Y20997500D01*
X10954600Y20997500D01*
X10954600Y19867500D01*
X10954600Y19867500D01*
G37*
G36*
X10954600Y18327500D02*
X9914600Y18327500D01*
X9914600Y19457500D01*
X10954600Y19457500D01*
X10954600Y18327500D01*
X10954600Y18327500D01*
G37*
G36*
X10954600Y16787500D02*
X9914600Y16787500D01*
X9914600Y17917500D01*
X10954600Y17917500D01*
X10954600Y16787500D01*
X10954600Y16787500D01*
G37*
G36*
X10954600Y15247500D02*
X9914600Y15247500D01*
X9914600Y16377500D01*
X10954600Y16377500D01*
X10954600Y15247500D01*
X10954600Y15247500D01*
G37*
G36*
X11159600Y54701538D02*
X11159570Y54697319D01*
X11159553Y54694870D01*
X11159539Y54692847D01*
X11145942Y54571628D01*
X11109060Y54455359D01*
X11050296Y54348469D01*
X10971890Y54255028D01*
X10876827Y54178595D01*
X10768729Y54122083D01*
X10651713Y54087643D01*
X10651679Y54087640D01*
X10651666Y54087636D01*
X10530240Y54076585D01*
X10408974Y54089332D01*
X10408969Y54089334D01*
X10408926Y54089338D01*
X10292403Y54125409D01*
X10185104Y54183425D01*
X10091118Y54261177D01*
X10014024Y54355703D01*
X9956759Y54463404D01*
X9921503Y54580177D01*
X9909600Y54701573D01*
X9909600Y54703772D01*
X9909600Y55913427D01*
X9909600Y55913462D01*
X9909629Y55917682D01*
X9909661Y55922153D01*
X9923258Y56043372D01*
X9960140Y56159641D01*
X10018904Y56266531D01*
X10097310Y56359972D01*
X10192373Y56436405D01*
X10300471Y56492917D01*
X10417487Y56527357D01*
X10417520Y56527361D01*
X10417534Y56527364D01*
X10538960Y56538415D01*
X10660226Y56525668D01*
X10660230Y56525667D01*
X10660274Y56525662D01*
X10776797Y56489591D01*
X10884096Y56431575D01*
X10978082Y56353823D01*
X11055176Y56259297D01*
X11112441Y56151596D01*
X11147697Y56034823D01*
X11159600Y55913427D01*
X11159600Y55911228D01*
X11159600Y54701573D01*
X11159600Y54701538D01*
X11159600Y54701538D01*
G37*
G36*
X11159600Y51251538D02*
X11159570Y51247319D01*
X11159553Y51244870D01*
X11159539Y51242847D01*
X11145942Y51121628D01*
X11109060Y51005359D01*
X11050296Y50898469D01*
X10971890Y50805028D01*
X10876827Y50728595D01*
X10768729Y50672083D01*
X10651713Y50637643D01*
X10651679Y50637640D01*
X10651666Y50637636D01*
X10530240Y50626585D01*
X10408974Y50639332D01*
X10408969Y50639334D01*
X10408926Y50639338D01*
X10292403Y50675409D01*
X10185104Y50733425D01*
X10091118Y50811177D01*
X10014024Y50905703D01*
X9956759Y51013404D01*
X9921503Y51130177D01*
X9909600Y51251573D01*
X9909600Y51253772D01*
X9909600Y52463427D01*
X9909600Y52463462D01*
X9909629Y52467682D01*
X9909661Y52472153D01*
X9923258Y52593372D01*
X9960140Y52709641D01*
X10018904Y52816531D01*
X10097310Y52909972D01*
X10192373Y52986405D01*
X10300471Y53042917D01*
X10417487Y53077357D01*
X10417520Y53077361D01*
X10417534Y53077364D01*
X10538960Y53088415D01*
X10660226Y53075668D01*
X10660230Y53075667D01*
X10660274Y53075662D01*
X10776797Y53039591D01*
X10884096Y52981575D01*
X10978082Y52903823D01*
X11055176Y52809297D01*
X11112441Y52701596D01*
X11147697Y52584823D01*
X11159600Y52463427D01*
X11159600Y52461228D01*
X11159600Y51251573D01*
X11159600Y51251538D01*
X11159600Y51251538D01*
G37*
G36*
X12469673Y48709194D02*
X12464356Y48328403D01*
X12464280Y48328070D01*
X12464280Y48328057D01*
X12390498Y48003301D01*
X12254896Y47698735D01*
X12062722Y47426310D01*
X11821287Y47196395D01*
X11539803Y47017760D01*
X11228976Y46897197D01*
X10900656Y46839307D01*
X10567341Y46846288D01*
X10241725Y46917880D01*
X9936224Y47051349D01*
X9662464Y47241618D01*
X9430871Y47481440D01*
X9250275Y47761670D01*
X9127546Y48071647D01*
X9067362Y48399562D01*
X9072018Y48732916D01*
X9141332Y49059015D01*
X9272669Y49365445D01*
X9461021Y49640527D01*
X9699219Y49873789D01*
X9978185Y50056339D01*
X10287297Y50181228D01*
X10614776Y50243698D01*
X10948158Y50241370D01*
X11274738Y50174332D01*
X11582073Y50045141D01*
X11858465Y49858713D01*
X12093383Y49622148D01*
X12277877Y49344464D01*
X12404920Y49036234D01*
X12469608Y48709537D01*
X12469607Y48709524D01*
X12469673Y48709194D01*
X12469673Y48709194D01*
G37*
G36*
X12469673Y9409194D02*
X12464356Y9028403D01*
X12464280Y9028070D01*
X12464280Y9028057D01*
X12390498Y8703301D01*
X12254896Y8398735D01*
X12062722Y8126310D01*
X11821287Y7896395D01*
X11539803Y7717760D01*
X11228976Y7597197D01*
X10900656Y7539307D01*
X10567341Y7546288D01*
X10241725Y7617880D01*
X9936224Y7751349D01*
X9662464Y7941618D01*
X9430871Y8181440D01*
X9250275Y8461670D01*
X9127546Y8771647D01*
X9067362Y9099562D01*
X9072018Y9432916D01*
X9141332Y9759015D01*
X9272669Y10065445D01*
X9461021Y10340527D01*
X9699219Y10573789D01*
X9978185Y10756339D01*
X10287297Y10881228D01*
X10614776Y10943698D01*
X10948158Y10941370D01*
X11274738Y10874332D01*
X11582073Y10745141D01*
X11858465Y10558713D01*
X12093383Y10322148D01*
X12277877Y10044464D01*
X12404920Y9736234D01*
X12469608Y9409537D01*
X12469607Y9409524D01*
X12469673Y9409194D01*
X12469673Y9409194D01*
G37*
G36*
X12544600Y42977500D02*
X11504600Y42977500D01*
X11504600Y44107500D01*
X12544600Y44107500D01*
X12544600Y42977500D01*
X12544600Y42977500D01*
G37*
G36*
X12544600Y41407500D02*
X11504600Y41407500D01*
X11504600Y42537500D01*
X12544600Y42537500D01*
X12544600Y41407500D01*
X12544600Y41407500D01*
G37*
G36*
X12544600Y39867500D02*
X11504600Y39867500D01*
X11504600Y40997500D01*
X12544600Y40997500D01*
X12544600Y39867500D01*
X12544600Y39867500D01*
G37*
G36*
X12544600Y38327500D02*
X11504600Y38327500D01*
X11504600Y39457500D01*
X12544600Y39457500D01*
X12544600Y38327500D01*
X12544600Y38327500D01*
G37*
G36*
X12544600Y36787500D02*
X11504600Y36787500D01*
X11504600Y37917500D01*
X12544600Y37917500D01*
X12544600Y36787500D01*
X12544600Y36787500D01*
G37*
G36*
X12544600Y35247500D02*
X11504600Y35247500D01*
X11504600Y36377500D01*
X12544600Y36377500D01*
X12544600Y35247500D01*
X12544600Y35247500D01*
G37*
G36*
X12544600Y31407500D02*
X11504600Y31407500D01*
X11504600Y32537500D01*
X12544600Y32537500D01*
X12544600Y31407500D01*
X12544600Y31407500D01*
G37*
G36*
X12544600Y29867500D02*
X11504600Y29867500D01*
X11504600Y30997500D01*
X12544600Y30997500D01*
X12544600Y29867500D01*
X12544600Y29867500D01*
G37*
G36*
X12544600Y28327500D02*
X11504600Y28327500D01*
X11504600Y29457500D01*
X12544600Y29457500D01*
X12544600Y28327500D01*
X12544600Y28327500D01*
G37*
G36*
X12544600Y26787500D02*
X11504600Y26787500D01*
X11504600Y27917500D01*
X12544600Y27917500D01*
X12544600Y26787500D01*
X12544600Y26787500D01*
G37*
G36*
X12544600Y25247500D02*
X11504600Y25247500D01*
X11504600Y26377500D01*
X12544600Y26377500D01*
X12544600Y25247500D01*
X12544600Y25247500D01*
G37*
G36*
X12544600Y21407500D02*
X11504600Y21407500D01*
X11504600Y22537500D01*
X12544600Y22537500D01*
X12544600Y21407500D01*
X12544600Y21407500D01*
G37*
G36*
X12544600Y19867500D02*
X11504600Y19867500D01*
X11504600Y20997500D01*
X12544600Y20997500D01*
X12544600Y19867500D01*
X12544600Y19867500D01*
G37*
G36*
X12544600Y18327500D02*
X11504600Y18327500D01*
X11504600Y19457500D01*
X12544600Y19457500D01*
X12544600Y18327500D01*
X12544600Y18327500D01*
G37*
G36*
X12544600Y16787500D02*
X11504600Y16787500D01*
X11504600Y17917500D01*
X12544600Y17917500D01*
X12544600Y16787500D01*
X12544600Y16787500D01*
G37*
G36*
X12544600Y15247500D02*
X11504600Y15247500D01*
X11504600Y16377500D01*
X12544600Y16377500D01*
X12544600Y15247500D01*
X12544600Y15247500D01*
G37*
M02*
