G04 #@! TF.FileFunction,Legend,Top*
%FSLAX46Y46*%
G04 Gerber Fmt 4.6, Leading zero omitted, Abs format (unit mm)*
G04 Created by KiCad (PCBNEW (after 2015-mar-04 BZR unknown)-product) date 5/23/2015 12:04:12 AM*
%MOMM*%
G01*
G04 APERTURE LIST*
%ADD10C,0.100000*%
%ADD11C,0.050000*%
%ADD12C,0.200000*%
G04 APERTURE END LIST*
D10*
D11*
X1149600Y1307800D02*
X12769600Y1307800D01*
X12769600Y1307800D02*
X12769600Y57457500D01*
X1149600Y57457500D02*
X12769600Y57457500D01*
X1149600Y1307800D02*
X1149600Y57457500D01*
D10*
G36*
X4559300Y12550795D02*
X4559419Y12650136D01*
X4559905Y12727013D01*
X4560957Y12784358D01*
X4562773Y12825107D01*
X4565549Y12852195D01*
X4569485Y12868555D01*
X4574776Y12877122D01*
X4581525Y12880802D01*
X4603537Y12885913D01*
X4643500Y12893957D01*
X4694342Y12903534D01*
X4718050Y12907821D01*
X4841799Y12930181D01*
X4942527Y12949031D01*
X5022302Y12964835D01*
X5083191Y12978057D01*
X5127261Y12989161D01*
X5156580Y12998610D01*
X5173215Y13006869D01*
X5177591Y13010916D01*
X5186301Y13027733D01*
X5202238Y13063282D01*
X5223578Y13113089D01*
X5248502Y13172678D01*
X5275189Y13237574D01*
X5301818Y13303302D01*
X5326566Y13365387D01*
X5347615Y13419353D01*
X5363142Y13460724D01*
X5371326Y13485027D01*
X5372136Y13489026D01*
X5365224Y13501884D01*
X5345862Y13532538D01*
X5316080Y13577912D01*
X5277910Y13634932D01*
X5233381Y13700526D01*
X5207000Y13739020D01*
X5159655Y13808870D01*
X5117612Y13872797D01*
X5082928Y13927518D01*
X5057658Y13969748D01*
X5043860Y13996204D01*
X5041900Y14002669D01*
X5050734Y14018436D01*
X5075830Y14049428D01*
X5115085Y14093328D01*
X5166390Y14147819D01*
X5227643Y14210583D01*
X5262914Y14245908D01*
X5331910Y14314297D01*
X5385385Y14366581D01*
X5425700Y14404692D01*
X5455216Y14430564D01*
X5476295Y14446129D01*
X5491297Y14453321D01*
X5502584Y14454072D01*
X5512516Y14450317D01*
X5512562Y14450292D01*
X5531407Y14438648D01*
X5567532Y14414962D01*
X5617336Y14381649D01*
X5677214Y14341122D01*
X5743562Y14295798D01*
X5760617Y14284083D01*
X5826907Y14239004D01*
X5886702Y14199298D01*
X5936663Y14167103D01*
X5973454Y14144560D01*
X5993735Y14133807D01*
X5996058Y14133200D01*
X6013599Y14138749D01*
X6047895Y14153691D01*
X6093290Y14175467D01*
X6125171Y14191609D01*
X6176136Y14216333D01*
X6216961Y14233044D01*
X6242988Y14239970D01*
X6249388Y14238892D01*
X6256873Y14224753D01*
X6272701Y14190093D01*
X6295585Y14137895D01*
X6324237Y14071139D01*
X6357371Y13992809D01*
X6393699Y13905887D01*
X6407542Y13872507D01*
X6448183Y13774370D01*
X6489065Y13675758D01*
X6528234Y13581381D01*
X6563734Y13495949D01*
X6593608Y13424172D01*
X6615902Y13370757D01*
X6617385Y13367213D01*
X6641154Y13309160D01*
X6660799Y13258740D01*
X6674426Y13220998D01*
X6680137Y13200978D01*
X6680200Y13200053D01*
X6670494Y13184935D01*
X6644816Y13160530D01*
X6608328Y13131638D01*
X6600825Y13126199D01*
X6490037Y13034635D01*
X6403236Y12935188D01*
X6340062Y12827207D01*
X6300154Y12710042D01*
X6283150Y12583041D01*
X6282440Y12552050D01*
X6293022Y12425035D01*
X6326192Y12308336D01*
X6382774Y12199888D01*
X6463590Y12097631D01*
X6464223Y12096953D01*
X6559175Y12013005D01*
X6665058Y11950343D01*
X6778749Y11909097D01*
X6897125Y11889395D01*
X7017064Y11891366D01*
X7135443Y11915138D01*
X7249140Y11960840D01*
X7355031Y12028601D01*
X7391020Y12058760D01*
X7479404Y12153968D01*
X7544845Y12260042D01*
X7587161Y12376571D01*
X7606169Y12503145D01*
X7607300Y12544369D01*
X7598245Y12671252D01*
X7570141Y12785011D01*
X7521583Y12888290D01*
X7451162Y12983728D01*
X7357474Y13073970D01*
X7302212Y13117413D01*
X7262171Y13149039D01*
X7231546Y13176926D01*
X7215123Y13196561D01*
X7213600Y13200990D01*
X7218308Y13216588D01*
X7231683Y13252788D01*
X7252601Y13306756D01*
X7279941Y13375655D01*
X7312579Y13456651D01*
X7349393Y13546908D01*
X7380346Y13622063D01*
X7421642Y13721983D01*
X7461543Y13818658D01*
X7498571Y13908496D01*
X7531248Y13987905D01*
X7558094Y14053294D01*
X7577632Y14101069D01*
X7585519Y14120500D01*
X7609540Y14179164D01*
X7628629Y14216605D01*
X7648003Y14234885D01*
X7672879Y14236065D01*
X7708473Y14222206D01*
X7760004Y14195371D01*
X7766386Y14191973D01*
X7815227Y14166837D01*
X7856668Y14147067D01*
X7884997Y14135309D01*
X7893324Y14133200D01*
X7908127Y14140090D01*
X7940644Y14159412D01*
X7987701Y14189141D01*
X8046128Y14227252D01*
X8112751Y14271719D01*
X8151955Y14298300D01*
X8221282Y14345308D01*
X8283643Y14387108D01*
X8335981Y14421690D01*
X8375235Y14447042D01*
X8398348Y14461155D01*
X8403117Y14463400D01*
X8414246Y14454812D01*
X8440749Y14430678D01*
X8480068Y14393440D01*
X8529646Y14345541D01*
X8586925Y14289423D01*
X8632003Y14244799D01*
X8693118Y14183172D01*
X8747704Y14126455D01*
X8793278Y14077366D01*
X8827360Y14038620D01*
X8847468Y14012934D01*
X8851900Y14004119D01*
X8844930Y13987674D01*
X8825396Y13953731D01*
X8795360Y13905557D01*
X8756886Y13846419D01*
X8712038Y13779584D01*
X8687173Y13743294D01*
X8639922Y13674171D01*
X8597932Y13611519D01*
X8563259Y13558507D01*
X8537959Y13518304D01*
X8524088Y13494079D01*
X8522073Y13488826D01*
X8526609Y13470781D01*
X8539329Y13433944D01*
X8558396Y13382864D01*
X8581971Y13322090D01*
X8608217Y13256168D01*
X8635295Y13189647D01*
X8661368Y13127075D01*
X8684598Y13073000D01*
X8703147Y13031970D01*
X8715176Y13008533D01*
X8717443Y13005391D01*
X8734149Y12998428D01*
X8772107Y12988038D01*
X8827532Y12975080D01*
X8896639Y12960416D01*
X8975645Y12944905D01*
X9018137Y12937018D01*
X9100670Y12921582D01*
X9175208Y12906863D01*
X9237973Y12893670D01*
X9285188Y12882812D01*
X9313075Y12875098D01*
X9318626Y12872646D01*
X9324153Y12856062D01*
X9328620Y12818684D01*
X9332037Y12764692D01*
X9334415Y12698265D01*
X9335764Y12623585D01*
X9336095Y12544831D01*
X9335418Y12466182D01*
X9333744Y12391819D01*
X9331082Y12325922D01*
X9327444Y12272670D01*
X9322840Y12236244D01*
X9317280Y12220823D01*
X9316994Y12220684D01*
X9299972Y12216533D01*
X9261690Y12208521D01*
X9205865Y12197384D01*
X9136220Y12183857D01*
X9056473Y12168676D01*
X9004679Y12158958D01*
X8921107Y12142998D01*
X8845870Y12127929D01*
X8782574Y12114533D01*
X8734826Y12103587D01*
X8706232Y12095872D01*
X8699701Y12093050D01*
X8690090Y12076403D01*
X8673176Y12040941D01*
X8650908Y11991318D01*
X8625238Y11932188D01*
X8598116Y11868204D01*
X8571493Y11804021D01*
X8547319Y11744291D01*
X8527546Y11693668D01*
X8514125Y11656806D01*
X8509005Y11638358D01*
X8509000Y11638131D01*
X8515946Y11621640D01*
X8535423Y11587589D01*
X8565394Y11539222D01*
X8603819Y11479783D01*
X8648659Y11412518D01*
X8675756Y11372724D01*
X8723646Y11302331D01*
X8766728Y11237893D01*
X8802871Y11182686D01*
X8829946Y11139987D01*
X8845824Y11113071D01*
X8849010Y11106189D01*
X8846222Y11093368D01*
X8832023Y11071405D01*
X8804971Y11038654D01*
X8763623Y10993469D01*
X8706537Y10934206D01*
X8634766Y10861714D01*
X8573107Y10800598D01*
X8516800Y10745963D01*
X8468473Y10700263D01*
X8430753Y10665953D01*
X8406268Y10645487D01*
X8398216Y10640700D01*
X8383723Y10647650D01*
X8351501Y10667168D01*
X8304628Y10697254D01*
X8246184Y10735910D01*
X8179245Y10781136D01*
X8131380Y10813979D01*
X8060201Y10862787D01*
X7995245Y10906712D01*
X7939649Y10943682D01*
X7896553Y10971624D01*
X7869095Y10988465D01*
X7861091Y10992485D01*
X7843822Y10989504D01*
X7807882Y10978322D01*
X7757937Y10960776D01*
X7698650Y10938702D01*
X7634684Y10913934D01*
X7570702Y10888308D01*
X7511368Y10863662D01*
X7461346Y10841829D01*
X7425300Y10824647D01*
X7408107Y10814167D01*
X7401693Y10798035D01*
X7391629Y10760480D01*
X7378723Y10705090D01*
X7363783Y10635448D01*
X7347614Y10555140D01*
X7335257Y10490544D01*
X7319025Y10404863D01*
X7303966Y10327358D01*
X7290796Y10261563D01*
X7280234Y10211015D01*
X7272997Y10179251D01*
X7270176Y10169869D01*
X7255789Y10166477D01*
X7219111Y10163510D01*
X7163248Y10161082D01*
X7091306Y10159306D01*
X7006392Y10158294D01*
X6945879Y10158100D01*
X6848166Y10158145D01*
X6772807Y10158456D01*
X6716755Y10159300D01*
X6676962Y10160938D01*
X6650383Y10163638D01*
X6633970Y10167662D01*
X6624676Y10173276D01*
X6619455Y10180744D01*
X6616821Y10186675D01*
X6611124Y10207108D01*
X6601813Y10248563D01*
X6589703Y10307051D01*
X6575610Y10378582D01*
X6560347Y10459166D01*
X6552737Y10500482D01*
X6537337Y10583269D01*
X6522837Y10658235D01*
X6510017Y10721568D01*
X6499662Y10769456D01*
X6492553Y10798087D01*
X6490432Y10804041D01*
X6476502Y10813510D01*
X6443506Y10830341D01*
X6396011Y10852587D01*
X6338582Y10878296D01*
X6275786Y10905521D01*
X6212189Y10932313D01*
X6152356Y10956722D01*
X6100855Y10976799D01*
X6062250Y10990596D01*
X6041108Y10996163D01*
X6040265Y10996194D01*
X6026285Y10989254D01*
X5994441Y10969797D01*
X5947745Y10939780D01*
X5889204Y10901159D01*
X5821829Y10855893D01*
X5766780Y10818394D01*
X5694738Y10769406D01*
X5629271Y10725589D01*
X5573383Y10688898D01*
X5530081Y10661287D01*
X5502370Y10644713D01*
X5493594Y10640700D01*
X5479996Y10649456D01*
X5452024Y10673700D01*
X5412679Y10710389D01*
X5364963Y10756482D01*
X5311877Y10808939D01*
X5256423Y10864719D01*
X5201601Y10920780D01*
X5150414Y10974083D01*
X5105861Y11021585D01*
X5070945Y11060246D01*
X5048668Y11087026D01*
X5041900Y11098358D01*
X5047726Y11114485D01*
X5065573Y11146428D01*
X5095999Y11195043D01*
X5139562Y11261185D01*
X5196819Y11345710D01*
X5268326Y11449474D01*
X5303604Y11500234D01*
X5336345Y11548851D01*
X5362768Y11591143D01*
X5379859Y11622085D01*
X5384800Y11635625D01*
X5379997Y11651790D01*
X5366863Y11686662D01*
X5347314Y11735703D01*
X5323264Y11794377D01*
X5296628Y11858149D01*
X5269321Y11922481D01*
X5243259Y11982838D01*
X5220355Y12034684D01*
X5202524Y12073482D01*
X5191683Y12094696D01*
X5190047Y12096987D01*
X5176210Y12101089D01*
X5140938Y12109040D01*
X5087780Y12120111D01*
X5020286Y12133574D01*
X4942003Y12148702D01*
X4889094Y12158695D01*
X4805081Y12174566D01*
X4728897Y12189230D01*
X4664266Y12201947D01*
X4614915Y12211978D01*
X4584570Y12218584D01*
X4577021Y12220602D01*
X4571443Y12226795D01*
X4567121Y12242365D01*
X4563910Y12269998D01*
X4561667Y12312379D01*
X4560247Y12372195D01*
X4559506Y12452132D01*
X4559300Y12550795D01*
X4559300Y12550795D01*
X4559300Y12550795D01*
G37*
X4559300Y12550795D02*
X4559419Y12650136D01*
X4559905Y12727013D01*
X4560957Y12784358D01*
X4562773Y12825107D01*
X4565549Y12852195D01*
X4569485Y12868555D01*
X4574776Y12877122D01*
X4581525Y12880802D01*
X4603537Y12885913D01*
X4643500Y12893957D01*
X4694342Y12903534D01*
X4718050Y12907821D01*
X4841799Y12930181D01*
X4942527Y12949031D01*
X5022302Y12964835D01*
X5083191Y12978057D01*
X5127261Y12989161D01*
X5156580Y12998610D01*
X5173215Y13006869D01*
X5177591Y13010916D01*
X5186301Y13027733D01*
X5202238Y13063282D01*
X5223578Y13113089D01*
X5248502Y13172678D01*
X5275189Y13237574D01*
X5301818Y13303302D01*
X5326566Y13365387D01*
X5347615Y13419353D01*
X5363142Y13460724D01*
X5371326Y13485027D01*
X5372136Y13489026D01*
X5365224Y13501884D01*
X5345862Y13532538D01*
X5316080Y13577912D01*
X5277910Y13634932D01*
X5233381Y13700526D01*
X5207000Y13739020D01*
X5159655Y13808870D01*
X5117612Y13872797D01*
X5082928Y13927518D01*
X5057658Y13969748D01*
X5043860Y13996204D01*
X5041900Y14002669D01*
X5050734Y14018436D01*
X5075830Y14049428D01*
X5115085Y14093328D01*
X5166390Y14147819D01*
X5227643Y14210583D01*
X5262914Y14245908D01*
X5331910Y14314297D01*
X5385385Y14366581D01*
X5425700Y14404692D01*
X5455216Y14430564D01*
X5476295Y14446129D01*
X5491297Y14453321D01*
X5502584Y14454072D01*
X5512516Y14450317D01*
X5512562Y14450292D01*
X5531407Y14438648D01*
X5567532Y14414962D01*
X5617336Y14381649D01*
X5677214Y14341122D01*
X5743562Y14295798D01*
X5760617Y14284083D01*
X5826907Y14239004D01*
X5886702Y14199298D01*
X5936663Y14167103D01*
X5973454Y14144560D01*
X5993735Y14133807D01*
X5996058Y14133200D01*
X6013599Y14138749D01*
X6047895Y14153691D01*
X6093290Y14175467D01*
X6125171Y14191609D01*
X6176136Y14216333D01*
X6216961Y14233044D01*
X6242988Y14239970D01*
X6249388Y14238892D01*
X6256873Y14224753D01*
X6272701Y14190093D01*
X6295585Y14137895D01*
X6324237Y14071139D01*
X6357371Y13992809D01*
X6393699Y13905887D01*
X6407542Y13872507D01*
X6448183Y13774370D01*
X6489065Y13675758D01*
X6528234Y13581381D01*
X6563734Y13495949D01*
X6593608Y13424172D01*
X6615902Y13370757D01*
X6617385Y13367213D01*
X6641154Y13309160D01*
X6660799Y13258740D01*
X6674426Y13220998D01*
X6680137Y13200978D01*
X6680200Y13200053D01*
X6670494Y13184935D01*
X6644816Y13160530D01*
X6608328Y13131638D01*
X6600825Y13126199D01*
X6490037Y13034635D01*
X6403236Y12935188D01*
X6340062Y12827207D01*
X6300154Y12710042D01*
X6283150Y12583041D01*
X6282440Y12552050D01*
X6293022Y12425035D01*
X6326192Y12308336D01*
X6382774Y12199888D01*
X6463590Y12097631D01*
X6464223Y12096953D01*
X6559175Y12013005D01*
X6665058Y11950343D01*
X6778749Y11909097D01*
X6897125Y11889395D01*
X7017064Y11891366D01*
X7135443Y11915138D01*
X7249140Y11960840D01*
X7355031Y12028601D01*
X7391020Y12058760D01*
X7479404Y12153968D01*
X7544845Y12260042D01*
X7587161Y12376571D01*
X7606169Y12503145D01*
X7607300Y12544369D01*
X7598245Y12671252D01*
X7570141Y12785011D01*
X7521583Y12888290D01*
X7451162Y12983728D01*
X7357474Y13073970D01*
X7302212Y13117413D01*
X7262171Y13149039D01*
X7231546Y13176926D01*
X7215123Y13196561D01*
X7213600Y13200990D01*
X7218308Y13216588D01*
X7231683Y13252788D01*
X7252601Y13306756D01*
X7279941Y13375655D01*
X7312579Y13456651D01*
X7349393Y13546908D01*
X7380346Y13622063D01*
X7421642Y13721983D01*
X7461543Y13818658D01*
X7498571Y13908496D01*
X7531248Y13987905D01*
X7558094Y14053294D01*
X7577632Y14101069D01*
X7585519Y14120500D01*
X7609540Y14179164D01*
X7628629Y14216605D01*
X7648003Y14234885D01*
X7672879Y14236065D01*
X7708473Y14222206D01*
X7760004Y14195371D01*
X7766386Y14191973D01*
X7815227Y14166837D01*
X7856668Y14147067D01*
X7884997Y14135309D01*
X7893324Y14133200D01*
X7908127Y14140090D01*
X7940644Y14159412D01*
X7987701Y14189141D01*
X8046128Y14227252D01*
X8112751Y14271719D01*
X8151955Y14298300D01*
X8221282Y14345308D01*
X8283643Y14387108D01*
X8335981Y14421690D01*
X8375235Y14447042D01*
X8398348Y14461155D01*
X8403117Y14463400D01*
X8414246Y14454812D01*
X8440749Y14430678D01*
X8480068Y14393440D01*
X8529646Y14345541D01*
X8586925Y14289423D01*
X8632003Y14244799D01*
X8693118Y14183172D01*
X8747704Y14126455D01*
X8793278Y14077366D01*
X8827360Y14038620D01*
X8847468Y14012934D01*
X8851900Y14004119D01*
X8844930Y13987674D01*
X8825396Y13953731D01*
X8795360Y13905557D01*
X8756886Y13846419D01*
X8712038Y13779584D01*
X8687173Y13743294D01*
X8639922Y13674171D01*
X8597932Y13611519D01*
X8563259Y13558507D01*
X8537959Y13518304D01*
X8524088Y13494079D01*
X8522073Y13488826D01*
X8526609Y13470781D01*
X8539329Y13433944D01*
X8558396Y13382864D01*
X8581971Y13322090D01*
X8608217Y13256168D01*
X8635295Y13189647D01*
X8661368Y13127075D01*
X8684598Y13073000D01*
X8703147Y13031970D01*
X8715176Y13008533D01*
X8717443Y13005391D01*
X8734149Y12998428D01*
X8772107Y12988038D01*
X8827532Y12975080D01*
X8896639Y12960416D01*
X8975645Y12944905D01*
X9018137Y12937018D01*
X9100670Y12921582D01*
X9175208Y12906863D01*
X9237973Y12893670D01*
X9285188Y12882812D01*
X9313075Y12875098D01*
X9318626Y12872646D01*
X9324153Y12856062D01*
X9328620Y12818684D01*
X9332037Y12764692D01*
X9334415Y12698265D01*
X9335764Y12623585D01*
X9336095Y12544831D01*
X9335418Y12466182D01*
X9333744Y12391819D01*
X9331082Y12325922D01*
X9327444Y12272670D01*
X9322840Y12236244D01*
X9317280Y12220823D01*
X9316994Y12220684D01*
X9299972Y12216533D01*
X9261690Y12208521D01*
X9205865Y12197384D01*
X9136220Y12183857D01*
X9056473Y12168676D01*
X9004679Y12158958D01*
X8921107Y12142998D01*
X8845870Y12127929D01*
X8782574Y12114533D01*
X8734826Y12103587D01*
X8706232Y12095872D01*
X8699701Y12093050D01*
X8690090Y12076403D01*
X8673176Y12040941D01*
X8650908Y11991318D01*
X8625238Y11932188D01*
X8598116Y11868204D01*
X8571493Y11804021D01*
X8547319Y11744291D01*
X8527546Y11693668D01*
X8514125Y11656806D01*
X8509005Y11638358D01*
X8509000Y11638131D01*
X8515946Y11621640D01*
X8535423Y11587589D01*
X8565394Y11539222D01*
X8603819Y11479783D01*
X8648659Y11412518D01*
X8675756Y11372724D01*
X8723646Y11302331D01*
X8766728Y11237893D01*
X8802871Y11182686D01*
X8829946Y11139987D01*
X8845824Y11113071D01*
X8849010Y11106189D01*
X8846222Y11093368D01*
X8832023Y11071405D01*
X8804971Y11038654D01*
X8763623Y10993469D01*
X8706537Y10934206D01*
X8634766Y10861714D01*
X8573107Y10800598D01*
X8516800Y10745963D01*
X8468473Y10700263D01*
X8430753Y10665953D01*
X8406268Y10645487D01*
X8398216Y10640700D01*
X8383723Y10647650D01*
X8351501Y10667168D01*
X8304628Y10697254D01*
X8246184Y10735910D01*
X8179245Y10781136D01*
X8131380Y10813979D01*
X8060201Y10862787D01*
X7995245Y10906712D01*
X7939649Y10943682D01*
X7896553Y10971624D01*
X7869095Y10988465D01*
X7861091Y10992485D01*
X7843822Y10989504D01*
X7807882Y10978322D01*
X7757937Y10960776D01*
X7698650Y10938702D01*
X7634684Y10913934D01*
X7570702Y10888308D01*
X7511368Y10863662D01*
X7461346Y10841829D01*
X7425300Y10824647D01*
X7408107Y10814167D01*
X7401693Y10798035D01*
X7391629Y10760480D01*
X7378723Y10705090D01*
X7363783Y10635448D01*
X7347614Y10555140D01*
X7335257Y10490544D01*
X7319025Y10404863D01*
X7303966Y10327358D01*
X7290796Y10261563D01*
X7280234Y10211015D01*
X7272997Y10179251D01*
X7270176Y10169869D01*
X7255789Y10166477D01*
X7219111Y10163510D01*
X7163248Y10161082D01*
X7091306Y10159306D01*
X7006392Y10158294D01*
X6945879Y10158100D01*
X6848166Y10158145D01*
X6772807Y10158456D01*
X6716755Y10159300D01*
X6676962Y10160938D01*
X6650383Y10163638D01*
X6633970Y10167662D01*
X6624676Y10173276D01*
X6619455Y10180744D01*
X6616821Y10186675D01*
X6611124Y10207108D01*
X6601813Y10248563D01*
X6589703Y10307051D01*
X6575610Y10378582D01*
X6560347Y10459166D01*
X6552737Y10500482D01*
X6537337Y10583269D01*
X6522837Y10658235D01*
X6510017Y10721568D01*
X6499662Y10769456D01*
X6492553Y10798087D01*
X6490432Y10804041D01*
X6476502Y10813510D01*
X6443506Y10830341D01*
X6396011Y10852587D01*
X6338582Y10878296D01*
X6275786Y10905521D01*
X6212189Y10932313D01*
X6152356Y10956722D01*
X6100855Y10976799D01*
X6062250Y10990596D01*
X6041108Y10996163D01*
X6040265Y10996194D01*
X6026285Y10989254D01*
X5994441Y10969797D01*
X5947745Y10939780D01*
X5889204Y10901159D01*
X5821829Y10855893D01*
X5766780Y10818394D01*
X5694738Y10769406D01*
X5629271Y10725589D01*
X5573383Y10688898D01*
X5530081Y10661287D01*
X5502370Y10644713D01*
X5493594Y10640700D01*
X5479996Y10649456D01*
X5452024Y10673700D01*
X5412679Y10710389D01*
X5364963Y10756482D01*
X5311877Y10808939D01*
X5256423Y10864719D01*
X5201601Y10920780D01*
X5150414Y10974083D01*
X5105861Y11021585D01*
X5070945Y11060246D01*
X5048668Y11087026D01*
X5041900Y11098358D01*
X5047726Y11114485D01*
X5065573Y11146428D01*
X5095999Y11195043D01*
X5139562Y11261185D01*
X5196819Y11345710D01*
X5268326Y11449474D01*
X5303604Y11500234D01*
X5336345Y11548851D01*
X5362768Y11591143D01*
X5379859Y11622085D01*
X5384800Y11635625D01*
X5379997Y11651790D01*
X5366863Y11686662D01*
X5347314Y11735703D01*
X5323264Y11794377D01*
X5296628Y11858149D01*
X5269321Y11922481D01*
X5243259Y11982838D01*
X5220355Y12034684D01*
X5202524Y12073482D01*
X5191683Y12094696D01*
X5190047Y12096987D01*
X5176210Y12101089D01*
X5140938Y12109040D01*
X5087780Y12120111D01*
X5020286Y12133574D01*
X4942003Y12148702D01*
X4889094Y12158695D01*
X4805081Y12174566D01*
X4728897Y12189230D01*
X4664266Y12201947D01*
X4614915Y12211978D01*
X4584570Y12218584D01*
X4577021Y12220602D01*
X4571443Y12226795D01*
X4567121Y12242365D01*
X4563910Y12269998D01*
X4561667Y12312379D01*
X4560247Y12372195D01*
X4559506Y12452132D01*
X4559300Y12550795D01*
X4559300Y12550795D01*
D12*
X8359600Y51037500D02*
G75*
G03X8359600Y51037500I-100000J0D01*
G01*
X4559600Y7427800D02*
G75*
G03X4559600Y7427800I-100000J0D01*
G01*
X5109600Y29967500D02*
G75*
G03X5109600Y29967500I-100000J0D01*
G01*
X5184600Y45292500D02*
G75*
G03X5184600Y45292500I-100000J0D01*
G01*
X9009600Y27817500D02*
G75*
G03X9009600Y27817500I-100000J0D01*
G01*
M02*
