G04 #@! TF.FileFunction,Copper,L1,Top,Signal*
%FSLAX46Y46*%
G04 Gerber Fmt 4.6, Leading zero omitted, Abs format (unit mm)*
G04 Created by KiCad (PCBNEW (after 2015-mar-04 BZR unknown)-product) date 5/23/2015 10:25:57 AM*
%MOMM*%
G01*
G04 APERTURE LIST*
%ADD10C,0.100000*%
%ADD11C,0.200000*%
%ADD12R,0.400000X1.850000*%
%ADD13O,1.050000X2.250000*%
%ADD14C,1.200000*%
%ADD15R,1.200000X2.500000*%
%ADD16R,0.840000X0.930000*%
%ADD17R,1.820000X1.170000*%
%ADD18R,0.410000X1.470000*%
%ADD19R,1.230000X0.400000*%
%ADD20C,0.800000*%
%ADD21C,0.300000*%
G04 APERTURE END LIST*
D10*
D11*
X9931505Y12470595D02*
X10198172Y11670595D01*
X10464839Y12470595D01*
X10731505Y11746786D02*
X10769600Y11708690D01*
X10731505Y11670595D01*
X10693410Y11708690D01*
X10731505Y11746786D01*
X10731505Y11670595D01*
X11531505Y11670595D02*
X11074362Y11670595D01*
X11302933Y11670595D02*
X11302933Y12470595D01*
X11226743Y12356310D01*
X11150552Y12280119D01*
X11074362Y12242024D01*
X3876889Y14706434D02*
X3229270Y14706434D01*
X3153079Y14744529D01*
X3114984Y14782624D01*
X3076889Y14858815D01*
X3076889Y14973100D01*
X3114984Y15049291D01*
X3381650Y14706434D02*
X3343555Y14782624D01*
X3343555Y14935005D01*
X3381650Y15011196D01*
X3419746Y15049291D01*
X3495936Y15087386D01*
X3724508Y15087386D01*
X3800698Y15049291D01*
X3838793Y15011196D01*
X3876889Y14935005D01*
X3876889Y14782624D01*
X3838793Y14706434D01*
X3343555Y14325481D02*
X3876889Y14325481D01*
X4143555Y14325481D02*
X4105460Y14363576D01*
X4067365Y14325481D01*
X4105460Y14287386D01*
X4143555Y14325481D01*
X4067365Y14325481D01*
X3876889Y14058815D02*
X3876889Y13754053D01*
X4143555Y13944529D02*
X3457841Y13944529D01*
X3381650Y13906434D01*
X3343555Y13830243D01*
X3343555Y13754053D01*
X3343555Y13487386D02*
X4143555Y13487386D01*
X3343555Y13144529D02*
X3762603Y13144529D01*
X3838793Y13182624D01*
X3876889Y13258814D01*
X3876889Y13373100D01*
X3838793Y13449291D01*
X3800698Y13487386D01*
X3876889Y12420719D02*
X3343555Y12420719D01*
X3876889Y12763576D02*
X3457841Y12763576D01*
X3381650Y12725481D01*
X3343555Y12649290D01*
X3343555Y12535004D01*
X3381650Y12458814D01*
X3419746Y12420719D01*
X3343555Y12039766D02*
X4143555Y12039766D01*
X3838793Y12039766D02*
X3876889Y11963575D01*
X3876889Y11811194D01*
X3838793Y11735004D01*
X3800698Y11696909D01*
X3724508Y11658813D01*
X3495936Y11658813D01*
X3419746Y11696909D01*
X3381650Y11735004D01*
X3343555Y11811194D01*
X3343555Y11963575D01*
X3381650Y12039766D01*
X2023555Y15163577D02*
X2556889Y15163577D01*
X2823555Y15163577D02*
X2785460Y15201672D01*
X2747365Y15163577D01*
X2785460Y15125482D01*
X2823555Y15163577D01*
X2747365Y15163577D01*
X2023555Y14668339D02*
X2061650Y14744530D01*
X2099746Y14782625D01*
X2175936Y14820720D01*
X2404508Y14820720D01*
X2480698Y14782625D01*
X2518793Y14744530D01*
X2556889Y14668339D01*
X2556889Y14554053D01*
X2518793Y14477863D01*
X2480698Y14439768D01*
X2404508Y14401672D01*
X2175936Y14401672D01*
X2099746Y14439768D01*
X2061650Y14477863D01*
X2023555Y14554053D01*
X2023555Y14668339D01*
X2061650Y13715958D02*
X2023555Y13792148D01*
X2023555Y13944529D01*
X2061650Y14020720D01*
X2099746Y14058815D01*
X2175936Y14096910D01*
X2404508Y14096910D01*
X2480698Y14058815D01*
X2518793Y14020720D01*
X2556889Y13944529D01*
X2556889Y13792148D01*
X2518793Y13715958D01*
X2023555Y13030244D02*
X2442603Y13030244D01*
X2518793Y13068339D01*
X2556889Y13144529D01*
X2556889Y13296910D01*
X2518793Y13373101D01*
X2061650Y13030244D02*
X2023555Y13106434D01*
X2023555Y13296910D01*
X2061650Y13373101D01*
X2137841Y13411196D01*
X2214031Y13411196D01*
X2290222Y13373101D01*
X2328317Y13296910D01*
X2328317Y13106434D01*
X2366412Y13030244D01*
X2556889Y12649291D02*
X1756889Y12649291D01*
X2518793Y12649291D02*
X2556889Y12573100D01*
X2556889Y12420719D01*
X2518793Y12344529D01*
X2480698Y12306434D01*
X2404508Y12268338D01*
X2175936Y12268338D01*
X2099746Y12306434D01*
X2061650Y12344529D01*
X2023555Y12420719D01*
X2023555Y12573100D01*
X2061650Y12649291D01*
X2023555Y11582624D02*
X2442603Y11582624D01*
X2518793Y11620719D01*
X2556889Y11696909D01*
X2556889Y11849290D01*
X2518793Y11925481D01*
X2061650Y11582624D02*
X2023555Y11658814D01*
X2023555Y11849290D01*
X2061650Y11925481D01*
X2137841Y11963576D01*
X2214031Y11963576D01*
X2290222Y11925481D01*
X2328317Y11849290D01*
X2328317Y11658814D01*
X2366412Y11582624D01*
D12*
X8259600Y52282500D03*
X7609600Y52282500D03*
X6959600Y52282500D03*
X6309600Y52282500D03*
X5659600Y52282500D03*
D13*
X3384600Y51857500D03*
X10534600Y51857500D03*
X10534600Y55307500D03*
X3384600Y55307500D03*
D14*
X5054600Y42192500D03*
X6324600Y39652500D03*
X7594600Y42192500D03*
X8864600Y39652500D03*
D15*
X4459600Y5857800D03*
X6959600Y5857800D03*
X9459600Y5857800D03*
D14*
X8864600Y15592500D03*
X7594600Y18132500D03*
X6324600Y15592500D03*
X5054600Y18132500D03*
D16*
X12024600Y43542500D03*
X10434600Y43542500D03*
D17*
X6959600Y50062500D03*
X6959600Y47022500D03*
D18*
X5009600Y31022500D03*
X5659600Y31022500D03*
X6309600Y31022500D03*
X6959600Y31022500D03*
X7609600Y31022500D03*
X8259600Y31022500D03*
X8909600Y31022500D03*
X8909600Y36762500D03*
X8259600Y36762500D03*
X7609600Y36762500D03*
X6959600Y36762500D03*
X6309600Y36762500D03*
X5659600Y36762500D03*
X5009600Y36762500D03*
D16*
X12024600Y41972500D03*
X10434600Y41972500D03*
X10434600Y40432500D03*
X12024600Y40432500D03*
X10434600Y38892500D03*
X12024600Y38892500D03*
X12024600Y37352500D03*
X10434600Y37352500D03*
X10434600Y35812500D03*
X12024600Y35812500D03*
D19*
X6019600Y45292500D03*
X6019600Y44642500D03*
X6019600Y43992500D03*
X7899600Y43992500D03*
X7899600Y45292500D03*
D16*
X3484600Y43542500D03*
X1894600Y43542500D03*
X1894600Y41972500D03*
X3484600Y41972500D03*
X3484600Y40432500D03*
X1894600Y40432500D03*
X3484600Y38892500D03*
X1894600Y38892500D03*
X3484600Y37352500D03*
X1894600Y37352500D03*
X1894600Y35812500D03*
X3484600Y35812500D03*
D18*
X8909600Y26762500D03*
X8259600Y26762500D03*
X7609600Y26762500D03*
X6959600Y26762500D03*
X6309600Y26762500D03*
X5659600Y26762500D03*
X5009600Y26762500D03*
X5009600Y21022500D03*
X5659600Y21022500D03*
X6309600Y21022500D03*
X6959600Y21022500D03*
X7609600Y21022500D03*
X8259600Y21022500D03*
X8909600Y21022500D03*
D16*
X12024600Y31972500D03*
X10434600Y31972500D03*
X10434600Y30432500D03*
X12024600Y30432500D03*
X10434600Y28892500D03*
X12024600Y28892500D03*
X10434600Y27352500D03*
X12024600Y27352500D03*
X12024600Y25812500D03*
X10434600Y25812500D03*
X3484600Y31972500D03*
X1894600Y31972500D03*
X3484600Y30432500D03*
X1894600Y30432500D03*
X1894600Y28892500D03*
X3484600Y28892500D03*
X1894600Y27352500D03*
X3484600Y27352500D03*
X3484600Y25812500D03*
X1894600Y25812500D03*
X1894600Y21972500D03*
X3484600Y21972500D03*
X3484600Y20432500D03*
X1894600Y20432500D03*
X1894600Y18892500D03*
X3484600Y18892500D03*
X3484600Y17352500D03*
X1894600Y17352500D03*
X10434600Y21972500D03*
X12024600Y21972500D03*
X10434600Y20432500D03*
X12024600Y20432500D03*
X10434600Y18892500D03*
X12024600Y18892500D03*
X12024600Y17352500D03*
X10434600Y17352500D03*
X10434600Y15812500D03*
X12024600Y15812500D03*
D20*
X8010000Y40592489D03*
X6319520Y18110200D03*
X4654819Y38474291D03*
X11649990Y23900000D03*
X9015681Y35027919D03*
X5036317Y35295337D03*
X11826240Y45097700D03*
X11050383Y45886816D03*
X3233420Y44877229D03*
X4386580Y44877229D03*
X1986262Y23251284D03*
X5459611Y24221440D03*
X2471330Y33329880D03*
X2537460Y6774180D03*
X2524760Y5669280D03*
X11467494Y5648129D03*
X11459626Y6770820D03*
X6964680Y14015720D03*
X9684590Y45001180D03*
X9260840Y44000420D03*
X2189480Y45227240D03*
X1990638Y24251276D03*
X4606260Y28890548D03*
X1986280Y34541460D03*
X5156200Y40592489D03*
X6459599Y24216293D03*
X9276080Y18052510D03*
X6959600Y8077200D03*
X7449194Y34643507D03*
X11224260Y13992860D03*
X7449194Y33643504D03*
X8915400Y28829000D03*
D11*
X1894600Y41972500D02*
X1894600Y40432500D01*
X8010000Y40592489D02*
X6778511Y40592489D01*
X6778511Y40592489D02*
X6157824Y41213176D01*
X6157824Y41213176D02*
X6756601Y40614399D01*
X3750300Y41706800D02*
X3484600Y41972500D01*
X4208298Y41706800D02*
X3750300Y41706800D01*
X4622599Y41292499D02*
X4208298Y41706800D01*
X6078501Y41292499D02*
X4622599Y41292499D01*
X6157824Y41213176D02*
X6078501Y41292499D01*
X9469398Y18892500D02*
X10434600Y18892500D01*
X8909600Y19452298D02*
X9469398Y18892500D01*
X8909600Y21022500D02*
X8909600Y19452298D01*
X12024600Y20432500D02*
X12024600Y18892500D01*
X10434600Y28892500D02*
X10434600Y27352500D01*
X11154601Y22998188D02*
X10988321Y23164468D01*
X11249660Y22903129D02*
X10988321Y23164468D01*
X11249660Y21249640D02*
X11249660Y22903129D01*
X12024600Y20474700D02*
X11249660Y21249640D01*
X12024600Y20432500D02*
X12024600Y20474700D01*
X10904220Y23248569D02*
X10988321Y23164468D01*
X10904220Y24541120D02*
X10904220Y23248569D01*
X11220000Y24856900D02*
X10904220Y24541120D01*
X11220000Y26514240D02*
X11220000Y24856900D01*
X10434600Y27299640D02*
X11220000Y26514240D01*
X10434600Y27352500D02*
X10434600Y27299640D01*
X10434600Y28967699D02*
X10434600Y28892500D01*
X9588833Y29813466D02*
X10434600Y28967699D01*
X9588833Y30748268D02*
X9588833Y29813466D01*
X9314600Y31022500D02*
X9588833Y30748268D01*
X8909600Y31022500D02*
X9314600Y31022500D01*
X5659600Y25776400D02*
X5659600Y26762500D01*
X4581115Y25536587D02*
X5419787Y25536587D01*
X4305202Y25812500D02*
X4581115Y25536587D01*
X5419787Y25536587D02*
X5659600Y25776400D01*
X3484600Y25812500D02*
X4305202Y25812500D01*
X1894600Y25147500D02*
X1894600Y25812500D01*
X4213601Y24942501D02*
X3570395Y24942501D01*
X3570096Y24942800D02*
X2099300Y24942800D01*
X3570395Y24942501D02*
X3570096Y24942800D01*
X4759601Y24396501D02*
X4213601Y24942501D01*
X2099300Y24942800D02*
X1894600Y25147500D01*
X4759601Y23450360D02*
X4759601Y24396501D01*
X5659600Y22550361D02*
X4759601Y23450360D01*
X5659600Y21022500D02*
X5659600Y22550361D01*
X9575800Y20671300D02*
X9814600Y20432500D01*
X9575800Y21906600D02*
X9575800Y20671300D01*
X8259589Y23222810D02*
X9575800Y21906600D01*
X8259589Y24562190D02*
X8259589Y23222810D01*
X9814600Y20432500D02*
X10434600Y20432500D01*
X8909600Y25212201D02*
X8259589Y24562190D01*
X8909600Y26762500D02*
X8909600Y25212201D01*
X3484600Y18892500D02*
X4104600Y18892500D01*
X4104600Y18892500D02*
X4244601Y19032501D01*
X4244601Y19032501D02*
X5995563Y19032501D01*
X5995563Y19032501D02*
X6319520Y18708544D01*
X6319520Y18708544D02*
X6319520Y18110200D01*
X3484600Y37352500D02*
X3484600Y38892500D01*
X4236610Y38892500D02*
X4654819Y38474291D01*
X3484600Y38892500D02*
X4236610Y38892500D01*
X5009600Y38119510D02*
X4654819Y38474291D01*
X5009600Y36762500D02*
X5009600Y38119510D01*
X1894600Y38892500D02*
X1894600Y37352500D01*
X5659600Y37697500D02*
X5659600Y36762500D01*
X5659600Y38877500D02*
X5659600Y37697500D01*
X4104600Y40432500D02*
X5659600Y38877500D01*
X3484600Y40432500D02*
X4104600Y40432500D01*
X1894600Y37352500D02*
X1894600Y37397500D01*
X3484600Y40432500D02*
X3484600Y40400960D01*
X1894600Y38937500D02*
X2606500Y39649400D01*
X1894600Y38892500D02*
X1894600Y38937500D01*
X3484600Y40387500D02*
X3484600Y40432500D01*
X2746500Y39649400D02*
X3484600Y40387500D01*
X2606500Y39649400D02*
X2746500Y39649400D01*
X12024600Y31972500D02*
X12024600Y30432500D01*
X10434600Y40432500D02*
X9661380Y40432500D01*
X9661380Y40432500D02*
X9408160Y40685720D01*
X9408160Y41879191D02*
X9094851Y42192500D01*
X9408160Y40685720D02*
X9408160Y41879191D01*
X9094851Y42192500D02*
X7594600Y42192500D01*
X10434600Y32016980D02*
X10434600Y31972500D01*
X11226800Y32809180D02*
X10434600Y32016980D01*
X11226800Y39583360D02*
X11226800Y32809180D01*
X10434600Y40375560D02*
X11226800Y39583360D01*
X10434600Y40432500D02*
X10434600Y40375560D01*
X12024600Y35812500D02*
X12024600Y37352500D01*
X10434600Y38892500D02*
X10434600Y37352500D01*
X6924599Y39052501D02*
X6324600Y39652500D01*
X7407200Y38569900D02*
X6924599Y39052501D01*
X9114002Y38569900D02*
X7407200Y38569900D01*
X9436602Y38892500D02*
X9114002Y38569900D01*
X10434600Y38892500D02*
X9436602Y38892500D01*
X1894600Y18892500D02*
X1894600Y17352500D01*
X1894600Y16327360D02*
X1894600Y17352500D01*
X2263140Y15958820D02*
X1894600Y16327360D01*
X4724883Y15958820D02*
X2263140Y15958820D01*
X5379720Y15303983D02*
X4724883Y15958820D01*
X5379720Y8473440D02*
X5379720Y15303983D01*
X4459600Y7553320D02*
X5379720Y8473440D01*
X4459600Y5857800D02*
X4459600Y7553320D01*
X8659599Y23787646D02*
X8659599Y24107929D01*
X10434600Y34828200D02*
X10434600Y35812500D01*
X10826790Y34436010D02*
X10434600Y34828200D01*
X10826790Y33296135D02*
X10826790Y34436010D01*
X10352535Y32821880D02*
X10826790Y33296135D01*
X9603783Y32821880D02*
X10352535Y32821880D01*
X9287513Y32505610D02*
X9603783Y32821880D01*
X7884878Y32505610D02*
X9287513Y32505610D01*
X7609600Y32230332D02*
X7884878Y32505610D01*
X7609600Y31022500D02*
X7609600Y32230332D01*
X7609600Y30087500D02*
X7609600Y31022500D01*
X7609600Y29941543D02*
X7609600Y30087500D01*
X7863653Y29687490D02*
X7609600Y29941543D01*
X9149110Y29687490D02*
X7863653Y29687490D01*
X9615401Y29221199D02*
X9149110Y29687490D01*
X10434600Y25812500D02*
X10434600Y25887400D01*
X9615401Y26706599D02*
X9615401Y27695464D01*
X10434600Y25887400D02*
X9615401Y26706599D01*
X9615401Y27695464D02*
X9615401Y29221199D01*
X9615401Y26746697D02*
X9615401Y27695464D01*
X10434600Y22008820D02*
X10434600Y21972500D01*
X9828889Y22614531D02*
X10434600Y22008820D01*
X9433567Y22614531D02*
X9828889Y22614531D01*
X8659599Y23388499D02*
X9433567Y22614531D01*
X8659599Y23787646D02*
X8659599Y23388499D01*
X10434600Y25767500D02*
X10434600Y25812500D01*
X9811007Y25143907D02*
X10434600Y25767500D01*
X9407005Y25143907D02*
X9811007Y25143907D01*
X8659599Y24396501D02*
X9407005Y25143907D01*
X8659599Y23787646D02*
X8659599Y24396501D01*
X7609600Y35802478D02*
X6749193Y34942071D01*
X12024600Y21972500D02*
X12024600Y22637500D01*
X12024600Y25812500D02*
X12024600Y25080200D01*
X7609600Y35802478D02*
X7609600Y36762500D01*
X8063286Y32905620D02*
X8659599Y33501933D01*
X12024600Y24840295D02*
X12024600Y24907719D01*
X11649990Y24465685D02*
X12024600Y24840295D01*
X11649990Y23900000D02*
X11649990Y24465685D01*
X12024600Y25812500D02*
X12024600Y24907719D01*
X12012453Y22971852D02*
X12024600Y22971852D01*
X11649990Y23334315D02*
X12012453Y22971852D01*
X11649990Y23900000D02*
X11649990Y23334315D01*
X12024600Y22637500D02*
X12024600Y22971852D01*
X6309600Y37697500D02*
X6309600Y36762500D01*
X6483500Y37871400D02*
X6309600Y37697500D01*
X7435700Y37871400D02*
X6483500Y37871400D01*
X7609600Y37697500D02*
X7435700Y37871400D01*
X7609600Y36762500D02*
X7609600Y37697500D01*
X5009600Y31022500D02*
X5009600Y31833505D01*
X5009600Y31833505D02*
X5009600Y32042820D01*
X7719189Y32905620D02*
X7796556Y32905620D01*
X7796556Y32905620D02*
X8063286Y32905620D01*
X6749193Y34942071D02*
X6749193Y32921399D01*
X6749193Y32921399D02*
X6764972Y32905620D01*
X6764972Y32905620D02*
X7796556Y32905620D01*
X5009600Y31833505D02*
X5009600Y32059243D01*
X5009600Y32059243D02*
X5144362Y32194005D01*
X6749193Y32329533D02*
X6749193Y32614446D01*
X6613665Y32194005D02*
X6749193Y32329533D01*
X6749193Y32614446D02*
X6749193Y32921399D01*
X6749193Y32499713D02*
X6749193Y32614446D01*
X5659600Y32118261D02*
X5659600Y31022500D01*
X5735344Y32194005D02*
X5659600Y32118261D01*
X5144362Y32194005D02*
X5735344Y32194005D01*
X5735344Y32194005D02*
X6613665Y32194005D01*
X8659599Y34671837D02*
X9015681Y35027919D01*
X8659599Y33501933D02*
X8659599Y34671837D01*
X6536760Y35295337D02*
X5036317Y35295337D01*
X6959600Y35718177D02*
X6787738Y35546315D01*
X6959600Y36762500D02*
X6959600Y35718177D01*
X6787738Y35546315D02*
X6536760Y35295337D01*
D21*
X5412740Y47482760D02*
X4386580Y46456600D01*
X4386580Y46456600D02*
X4386580Y44877229D01*
X5412740Y49596040D02*
X5412740Y47482760D01*
X4966557Y50042223D02*
X5412740Y49596040D01*
X4966557Y50662840D02*
X4771482Y50662840D01*
X5341620Y50662840D02*
X4966557Y50662840D01*
X4966557Y50662840D02*
X4966557Y50042223D01*
X4488180Y51578920D02*
X4488180Y50946142D01*
X4488180Y50946142D02*
X4771482Y50662840D01*
X3384600Y51857500D02*
X4209600Y51857500D01*
X4209600Y51857500D02*
X4488180Y51578920D01*
X5659600Y50980820D02*
X5341620Y50662840D01*
X5659600Y52282500D02*
X5659600Y50980820D01*
X12024600Y43542500D02*
X12024600Y44307500D01*
X12024600Y44307500D02*
X11826240Y44505860D01*
X11826240Y44505860D02*
X11826240Y45097700D01*
X11050383Y45886816D02*
X11050383Y45873557D01*
X11050383Y45873557D02*
X11826240Y45097700D01*
D11*
X12024600Y43542500D02*
X12024600Y41972500D01*
X12024600Y40432500D02*
X12024600Y41972500D01*
D21*
X3233420Y44877229D02*
X4386580Y44877229D01*
X4610400Y43992500D02*
X4386580Y44216320D01*
X4386580Y44216320D02*
X4386580Y44877229D01*
X6019600Y43992500D02*
X4610400Y43992500D01*
D11*
X1986262Y22781242D02*
X1894600Y22689580D01*
X1894600Y22689580D02*
X1894600Y21972500D01*
X1986262Y23251284D02*
X1986262Y22781242D01*
X1894600Y28168927D02*
X1894600Y28892500D01*
X5054600Y18132500D02*
X5261218Y18132500D01*
X1874996Y21992104D02*
X1894600Y21972500D01*
X3484600Y17352500D02*
X4274600Y17352500D01*
X4274600Y17352500D02*
X5054600Y18132500D01*
X1894600Y20432500D02*
X1894600Y21972500D01*
X1894600Y30432500D02*
X1894600Y28892500D01*
X1894600Y31972500D02*
X1894600Y30432500D01*
X1894600Y27352500D02*
X1894600Y28168927D01*
X1894600Y32753150D02*
X2471330Y33329880D01*
X1894600Y31972500D02*
X1894600Y32753150D01*
X5459611Y24787125D02*
X5828646Y25156160D01*
X5459611Y24221440D02*
X5459611Y24787125D01*
X5828646Y25156160D02*
X7371080Y25156160D01*
X7609600Y25394680D02*
X7609600Y26762500D01*
X7371080Y25156160D02*
X7609600Y25394680D01*
X10434600Y17352500D02*
X8392608Y17352500D01*
X5994347Y17192753D02*
X5888798Y17298302D01*
X8232861Y17192753D02*
X5994347Y17192753D01*
X5054600Y18132500D02*
X5888798Y17298302D01*
X8232861Y17192753D02*
X8392608Y17352500D01*
X6959600Y21780484D02*
X6959600Y21022500D01*
X6959600Y22478229D02*
X6959600Y21780484D01*
X6610849Y22826980D02*
X6959600Y22478229D01*
X5948680Y22826980D02*
X6610849Y22826980D01*
X5459611Y23316049D02*
X5948680Y22826980D01*
X5459611Y24221440D02*
X5459611Y23316049D01*
X6019600Y42131180D02*
X6019600Y43992500D01*
X6858281Y41292499D02*
X6019600Y42131180D01*
X8517003Y41292499D02*
X6858281Y41292499D01*
X8864600Y40944902D02*
X8517003Y41292499D01*
X8864600Y39652500D02*
X8864600Y40944902D01*
X2537460Y5681980D02*
X2524760Y5669280D01*
X2537460Y6774180D02*
X2537460Y5681980D01*
X11529060Y6776720D02*
X11518900Y6786880D01*
X12024600Y38892500D02*
X12024600Y40432500D01*
X4162300Y27352500D02*
X3484600Y27352500D01*
X6309600Y26762500D02*
X6309600Y27855940D01*
X6309600Y27855940D02*
X6116320Y28049220D01*
X4859020Y28049220D02*
X4162300Y27352500D01*
X6116320Y28049220D02*
X4859020Y28049220D01*
D21*
X9260840Y44000420D02*
X9260840Y44577430D01*
X9260840Y44577430D02*
X9684590Y45001180D01*
X10434600Y41972500D02*
X10434600Y42017500D01*
X10434600Y42017500D02*
X9260840Y43191260D01*
X9260840Y43191260D02*
X9260840Y44000420D01*
X7899600Y43992500D02*
X9252920Y43992500D01*
X9252920Y43992500D02*
X9260840Y44000420D01*
D11*
X1894600Y43542500D02*
X1894600Y44320220D01*
X1894600Y44320220D02*
X2189480Y44615100D01*
X2189480Y44615100D02*
X2189480Y45227240D01*
X3484600Y21972500D02*
X3484600Y22017500D01*
X3484600Y22017500D02*
X2686281Y22815819D01*
X2686281Y22815819D02*
X2686281Y23555633D01*
X2686281Y23555633D02*
X1990638Y24251276D01*
X6959600Y30087500D02*
X6959600Y31022500D01*
X4604308Y28892500D02*
X4606260Y28890548D01*
X3484600Y28892500D02*
X4604308Y28892500D01*
X5762648Y28890548D02*
X4606260Y28890548D01*
X6309600Y20087500D02*
X6309600Y21022500D01*
X6054621Y19832521D02*
X6309600Y20087500D01*
X4719577Y19832521D02*
X6054621Y19832521D01*
X4368800Y20183298D02*
X4719577Y19832521D01*
X4368800Y21708300D02*
X4368800Y20183298D01*
X4104600Y21972500D02*
X4368800Y21708300D01*
X3484600Y21972500D02*
X4104600Y21972500D01*
X10434600Y15857500D02*
X10434600Y15812500D01*
X9662720Y16629380D02*
X10434600Y15857500D01*
X5953729Y16629380D02*
X9662720Y16629380D01*
X5777907Y16453558D02*
X5953729Y16629380D01*
X2958540Y16453558D02*
X5777907Y16453558D01*
X2720340Y16691758D02*
X2958540Y16453558D01*
X2720340Y21163240D02*
X2720340Y16691758D01*
X3484600Y21927500D02*
X2720340Y21163240D01*
X3484600Y21972500D02*
X3484600Y21927500D01*
X4606260Y28890548D02*
X6431868Y28890548D01*
X6959600Y29418280D02*
X6959600Y31022500D01*
X6431868Y28890548D02*
X6959600Y29418280D01*
X1986280Y34541460D02*
X1986280Y35003740D01*
X1986280Y35055820D02*
X1986280Y35003740D01*
X1894600Y35147500D02*
X1986280Y35055820D01*
X1894600Y35812500D02*
X1894600Y35147500D01*
D21*
X7899600Y45292500D02*
X8814600Y45292500D01*
X8814600Y45292500D02*
X9318300Y45796200D01*
X9318300Y45796200D02*
X9999572Y45796200D01*
X9999572Y45796200D02*
X10434600Y45361172D01*
X10434600Y45361172D02*
X10434600Y44102838D01*
X10434600Y44102838D02*
X10434600Y43542500D01*
D11*
X7899600Y45292500D02*
X7499840Y45292500D01*
X6980000Y45287419D02*
X6974919Y45292500D01*
X7899600Y45292500D02*
X6974919Y45292500D01*
X6974919Y45292500D02*
X6019600Y45292500D01*
D21*
X7899600Y45792500D02*
X7899600Y45292500D01*
X7728260Y45963840D02*
X7899600Y45792500D01*
X7133260Y45963840D02*
X7728260Y45963840D01*
X6959600Y46137500D02*
X7133260Y45963840D01*
X6959600Y47022500D02*
X6959600Y46137500D01*
D11*
X12024600Y28892500D02*
X12024600Y27352500D01*
X12024600Y28892500D02*
X12024600Y28945600D01*
X12024600Y28945600D02*
X11303000Y29667200D01*
X10434600Y30387500D02*
X10434600Y30432500D01*
X11154900Y29667200D02*
X10434600Y30387500D01*
X11303000Y29667200D02*
X11154900Y29667200D01*
X8259600Y31957800D02*
X8259600Y31022500D01*
X8407400Y32105600D02*
X8259600Y31957800D01*
X9306502Y32105600D02*
X8407400Y32105600D01*
X9525000Y31887102D02*
X9306502Y32105600D01*
X9525000Y31377799D02*
X9525000Y31887102D01*
X10434600Y30468199D02*
X9525000Y31377799D01*
X10434600Y30432500D02*
X10434600Y30468199D01*
X3484600Y30432500D02*
X3484600Y31972500D01*
X3484600Y31972500D02*
X3484600Y32017500D01*
X3484600Y32017500D02*
X4759601Y33292501D01*
X6309600Y30087500D02*
X6309600Y31022500D01*
X5937560Y29715460D02*
X6309600Y30087500D01*
X4821640Y29715460D02*
X5937560Y29715460D01*
X4104600Y30432500D02*
X4821640Y29715460D01*
X3484600Y30432500D02*
X4104600Y30432500D01*
X3484600Y35812500D02*
X3484600Y35766020D01*
X4759601Y34491019D02*
X4759601Y34229189D01*
X3484600Y35766020D02*
X4759601Y34491019D01*
X4759601Y34229189D02*
X4759601Y34396501D01*
X4759601Y33292501D02*
X4759601Y34229189D01*
D21*
X6959600Y50062500D02*
X7268580Y50062500D01*
X8259600Y51053520D02*
X8259600Y52282500D01*
X7268580Y50062500D02*
X8259600Y51053520D01*
D11*
X2677160Y41354938D02*
X2677160Y42690060D01*
X2677160Y42690060D02*
X3484600Y43497500D01*
X4141901Y41207499D02*
X2824599Y41207499D01*
X2824599Y41207499D02*
X2677160Y41354938D01*
X4141901Y41207499D02*
X4456911Y40892489D01*
X4456911Y40892489D02*
X4720831Y40892489D01*
X4720831Y40892489D02*
X5020831Y40592489D01*
X5020831Y40592489D02*
X5156200Y40592489D01*
X3484600Y43542500D02*
X3484600Y43507380D01*
X3484600Y43497500D02*
X3484600Y43542500D01*
X7025284Y24216293D02*
X6459599Y24216293D01*
X7347994Y24216293D02*
X7025284Y24216293D01*
X8259600Y25127899D02*
X7347994Y24216293D01*
X8259600Y26762500D02*
X8259600Y25127899D01*
X9276080Y18052510D02*
X8259600Y19068990D01*
X8259600Y19068990D02*
X8259600Y21022500D01*
X9459600Y7495816D02*
X9459600Y5857800D01*
X8539480Y8415936D02*
X9459600Y7495816D01*
X8539480Y14058900D02*
X8539480Y8415936D01*
X8864600Y14384020D02*
X8539480Y14058900D01*
X8864600Y15592500D02*
X8864600Y14384020D01*
X6959600Y5857800D02*
X6959600Y8077200D01*
X7609600Y19750800D02*
X7609600Y21022500D01*
X3484600Y20432500D02*
X3484600Y20388860D01*
X4207623Y19658217D02*
X4433329Y19432511D01*
X4207623Y19665837D02*
X4207623Y19658217D01*
X3484600Y20388860D02*
X4207623Y19665837D01*
X7291311Y19432511D02*
X7609600Y19750800D01*
X4433329Y19432511D02*
X7291311Y19432511D01*
X8259600Y35827500D02*
X8082755Y35650655D01*
X7449194Y34643507D02*
X7849193Y35043506D01*
X7849193Y35043506D02*
X7849193Y35417093D01*
X7849193Y35417093D02*
X8082755Y35650655D01*
X8259600Y36762500D02*
X8259600Y35827500D01*
X12024600Y17352500D02*
X12024600Y15812500D01*
X12024600Y17397500D02*
X12024600Y17352500D01*
X12024600Y15812500D02*
X12024600Y15767500D01*
X12024600Y15252374D02*
X12024600Y15812500D01*
X12024600Y14227515D02*
X12024600Y15252374D01*
X11789945Y13992860D02*
X12024600Y14227515D01*
X11224260Y13992860D02*
X11789945Y13992860D01*
X8249203Y34443513D02*
X7849193Y34043503D01*
X7849193Y34043503D02*
X7449194Y33643504D01*
X7485193Y33643504D02*
X7449194Y33643504D01*
X8249203Y35251404D02*
X8909600Y35911801D01*
X8909600Y35911801D02*
X8909600Y36762500D01*
X8789329Y35791530D02*
X8249203Y35251404D01*
X8249203Y35251404D02*
X8249203Y34443513D01*
X6959600Y28427680D02*
X7360920Y28829000D01*
X7360920Y28829000D02*
X8915400Y28829000D01*
X6959600Y27862547D02*
X6959600Y28427680D01*
X6959600Y26762500D02*
X6959600Y27697500D01*
X6959600Y26762500D02*
X6959600Y27862547D01*
G36*
X2712906Y21792202D02*
X2664600Y21743896D01*
X2664600Y21835000D01*
X2577100Y21922500D01*
X1944600Y21922500D01*
X1944600Y21245000D01*
X1987100Y21202500D01*
X1944600Y21160000D01*
X1944600Y20482500D01*
X1964600Y20482500D01*
X1964600Y20382500D01*
X1944600Y20382500D01*
X1944600Y20362500D01*
X1844600Y20362500D01*
X1844600Y20382500D01*
X1824600Y20382500D01*
X1824600Y20482500D01*
X1844600Y20482500D01*
X1844600Y21160000D01*
X1802100Y21202500D01*
X1844600Y21245000D01*
X1844600Y21922500D01*
X1824600Y21922500D01*
X1824600Y22022500D01*
X1844600Y22022500D01*
X1844600Y22700000D01*
X1757100Y22787500D01*
X1573200Y22787500D01*
X1573200Y23628011D01*
X1622973Y23593417D01*
X1757754Y23534532D01*
X1901405Y23502948D01*
X2048456Y23499868D01*
X2097076Y23508442D01*
X2236281Y23369237D01*
X2236281Y22815819D01*
X2239057Y22787500D01*
X2032100Y22787500D01*
X1944600Y22700000D01*
X1944600Y22022500D01*
X2577100Y22022500D01*
X2664600Y22110000D01*
X2664600Y22201104D01*
X2712906Y22152798D01*
X2712906Y21792202D01*
X2712906Y21792202D01*
G37*
X2712906Y21792202D02*
X2664600Y21743896D01*
X2664600Y21835000D01*
X2577100Y21922500D01*
X1944600Y21922500D01*
X1944600Y21245000D01*
X1987100Y21202500D01*
X1944600Y21160000D01*
X1944600Y20482500D01*
X1964600Y20482500D01*
X1964600Y20382500D01*
X1944600Y20382500D01*
X1944600Y20362500D01*
X1844600Y20362500D01*
X1844600Y20382500D01*
X1824600Y20382500D01*
X1824600Y20482500D01*
X1844600Y20482500D01*
X1844600Y21160000D01*
X1802100Y21202500D01*
X1844600Y21245000D01*
X1844600Y21922500D01*
X1824600Y21922500D01*
X1824600Y22022500D01*
X1844600Y22022500D01*
X1844600Y22700000D01*
X1757100Y22787500D01*
X1573200Y22787500D01*
X1573200Y23628011D01*
X1622973Y23593417D01*
X1757754Y23534532D01*
X1901405Y23502948D01*
X2048456Y23499868D01*
X2097076Y23508442D01*
X2236281Y23369237D01*
X2236281Y22815819D01*
X2239057Y22787500D01*
X2032100Y22787500D01*
X1944600Y22700000D01*
X1944600Y22022500D01*
X2577100Y22022500D01*
X2664600Y22110000D01*
X2664600Y22201104D01*
X2712906Y22152798D01*
X2712906Y21792202D01*
G36*
X3747160Y32916457D02*
X3619898Y32789194D01*
X3064600Y32789194D01*
X3007805Y32784577D01*
X2913554Y32755106D01*
X2831211Y32700593D01*
X2767270Y32625338D01*
X2726771Y32535273D01*
X2712906Y32437500D01*
X2712906Y31507500D01*
X2717523Y31450705D01*
X2746994Y31356454D01*
X2801507Y31274111D01*
X2876762Y31210170D01*
X2894231Y31202315D01*
X2831211Y31160593D01*
X2767270Y31085338D01*
X2726771Y30995273D01*
X2712906Y30897500D01*
X2712906Y29967500D01*
X2717523Y29910705D01*
X2746994Y29816454D01*
X2801507Y29734111D01*
X2876762Y29670170D01*
X2894231Y29662315D01*
X2831211Y29620593D01*
X2767270Y29545338D01*
X2726771Y29455273D01*
X2712906Y29357500D01*
X2712906Y28427500D01*
X2717523Y28370705D01*
X2746994Y28276454D01*
X2801507Y28194111D01*
X2876762Y28130170D01*
X2894231Y28122315D01*
X2831211Y28080593D01*
X2767270Y28005338D01*
X2726771Y27915273D01*
X2712906Y27817500D01*
X2712906Y26887500D01*
X2717523Y26830705D01*
X2746994Y26736454D01*
X2801507Y26654111D01*
X2876762Y26590170D01*
X2894231Y26582315D01*
X2831211Y26540593D01*
X2767270Y26465338D01*
X2726771Y26375273D01*
X2712906Y26277500D01*
X2712906Y25392800D01*
X2666294Y25392800D01*
X2666294Y26277500D01*
X2661677Y26334295D01*
X2632206Y26428546D01*
X2577693Y26510889D01*
X2502438Y26574830D01*
X2487017Y26581765D01*
X2537712Y26615637D01*
X2586463Y26664388D01*
X2624766Y26721713D01*
X2651150Y26785409D01*
X2664600Y26853028D01*
X2664600Y26921972D01*
X2664600Y27215000D01*
X2664600Y27490000D01*
X2664600Y27783028D01*
X2664600Y27851972D01*
X2651150Y27919591D01*
X2624766Y27983287D01*
X2586463Y28040612D01*
X2537712Y28089363D01*
X2488118Y28122500D01*
X2537712Y28155637D01*
X2586463Y28204388D01*
X2624766Y28261713D01*
X2651150Y28325409D01*
X2664600Y28393028D01*
X2664600Y28461972D01*
X2664600Y28755000D01*
X2664600Y29030000D01*
X2664600Y29323028D01*
X2664600Y29391972D01*
X2651150Y29459591D01*
X2624766Y29523287D01*
X2586463Y29580612D01*
X2537712Y29629363D01*
X2488118Y29662500D01*
X2537712Y29695637D01*
X2586463Y29744388D01*
X2624766Y29801713D01*
X2651150Y29865409D01*
X2664600Y29933028D01*
X2664600Y30001972D01*
X2664600Y30295000D01*
X2664600Y30570000D01*
X2664600Y30863028D01*
X2664600Y30931972D01*
X2651150Y30999591D01*
X2624766Y31063287D01*
X2586463Y31120612D01*
X2537712Y31169363D01*
X2488118Y31202500D01*
X2537712Y31235637D01*
X2586463Y31284388D01*
X2624766Y31341713D01*
X2651150Y31405409D01*
X2664600Y31473028D01*
X2664600Y31541972D01*
X2664600Y31835000D01*
X2664600Y32110000D01*
X2664600Y32403028D01*
X2664600Y32471972D01*
X2651150Y32539591D01*
X2624766Y32603287D01*
X2586463Y32660612D01*
X2537712Y32709363D01*
X2480387Y32747666D01*
X2416691Y32774050D01*
X2349072Y32787500D01*
X2032100Y32787500D01*
X1944600Y32700000D01*
X1944600Y32022500D01*
X2577100Y32022500D01*
X2664600Y32110000D01*
X2664600Y31835000D01*
X2577100Y31922500D01*
X1944600Y31922500D01*
X1944600Y31245000D01*
X1987100Y31202500D01*
X1944600Y31160000D01*
X1944600Y30482500D01*
X2577100Y30482500D01*
X2664600Y30570000D01*
X2664600Y30295000D01*
X2577100Y30382500D01*
X1944600Y30382500D01*
X1944600Y29705000D01*
X1987100Y29662500D01*
X1944600Y29620000D01*
X1944600Y28942500D01*
X2577100Y28942500D01*
X2664600Y29030000D01*
X2664600Y28755000D01*
X2577100Y28842500D01*
X1944600Y28842500D01*
X1944600Y28165000D01*
X1987100Y28122500D01*
X1944600Y28080000D01*
X1944600Y27402500D01*
X2577100Y27402500D01*
X2664600Y27490000D01*
X2664600Y27215000D01*
X2577100Y27302500D01*
X1944600Y27302500D01*
X1944600Y27282500D01*
X1844600Y27282500D01*
X1844600Y27302500D01*
X1824600Y27302500D01*
X1824600Y27402500D01*
X1844600Y27402500D01*
X1844600Y28080000D01*
X1802100Y28122500D01*
X1844600Y28165000D01*
X1844600Y28842500D01*
X1824600Y28842500D01*
X1824600Y28942500D01*
X1844600Y28942500D01*
X1844600Y29620000D01*
X1802100Y29662500D01*
X1844600Y29705000D01*
X1844600Y30382500D01*
X1824600Y30382500D01*
X1824600Y30482500D01*
X1844600Y30482500D01*
X1844600Y31160000D01*
X1802100Y31202500D01*
X1844600Y31245000D01*
X1844600Y31922500D01*
X1824600Y31922500D01*
X1824600Y32022500D01*
X1844600Y32022500D01*
X1844600Y32700000D01*
X1757100Y32787500D01*
X1573200Y32787500D01*
X1573200Y33915166D01*
X1618615Y33883601D01*
X1753396Y33824716D01*
X1897047Y33793132D01*
X2044098Y33790052D01*
X2188946Y33815593D01*
X2326074Y33868781D01*
X2450260Y33947592D01*
X2556773Y34049023D01*
X2641557Y34169211D01*
X2701380Y34303578D01*
X2733966Y34447005D01*
X2736312Y34615001D01*
X2707744Y34759283D01*
X2651695Y34895267D01*
X2570301Y35017776D01*
X2521528Y35066890D01*
X2547989Y35084407D01*
X2611930Y35159662D01*
X2652429Y35249727D01*
X2666294Y35347500D01*
X2666294Y36277500D01*
X2661677Y36334295D01*
X2632206Y36428546D01*
X2577693Y36510889D01*
X2502438Y36574830D01*
X2484968Y36582686D01*
X2547989Y36624407D01*
X2611930Y36699662D01*
X2652429Y36789727D01*
X2666294Y36887500D01*
X2666294Y37817500D01*
X2661677Y37874295D01*
X2632206Y37968546D01*
X2577693Y38050889D01*
X2502438Y38114830D01*
X2484968Y38122686D01*
X2547989Y38164407D01*
X2611930Y38239662D01*
X2652429Y38329727D01*
X2666294Y38427500D01*
X2666294Y39072798D01*
X2712906Y39119410D01*
X2712906Y38427500D01*
X2717523Y38370705D01*
X2746994Y38276454D01*
X2801507Y38194111D01*
X2876762Y38130170D01*
X2894231Y38122315D01*
X2831211Y38080593D01*
X2767270Y38005338D01*
X2726771Y37915273D01*
X2712906Y37817500D01*
X2712906Y36887500D01*
X2717523Y36830705D01*
X2746994Y36736454D01*
X2801507Y36654111D01*
X2876762Y36590170D01*
X2894231Y36582315D01*
X2831211Y36540593D01*
X2767270Y36465338D01*
X2726771Y36375273D01*
X2712906Y36277500D01*
X2712906Y35347500D01*
X2717523Y35290705D01*
X2746994Y35196454D01*
X2801507Y35114111D01*
X2876762Y35050170D01*
X2966827Y35009671D01*
X3064600Y34995806D01*
X3618418Y34995806D01*
X3746918Y34867306D01*
X3620806Y34868186D01*
X3432985Y34832357D01*
X3255701Y34760730D01*
X3095705Y34656031D01*
X2959092Y34522251D01*
X2851067Y34364483D01*
X2775742Y34188737D01*
X2735988Y34001708D01*
X2733318Y33810519D01*
X2767835Y33622453D01*
X2838223Y33444673D01*
X2941801Y33283950D01*
X3074625Y33146407D01*
X3231635Y33037283D01*
X3406850Y32960733D01*
X3593598Y32919674D01*
X3747160Y32916457D01*
X3747160Y32916457D01*
G37*
X3747160Y32916457D02*
X3619898Y32789194D01*
X3064600Y32789194D01*
X3007805Y32784577D01*
X2913554Y32755106D01*
X2831211Y32700593D01*
X2767270Y32625338D01*
X2726771Y32535273D01*
X2712906Y32437500D01*
X2712906Y31507500D01*
X2717523Y31450705D01*
X2746994Y31356454D01*
X2801507Y31274111D01*
X2876762Y31210170D01*
X2894231Y31202315D01*
X2831211Y31160593D01*
X2767270Y31085338D01*
X2726771Y30995273D01*
X2712906Y30897500D01*
X2712906Y29967500D01*
X2717523Y29910705D01*
X2746994Y29816454D01*
X2801507Y29734111D01*
X2876762Y29670170D01*
X2894231Y29662315D01*
X2831211Y29620593D01*
X2767270Y29545338D01*
X2726771Y29455273D01*
X2712906Y29357500D01*
X2712906Y28427500D01*
X2717523Y28370705D01*
X2746994Y28276454D01*
X2801507Y28194111D01*
X2876762Y28130170D01*
X2894231Y28122315D01*
X2831211Y28080593D01*
X2767270Y28005338D01*
X2726771Y27915273D01*
X2712906Y27817500D01*
X2712906Y26887500D01*
X2717523Y26830705D01*
X2746994Y26736454D01*
X2801507Y26654111D01*
X2876762Y26590170D01*
X2894231Y26582315D01*
X2831211Y26540593D01*
X2767270Y26465338D01*
X2726771Y26375273D01*
X2712906Y26277500D01*
X2712906Y25392800D01*
X2666294Y25392800D01*
X2666294Y26277500D01*
X2661677Y26334295D01*
X2632206Y26428546D01*
X2577693Y26510889D01*
X2502438Y26574830D01*
X2487017Y26581765D01*
X2537712Y26615637D01*
X2586463Y26664388D01*
X2624766Y26721713D01*
X2651150Y26785409D01*
X2664600Y26853028D01*
X2664600Y26921972D01*
X2664600Y27215000D01*
X2664600Y27490000D01*
X2664600Y27783028D01*
X2664600Y27851972D01*
X2651150Y27919591D01*
X2624766Y27983287D01*
X2586463Y28040612D01*
X2537712Y28089363D01*
X2488118Y28122500D01*
X2537712Y28155637D01*
X2586463Y28204388D01*
X2624766Y28261713D01*
X2651150Y28325409D01*
X2664600Y28393028D01*
X2664600Y28461972D01*
X2664600Y28755000D01*
X2664600Y29030000D01*
X2664600Y29323028D01*
X2664600Y29391972D01*
X2651150Y29459591D01*
X2624766Y29523287D01*
X2586463Y29580612D01*
X2537712Y29629363D01*
X2488118Y29662500D01*
X2537712Y29695637D01*
X2586463Y29744388D01*
X2624766Y29801713D01*
X2651150Y29865409D01*
X2664600Y29933028D01*
X2664600Y30001972D01*
X2664600Y30295000D01*
X2664600Y30570000D01*
X2664600Y30863028D01*
X2664600Y30931972D01*
X2651150Y30999591D01*
X2624766Y31063287D01*
X2586463Y31120612D01*
X2537712Y31169363D01*
X2488118Y31202500D01*
X2537712Y31235637D01*
X2586463Y31284388D01*
X2624766Y31341713D01*
X2651150Y31405409D01*
X2664600Y31473028D01*
X2664600Y31541972D01*
X2664600Y31835000D01*
X2664600Y32110000D01*
X2664600Y32403028D01*
X2664600Y32471972D01*
X2651150Y32539591D01*
X2624766Y32603287D01*
X2586463Y32660612D01*
X2537712Y32709363D01*
X2480387Y32747666D01*
X2416691Y32774050D01*
X2349072Y32787500D01*
X2032100Y32787500D01*
X1944600Y32700000D01*
X1944600Y32022500D01*
X2577100Y32022500D01*
X2664600Y32110000D01*
X2664600Y31835000D01*
X2577100Y31922500D01*
X1944600Y31922500D01*
X1944600Y31245000D01*
X1987100Y31202500D01*
X1944600Y31160000D01*
X1944600Y30482500D01*
X2577100Y30482500D01*
X2664600Y30570000D01*
X2664600Y30295000D01*
X2577100Y30382500D01*
X1944600Y30382500D01*
X1944600Y29705000D01*
X1987100Y29662500D01*
X1944600Y29620000D01*
X1944600Y28942500D01*
X2577100Y28942500D01*
X2664600Y29030000D01*
X2664600Y28755000D01*
X2577100Y28842500D01*
X1944600Y28842500D01*
X1944600Y28165000D01*
X1987100Y28122500D01*
X1944600Y28080000D01*
X1944600Y27402500D01*
X2577100Y27402500D01*
X2664600Y27490000D01*
X2664600Y27215000D01*
X2577100Y27302500D01*
X1944600Y27302500D01*
X1944600Y27282500D01*
X1844600Y27282500D01*
X1844600Y27302500D01*
X1824600Y27302500D01*
X1824600Y27402500D01*
X1844600Y27402500D01*
X1844600Y28080000D01*
X1802100Y28122500D01*
X1844600Y28165000D01*
X1844600Y28842500D01*
X1824600Y28842500D01*
X1824600Y28942500D01*
X1844600Y28942500D01*
X1844600Y29620000D01*
X1802100Y29662500D01*
X1844600Y29705000D01*
X1844600Y30382500D01*
X1824600Y30382500D01*
X1824600Y30482500D01*
X1844600Y30482500D01*
X1844600Y31160000D01*
X1802100Y31202500D01*
X1844600Y31245000D01*
X1844600Y31922500D01*
X1824600Y31922500D01*
X1824600Y32022500D01*
X1844600Y32022500D01*
X1844600Y32700000D01*
X1757100Y32787500D01*
X1573200Y32787500D01*
X1573200Y33915166D01*
X1618615Y33883601D01*
X1753396Y33824716D01*
X1897047Y33793132D01*
X2044098Y33790052D01*
X2188946Y33815593D01*
X2326074Y33868781D01*
X2450260Y33947592D01*
X2556773Y34049023D01*
X2641557Y34169211D01*
X2701380Y34303578D01*
X2733966Y34447005D01*
X2736312Y34615001D01*
X2707744Y34759283D01*
X2651695Y34895267D01*
X2570301Y35017776D01*
X2521528Y35066890D01*
X2547989Y35084407D01*
X2611930Y35159662D01*
X2652429Y35249727D01*
X2666294Y35347500D01*
X2666294Y36277500D01*
X2661677Y36334295D01*
X2632206Y36428546D01*
X2577693Y36510889D01*
X2502438Y36574830D01*
X2484968Y36582686D01*
X2547989Y36624407D01*
X2611930Y36699662D01*
X2652429Y36789727D01*
X2666294Y36887500D01*
X2666294Y37817500D01*
X2661677Y37874295D01*
X2632206Y37968546D01*
X2577693Y38050889D01*
X2502438Y38114830D01*
X2484968Y38122686D01*
X2547989Y38164407D01*
X2611930Y38239662D01*
X2652429Y38329727D01*
X2666294Y38427500D01*
X2666294Y39072798D01*
X2712906Y39119410D01*
X2712906Y38427500D01*
X2717523Y38370705D01*
X2746994Y38276454D01*
X2801507Y38194111D01*
X2876762Y38130170D01*
X2894231Y38122315D01*
X2831211Y38080593D01*
X2767270Y38005338D01*
X2726771Y37915273D01*
X2712906Y37817500D01*
X2712906Y36887500D01*
X2717523Y36830705D01*
X2746994Y36736454D01*
X2801507Y36654111D01*
X2876762Y36590170D01*
X2894231Y36582315D01*
X2831211Y36540593D01*
X2767270Y36465338D01*
X2726771Y36375273D01*
X2712906Y36277500D01*
X2712906Y35347500D01*
X2717523Y35290705D01*
X2746994Y35196454D01*
X2801507Y35114111D01*
X2876762Y35050170D01*
X2966827Y35009671D01*
X3064600Y34995806D01*
X3618418Y34995806D01*
X3746918Y34867306D01*
X3620806Y34868186D01*
X3432985Y34832357D01*
X3255701Y34760730D01*
X3095705Y34656031D01*
X2959092Y34522251D01*
X2851067Y34364483D01*
X2775742Y34188737D01*
X2735988Y34001708D01*
X2733318Y33810519D01*
X2767835Y33622453D01*
X2838223Y33444673D01*
X2941801Y33283950D01*
X3074625Y33146407D01*
X3231635Y33037283D01*
X3406850Y32960733D01*
X3593598Y32919674D01*
X3747160Y32916457D01*
G36*
X6909598Y35738872D02*
X6430995Y35260269D01*
X6404625Y35228167D01*
X6377892Y35196306D01*
X6376752Y35194233D01*
X6375250Y35192404D01*
X6355599Y35155757D01*
X6335582Y35119345D01*
X6334866Y35117091D01*
X6333748Y35115004D01*
X6321583Y35075215D01*
X6309027Y35035631D01*
X6308763Y35033283D01*
X6308071Y35031017D01*
X6303868Y34989647D01*
X6299237Y34948354D01*
X6299204Y34943727D01*
X6299196Y34943642D01*
X6299203Y34943564D01*
X6299193Y34942071D01*
X6299193Y32921399D01*
X6299193Y32644005D01*
X5735344Y32644005D01*
X5144362Y32644005D01*
X5103022Y32639952D01*
X5061584Y32636326D01*
X5059311Y32635666D01*
X5056957Y32635435D01*
X5017171Y32623424D01*
X4977246Y32611824D01*
X4975144Y32610735D01*
X4972880Y32610051D01*
X4936149Y32590522D01*
X4899274Y32571406D01*
X4897427Y32569933D01*
X4895336Y32568820D01*
X4863107Y32542535D01*
X4830638Y32516615D01*
X4827343Y32513367D01*
X4827277Y32513312D01*
X4827225Y32513250D01*
X4826164Y32512203D01*
X4691402Y32377441D01*
X4665032Y32345339D01*
X4638299Y32313478D01*
X4637159Y32311405D01*
X4635657Y32309576D01*
X4616006Y32272929D01*
X4595989Y32236517D01*
X4595273Y32234263D01*
X4594155Y32232176D01*
X4581990Y32192387D01*
X4569434Y32152803D01*
X4569170Y32150455D01*
X4568478Y32148189D01*
X4564275Y32106819D01*
X4559644Y32065526D01*
X4559611Y32060899D01*
X4559603Y32060814D01*
X4559610Y32060736D01*
X4559600Y32059243D01*
X4559600Y32042820D01*
X4559600Y32006928D01*
X4507270Y31945338D01*
X4466771Y31855273D01*
X4452906Y31757500D01*
X4452906Y30720590D01*
X4422798Y30750698D01*
X4390695Y30777068D01*
X4358835Y30803801D01*
X4356761Y30804941D01*
X4354933Y30806443D01*
X4318285Y30826094D01*
X4281874Y30846111D01*
X4279619Y30846827D01*
X4277533Y30847945D01*
X4256294Y30854439D01*
X4256294Y30897500D01*
X4251677Y30954295D01*
X4222206Y31048546D01*
X4167693Y31130889D01*
X4092438Y31194830D01*
X4074968Y31202686D01*
X4137989Y31244407D01*
X4201930Y31319662D01*
X4242429Y31409727D01*
X4256294Y31507500D01*
X4256294Y32152798D01*
X5077799Y32974303D01*
X5104168Y33006406D01*
X5130902Y33038266D01*
X5132041Y33040340D01*
X5133544Y33042168D01*
X5153194Y33078816D01*
X5173212Y33115227D01*
X5173927Y33117482D01*
X5175046Y33119568D01*
X5187210Y33159358D01*
X5199767Y33198941D01*
X5200030Y33201290D01*
X5200723Y33203555D01*
X5204925Y33244926D01*
X5209557Y33286218D01*
X5209589Y33290846D01*
X5209598Y33290930D01*
X5209590Y33291009D01*
X5209601Y33292501D01*
X5209601Y34229189D01*
X5209601Y34396501D01*
X5209601Y34491019D01*
X5205547Y34532359D01*
X5201922Y34573797D01*
X5201261Y34576070D01*
X5201031Y34578424D01*
X5189015Y34618223D01*
X5177420Y34658134D01*
X5176331Y34660234D01*
X5175647Y34662501D01*
X5156096Y34699271D01*
X5137002Y34736106D01*
X5135529Y34737951D01*
X5134416Y34740045D01*
X5108113Y34772296D01*
X5082211Y34804743D01*
X5078962Y34808038D01*
X5078908Y34808104D01*
X5078845Y34808156D01*
X5077799Y34809217D01*
X4256294Y35630722D01*
X4256294Y36277500D01*
X4251677Y36334295D01*
X4222206Y36428546D01*
X4167693Y36510889D01*
X4092438Y36574830D01*
X4074968Y36582686D01*
X4137989Y36624407D01*
X4201930Y36699662D01*
X4242429Y36789727D01*
X4256294Y36887500D01*
X4256294Y37817500D01*
X4254538Y37839101D01*
X4287154Y37816432D01*
X4421935Y37757547D01*
X4545533Y37730372D01*
X4507270Y37685338D01*
X4466771Y37595273D01*
X4452906Y37497500D01*
X4452906Y36027500D01*
X4457523Y35970705D01*
X4486994Y35876454D01*
X4541507Y35794111D01*
X4616762Y35730170D01*
X4706827Y35689671D01*
X4804600Y35675806D01*
X5214600Y35675806D01*
X5271395Y35680423D01*
X5333917Y35699973D01*
X5356827Y35689671D01*
X5454600Y35675806D01*
X5864600Y35675806D01*
X5921395Y35680423D01*
X5983917Y35699973D01*
X6006827Y35689671D01*
X6104600Y35675806D01*
X6514600Y35675806D01*
X6571395Y35680423D01*
X6632098Y35699405D01*
X6652509Y35690950D01*
X6720128Y35677500D01*
X6822100Y35677500D01*
X6909598Y35764998D01*
X6909598Y35738872D01*
X6909598Y35738872D01*
G37*
X6909598Y35738872D02*
X6430995Y35260269D01*
X6404625Y35228167D01*
X6377892Y35196306D01*
X6376752Y35194233D01*
X6375250Y35192404D01*
X6355599Y35155757D01*
X6335582Y35119345D01*
X6334866Y35117091D01*
X6333748Y35115004D01*
X6321583Y35075215D01*
X6309027Y35035631D01*
X6308763Y35033283D01*
X6308071Y35031017D01*
X6303868Y34989647D01*
X6299237Y34948354D01*
X6299204Y34943727D01*
X6299196Y34943642D01*
X6299203Y34943564D01*
X6299193Y34942071D01*
X6299193Y32921399D01*
X6299193Y32644005D01*
X5735344Y32644005D01*
X5144362Y32644005D01*
X5103022Y32639952D01*
X5061584Y32636326D01*
X5059311Y32635666D01*
X5056957Y32635435D01*
X5017171Y32623424D01*
X4977246Y32611824D01*
X4975144Y32610735D01*
X4972880Y32610051D01*
X4936149Y32590522D01*
X4899274Y32571406D01*
X4897427Y32569933D01*
X4895336Y32568820D01*
X4863107Y32542535D01*
X4830638Y32516615D01*
X4827343Y32513367D01*
X4827277Y32513312D01*
X4827225Y32513250D01*
X4826164Y32512203D01*
X4691402Y32377441D01*
X4665032Y32345339D01*
X4638299Y32313478D01*
X4637159Y32311405D01*
X4635657Y32309576D01*
X4616006Y32272929D01*
X4595989Y32236517D01*
X4595273Y32234263D01*
X4594155Y32232176D01*
X4581990Y32192387D01*
X4569434Y32152803D01*
X4569170Y32150455D01*
X4568478Y32148189D01*
X4564275Y32106819D01*
X4559644Y32065526D01*
X4559611Y32060899D01*
X4559603Y32060814D01*
X4559610Y32060736D01*
X4559600Y32059243D01*
X4559600Y32042820D01*
X4559600Y32006928D01*
X4507270Y31945338D01*
X4466771Y31855273D01*
X4452906Y31757500D01*
X4452906Y30720590D01*
X4422798Y30750698D01*
X4390695Y30777068D01*
X4358835Y30803801D01*
X4356761Y30804941D01*
X4354933Y30806443D01*
X4318285Y30826094D01*
X4281874Y30846111D01*
X4279619Y30846827D01*
X4277533Y30847945D01*
X4256294Y30854439D01*
X4256294Y30897500D01*
X4251677Y30954295D01*
X4222206Y31048546D01*
X4167693Y31130889D01*
X4092438Y31194830D01*
X4074968Y31202686D01*
X4137989Y31244407D01*
X4201930Y31319662D01*
X4242429Y31409727D01*
X4256294Y31507500D01*
X4256294Y32152798D01*
X5077799Y32974303D01*
X5104168Y33006406D01*
X5130902Y33038266D01*
X5132041Y33040340D01*
X5133544Y33042168D01*
X5153194Y33078816D01*
X5173212Y33115227D01*
X5173927Y33117482D01*
X5175046Y33119568D01*
X5187210Y33159358D01*
X5199767Y33198941D01*
X5200030Y33201290D01*
X5200723Y33203555D01*
X5204925Y33244926D01*
X5209557Y33286218D01*
X5209589Y33290846D01*
X5209598Y33290930D01*
X5209590Y33291009D01*
X5209601Y33292501D01*
X5209601Y34229189D01*
X5209601Y34396501D01*
X5209601Y34491019D01*
X5205547Y34532359D01*
X5201922Y34573797D01*
X5201261Y34576070D01*
X5201031Y34578424D01*
X5189015Y34618223D01*
X5177420Y34658134D01*
X5176331Y34660234D01*
X5175647Y34662501D01*
X5156096Y34699271D01*
X5137002Y34736106D01*
X5135529Y34737951D01*
X5134416Y34740045D01*
X5108113Y34772296D01*
X5082211Y34804743D01*
X5078962Y34808038D01*
X5078908Y34808104D01*
X5078845Y34808156D01*
X5077799Y34809217D01*
X4256294Y35630722D01*
X4256294Y36277500D01*
X4251677Y36334295D01*
X4222206Y36428546D01*
X4167693Y36510889D01*
X4092438Y36574830D01*
X4074968Y36582686D01*
X4137989Y36624407D01*
X4201930Y36699662D01*
X4242429Y36789727D01*
X4256294Y36887500D01*
X4256294Y37817500D01*
X4254538Y37839101D01*
X4287154Y37816432D01*
X4421935Y37757547D01*
X4545533Y37730372D01*
X4507270Y37685338D01*
X4466771Y37595273D01*
X4452906Y37497500D01*
X4452906Y36027500D01*
X4457523Y35970705D01*
X4486994Y35876454D01*
X4541507Y35794111D01*
X4616762Y35730170D01*
X4706827Y35689671D01*
X4804600Y35675806D01*
X5214600Y35675806D01*
X5271395Y35680423D01*
X5333917Y35699973D01*
X5356827Y35689671D01*
X5454600Y35675806D01*
X5864600Y35675806D01*
X5921395Y35680423D01*
X5983917Y35699973D01*
X6006827Y35689671D01*
X6104600Y35675806D01*
X6514600Y35675806D01*
X6571395Y35680423D01*
X6632098Y35699405D01*
X6652509Y35690950D01*
X6720128Y35677500D01*
X6822100Y35677500D01*
X6909598Y35764998D01*
X6909598Y35738872D01*
G36*
X7029600Y36712500D02*
X7009600Y36712500D01*
X7009600Y36692500D01*
X6909600Y36692500D01*
X6909600Y36712500D01*
X6889600Y36712500D01*
X6889600Y36812500D01*
X6909600Y36812500D01*
X6909600Y36832500D01*
X7009600Y36832500D01*
X7009600Y36812500D01*
X7029600Y36812500D01*
X7029600Y36712500D01*
X7029600Y36712500D01*
G37*
X7029600Y36712500D02*
X7009600Y36712500D01*
X7009600Y36692500D01*
X6909600Y36692500D01*
X6909600Y36712500D01*
X6889600Y36712500D01*
X6889600Y36812500D01*
X6909600Y36812500D01*
X6909600Y36832500D01*
X7009600Y36832500D01*
X7009600Y36812500D01*
X7029600Y36812500D01*
X7029600Y36712500D01*
G36*
X8949453Y39638358D02*
X8878742Y39567647D01*
X8864600Y39581789D01*
X8850458Y39567647D01*
X8779747Y39638358D01*
X8793889Y39652500D01*
X8779747Y39666642D01*
X8850458Y39737353D01*
X8864600Y39723211D01*
X8878741Y39737354D01*
X8949452Y39666643D01*
X8935311Y39652500D01*
X8949453Y39638358D01*
X8949453Y39638358D01*
G37*
X8949453Y39638358D02*
X8878742Y39567647D01*
X8864600Y39581789D01*
X8850458Y39567647D01*
X8779747Y39638358D01*
X8793889Y39652500D01*
X8779747Y39666642D01*
X8850458Y39737353D01*
X8864600Y39723211D01*
X8878741Y39737354D01*
X8949452Y39666643D01*
X8935311Y39652500D01*
X8949453Y39638358D01*
G36*
X8967063Y40597212D02*
X8852064Y40607015D01*
X8759062Y40596621D01*
X8760032Y40666030D01*
X8731464Y40810312D01*
X8675415Y40946296D01*
X8594021Y41068805D01*
X8490381Y41173170D01*
X8368444Y41255418D01*
X8232854Y41312414D01*
X8088776Y41341990D01*
X8028115Y41342414D01*
X8182309Y41440267D01*
X8317225Y41568747D01*
X8424617Y41720985D01*
X8434196Y41742500D01*
X8908455Y41742500D01*
X8958160Y41692795D01*
X8958160Y40685720D01*
X8962213Y40644381D01*
X8965839Y40602942D01*
X8966499Y40600670D01*
X8966730Y40598315D01*
X8967063Y40597212D01*
X8967063Y40597212D01*
G37*
X8967063Y40597212D02*
X8852064Y40607015D01*
X8759062Y40596621D01*
X8760032Y40666030D01*
X8731464Y40810312D01*
X8675415Y40946296D01*
X8594021Y41068805D01*
X8490381Y41173170D01*
X8368444Y41255418D01*
X8232854Y41312414D01*
X8088776Y41341990D01*
X8028115Y41342414D01*
X8182309Y41440267D01*
X8317225Y41568747D01*
X8424617Y41720985D01*
X8434196Y41742500D01*
X8908455Y41742500D01*
X8958160Y41692795D01*
X8958160Y40685720D01*
X8962213Y40644381D01*
X8965839Y40602942D01*
X8966499Y40600670D01*
X8966730Y40598315D01*
X8967063Y40597212D01*
G36*
X9165401Y27841991D02*
X9114600Y27849194D01*
X8704600Y27849194D01*
X8647805Y27844577D01*
X8585282Y27825028D01*
X8562373Y27835329D01*
X8464600Y27849194D01*
X8054600Y27849194D01*
X7997805Y27844577D01*
X7937101Y27825596D01*
X7916691Y27834050D01*
X7849072Y27847500D01*
X7747100Y27847500D01*
X7659600Y27760000D01*
X7659600Y26812500D01*
X7679600Y26812500D01*
X7679600Y26712500D01*
X7659600Y26712500D01*
X7659600Y25765000D01*
X7747100Y25677500D01*
X7809600Y25677500D01*
X7809600Y25314295D01*
X7161597Y24666293D01*
X7061104Y24666293D01*
X7043620Y24692609D01*
X6939980Y24796974D01*
X6818043Y24879222D01*
X6682453Y24936218D01*
X6538375Y24965794D01*
X6391296Y24966820D01*
X6246818Y24939260D01*
X6110446Y24884162D01*
X5987372Y24803625D01*
X5882286Y24700716D01*
X5799189Y24579357D01*
X5741247Y24444168D01*
X5710667Y24300299D01*
X5708613Y24153231D01*
X5735164Y24008565D01*
X5789309Y23871811D01*
X5868985Y23748178D01*
X5971157Y23642376D01*
X6091934Y23558434D01*
X6226715Y23499549D01*
X6370366Y23467965D01*
X6517417Y23464885D01*
X6662265Y23490426D01*
X6799393Y23543614D01*
X6923579Y23622425D01*
X7030092Y23723856D01*
X7060028Y23766293D01*
X7347994Y23766293D01*
X7389333Y23770347D01*
X7430772Y23773972D01*
X7433044Y23774633D01*
X7435399Y23774863D01*
X7475197Y23786879D01*
X7515109Y23798474D01*
X7517208Y23799563D01*
X7519476Y23800247D01*
X7556245Y23819798D01*
X7593081Y23838892D01*
X7594925Y23840365D01*
X7597020Y23841478D01*
X7629270Y23867781D01*
X7661718Y23893683D01*
X7665012Y23896932D01*
X7665079Y23896986D01*
X7665130Y23897049D01*
X7666192Y23898095D01*
X7809589Y24041492D01*
X7809589Y23222810D01*
X7813642Y23181471D01*
X7817268Y23140032D01*
X7817928Y23137760D01*
X7818159Y23135405D01*
X7830170Y23095620D01*
X7841770Y23055694D01*
X7842859Y23053593D01*
X7843543Y23051328D01*
X7863072Y23014598D01*
X7882188Y22977722D01*
X7883661Y22975876D01*
X7884774Y22973784D01*
X7911059Y22941556D01*
X7936979Y22909086D01*
X7940227Y22905792D01*
X7940282Y22905725D01*
X7940344Y22905674D01*
X7941391Y22904612D01*
X8736809Y22109194D01*
X8704600Y22109194D01*
X8647805Y22104577D01*
X8585282Y22085028D01*
X8562373Y22095329D01*
X8464600Y22109194D01*
X8054600Y22109194D01*
X7997805Y22104577D01*
X7935282Y22085028D01*
X7912373Y22095329D01*
X7814600Y22109194D01*
X7404600Y22109194D01*
X7347805Y22104577D01*
X7287101Y22085596D01*
X7266691Y22094050D01*
X7199072Y22107500D01*
X7097100Y22107500D01*
X7009600Y22020000D01*
X7009600Y21072500D01*
X7029600Y21072500D01*
X7029600Y20972500D01*
X7009600Y20972500D01*
X7009600Y20025000D01*
X7097100Y19937500D01*
X7159600Y19937500D01*
X7159600Y19937196D01*
X7104915Y19882511D01*
X6707974Y19882511D01*
X6723211Y19910226D01*
X6723926Y19912481D01*
X6725045Y19914567D01*
X6732056Y19937500D01*
X6822100Y19937500D01*
X6909600Y20025000D01*
X6909600Y20972500D01*
X6889600Y20972500D01*
X6889600Y21072500D01*
X6909600Y21072500D01*
X6909600Y22020000D01*
X6822100Y22107500D01*
X6720128Y22107500D01*
X6652509Y22094050D01*
X6633098Y22086010D01*
X6612373Y22095329D01*
X6514600Y22109194D01*
X6109600Y22109194D01*
X6109600Y22550361D01*
X6105546Y22591701D01*
X6101921Y22633139D01*
X6101260Y22635412D01*
X6101030Y22637766D01*
X6089014Y22677565D01*
X6077419Y22717476D01*
X6076330Y22719576D01*
X6075646Y22721843D01*
X6056095Y22758613D01*
X6037001Y22795448D01*
X6035528Y22797293D01*
X6034415Y22799387D01*
X6008112Y22831638D01*
X5982210Y22864085D01*
X5978961Y22867380D01*
X5978907Y22867446D01*
X5978844Y22867498D01*
X5977798Y22868559D01*
X5209601Y23636756D01*
X5209601Y24396501D01*
X5205547Y24437841D01*
X5201922Y24479279D01*
X5201261Y24481552D01*
X5201031Y24483906D01*
X5189015Y24523705D01*
X5177420Y24563616D01*
X5176331Y24565717D01*
X5175647Y24567983D01*
X5156117Y24604713D01*
X5137003Y24641588D01*
X5135527Y24643436D01*
X5134416Y24645527D01*
X5108135Y24677750D01*
X5082211Y24710225D01*
X5078962Y24713520D01*
X5078908Y24713586D01*
X5078845Y24713638D01*
X5077799Y24714699D01*
X4705911Y25086587D01*
X5419787Y25086587D01*
X5461126Y25090641D01*
X5502565Y25094266D01*
X5504837Y25094927D01*
X5507192Y25095157D01*
X5546990Y25107173D01*
X5586902Y25118768D01*
X5589001Y25119857D01*
X5591269Y25120541D01*
X5628038Y25140092D01*
X5664874Y25159186D01*
X5666718Y25160659D01*
X5668813Y25161772D01*
X5701063Y25188075D01*
X5733511Y25213977D01*
X5736805Y25217226D01*
X5736872Y25217280D01*
X5736923Y25217343D01*
X5737985Y25218389D01*
X5977798Y25458202D01*
X6004167Y25490305D01*
X6030901Y25522165D01*
X6032040Y25524239D01*
X6033543Y25526067D01*
X6053193Y25562715D01*
X6073211Y25599126D01*
X6073926Y25601381D01*
X6075045Y25603467D01*
X6087209Y25643257D01*
X6097838Y25676765D01*
X6104600Y25675806D01*
X6514600Y25675806D01*
X6571395Y25680423D01*
X6633917Y25699973D01*
X6656827Y25689671D01*
X6754600Y25675806D01*
X7164600Y25675806D01*
X7221395Y25680423D01*
X7282098Y25699405D01*
X7302509Y25690950D01*
X7370128Y25677500D01*
X7472100Y25677500D01*
X7559600Y25765000D01*
X7559600Y26712500D01*
X7539600Y26712500D01*
X7539600Y26812500D01*
X7559600Y26812500D01*
X7559600Y27760000D01*
X7472100Y27847500D01*
X7409600Y27847500D01*
X7409600Y27862547D01*
X7409600Y28241284D01*
X7547316Y28379000D01*
X8313111Y28379000D01*
X8324786Y28360885D01*
X8426958Y28255083D01*
X8547735Y28171141D01*
X8682516Y28112256D01*
X8826167Y28080672D01*
X8973218Y28077592D01*
X9118066Y28103133D01*
X9165401Y28121493D01*
X9165401Y27841991D01*
X9165401Y27841991D01*
G37*
X9165401Y27841991D02*
X9114600Y27849194D01*
X8704600Y27849194D01*
X8647805Y27844577D01*
X8585282Y27825028D01*
X8562373Y27835329D01*
X8464600Y27849194D01*
X8054600Y27849194D01*
X7997805Y27844577D01*
X7937101Y27825596D01*
X7916691Y27834050D01*
X7849072Y27847500D01*
X7747100Y27847500D01*
X7659600Y27760000D01*
X7659600Y26812500D01*
X7679600Y26812500D01*
X7679600Y26712500D01*
X7659600Y26712500D01*
X7659600Y25765000D01*
X7747100Y25677500D01*
X7809600Y25677500D01*
X7809600Y25314295D01*
X7161597Y24666293D01*
X7061104Y24666293D01*
X7043620Y24692609D01*
X6939980Y24796974D01*
X6818043Y24879222D01*
X6682453Y24936218D01*
X6538375Y24965794D01*
X6391296Y24966820D01*
X6246818Y24939260D01*
X6110446Y24884162D01*
X5987372Y24803625D01*
X5882286Y24700716D01*
X5799189Y24579357D01*
X5741247Y24444168D01*
X5710667Y24300299D01*
X5708613Y24153231D01*
X5735164Y24008565D01*
X5789309Y23871811D01*
X5868985Y23748178D01*
X5971157Y23642376D01*
X6091934Y23558434D01*
X6226715Y23499549D01*
X6370366Y23467965D01*
X6517417Y23464885D01*
X6662265Y23490426D01*
X6799393Y23543614D01*
X6923579Y23622425D01*
X7030092Y23723856D01*
X7060028Y23766293D01*
X7347994Y23766293D01*
X7389333Y23770347D01*
X7430772Y23773972D01*
X7433044Y23774633D01*
X7435399Y23774863D01*
X7475197Y23786879D01*
X7515109Y23798474D01*
X7517208Y23799563D01*
X7519476Y23800247D01*
X7556245Y23819798D01*
X7593081Y23838892D01*
X7594925Y23840365D01*
X7597020Y23841478D01*
X7629270Y23867781D01*
X7661718Y23893683D01*
X7665012Y23896932D01*
X7665079Y23896986D01*
X7665130Y23897049D01*
X7666192Y23898095D01*
X7809589Y24041492D01*
X7809589Y23222810D01*
X7813642Y23181471D01*
X7817268Y23140032D01*
X7817928Y23137760D01*
X7818159Y23135405D01*
X7830170Y23095620D01*
X7841770Y23055694D01*
X7842859Y23053593D01*
X7843543Y23051328D01*
X7863072Y23014598D01*
X7882188Y22977722D01*
X7883661Y22975876D01*
X7884774Y22973784D01*
X7911059Y22941556D01*
X7936979Y22909086D01*
X7940227Y22905792D01*
X7940282Y22905725D01*
X7940344Y22905674D01*
X7941391Y22904612D01*
X8736809Y22109194D01*
X8704600Y22109194D01*
X8647805Y22104577D01*
X8585282Y22085028D01*
X8562373Y22095329D01*
X8464600Y22109194D01*
X8054600Y22109194D01*
X7997805Y22104577D01*
X7935282Y22085028D01*
X7912373Y22095329D01*
X7814600Y22109194D01*
X7404600Y22109194D01*
X7347805Y22104577D01*
X7287101Y22085596D01*
X7266691Y22094050D01*
X7199072Y22107500D01*
X7097100Y22107500D01*
X7009600Y22020000D01*
X7009600Y21072500D01*
X7029600Y21072500D01*
X7029600Y20972500D01*
X7009600Y20972500D01*
X7009600Y20025000D01*
X7097100Y19937500D01*
X7159600Y19937500D01*
X7159600Y19937196D01*
X7104915Y19882511D01*
X6707974Y19882511D01*
X6723211Y19910226D01*
X6723926Y19912481D01*
X6725045Y19914567D01*
X6732056Y19937500D01*
X6822100Y19937500D01*
X6909600Y20025000D01*
X6909600Y20972500D01*
X6889600Y20972500D01*
X6889600Y21072500D01*
X6909600Y21072500D01*
X6909600Y22020000D01*
X6822100Y22107500D01*
X6720128Y22107500D01*
X6652509Y22094050D01*
X6633098Y22086010D01*
X6612373Y22095329D01*
X6514600Y22109194D01*
X6109600Y22109194D01*
X6109600Y22550361D01*
X6105546Y22591701D01*
X6101921Y22633139D01*
X6101260Y22635412D01*
X6101030Y22637766D01*
X6089014Y22677565D01*
X6077419Y22717476D01*
X6076330Y22719576D01*
X6075646Y22721843D01*
X6056095Y22758613D01*
X6037001Y22795448D01*
X6035528Y22797293D01*
X6034415Y22799387D01*
X6008112Y22831638D01*
X5982210Y22864085D01*
X5978961Y22867380D01*
X5978907Y22867446D01*
X5978844Y22867498D01*
X5977798Y22868559D01*
X5209601Y23636756D01*
X5209601Y24396501D01*
X5205547Y24437841D01*
X5201922Y24479279D01*
X5201261Y24481552D01*
X5201031Y24483906D01*
X5189015Y24523705D01*
X5177420Y24563616D01*
X5176331Y24565717D01*
X5175647Y24567983D01*
X5156117Y24604713D01*
X5137003Y24641588D01*
X5135527Y24643436D01*
X5134416Y24645527D01*
X5108135Y24677750D01*
X5082211Y24710225D01*
X5078962Y24713520D01*
X5078908Y24713586D01*
X5078845Y24713638D01*
X5077799Y24714699D01*
X4705911Y25086587D01*
X5419787Y25086587D01*
X5461126Y25090641D01*
X5502565Y25094266D01*
X5504837Y25094927D01*
X5507192Y25095157D01*
X5546990Y25107173D01*
X5586902Y25118768D01*
X5589001Y25119857D01*
X5591269Y25120541D01*
X5628038Y25140092D01*
X5664874Y25159186D01*
X5666718Y25160659D01*
X5668813Y25161772D01*
X5701063Y25188075D01*
X5733511Y25213977D01*
X5736805Y25217226D01*
X5736872Y25217280D01*
X5736923Y25217343D01*
X5737985Y25218389D01*
X5977798Y25458202D01*
X6004167Y25490305D01*
X6030901Y25522165D01*
X6032040Y25524239D01*
X6033543Y25526067D01*
X6053193Y25562715D01*
X6073211Y25599126D01*
X6073926Y25601381D01*
X6075045Y25603467D01*
X6087209Y25643257D01*
X6097838Y25676765D01*
X6104600Y25675806D01*
X6514600Y25675806D01*
X6571395Y25680423D01*
X6633917Y25699973D01*
X6656827Y25689671D01*
X6754600Y25675806D01*
X7164600Y25675806D01*
X7221395Y25680423D01*
X7282098Y25699405D01*
X7302509Y25690950D01*
X7370128Y25677500D01*
X7472100Y25677500D01*
X7559600Y25765000D01*
X7559600Y26712500D01*
X7539600Y26712500D01*
X7539600Y26812500D01*
X7559600Y26812500D01*
X7559600Y27760000D01*
X7472100Y27847500D01*
X7409600Y27847500D01*
X7409600Y27862547D01*
X7409600Y28241284D01*
X7547316Y28379000D01*
X8313111Y28379000D01*
X8324786Y28360885D01*
X8426958Y28255083D01*
X8547735Y28171141D01*
X8682516Y28112256D01*
X8826167Y28080672D01*
X8973218Y28077592D01*
X9118066Y28103133D01*
X9165401Y28121493D01*
X9165401Y27841991D01*
G36*
X11574600Y14659196D02*
X11447114Y14712785D01*
X11303036Y14742361D01*
X11155957Y14743387D01*
X11011479Y14715827D01*
X10875107Y14660729D01*
X10752033Y14580192D01*
X10646947Y14477283D01*
X10563850Y14355924D01*
X10505908Y14220735D01*
X10475328Y14076866D01*
X10473274Y13929798D01*
X10499825Y13785132D01*
X10553970Y13648378D01*
X10633646Y13524745D01*
X10735818Y13418943D01*
X10856595Y13335001D01*
X10991376Y13276116D01*
X11135027Y13244532D01*
X11232042Y13242500D01*
X9405315Y13242500D01*
X9405315Y11022500D01*
X9969572Y11022500D01*
X9861802Y10978958D01*
X9541811Y10769562D01*
X9268586Y10502001D01*
X9052534Y10186465D01*
X8989480Y10039349D01*
X8989480Y13872504D01*
X9182798Y14065822D01*
X9209186Y14097947D01*
X9235901Y14129785D01*
X9237039Y14131856D01*
X9238543Y14133686D01*
X9258204Y14170355D01*
X9278211Y14206746D01*
X9278926Y14209001D01*
X9280045Y14211087D01*
X9292209Y14250877D01*
X9304766Y14290460D01*
X9305029Y14292809D01*
X9305722Y14295074D01*
X9309924Y14336445D01*
X9314556Y14377737D01*
X9314588Y14382365D01*
X9314597Y14382449D01*
X9314589Y14382528D01*
X9314600Y14384020D01*
X9314600Y14752875D01*
X9452309Y14840267D01*
X9587225Y14968747D01*
X9694617Y15120985D01*
X9715662Y15168255D01*
X9751507Y15114111D01*
X9826762Y15050170D01*
X9916827Y15009671D01*
X10014600Y14995806D01*
X10854600Y14995806D01*
X10911395Y15000423D01*
X11005646Y15029894D01*
X11087989Y15084407D01*
X11151930Y15159662D01*
X11192429Y15249727D01*
X11206294Y15347500D01*
X11206294Y16277500D01*
X11201677Y16334295D01*
X11172206Y16428546D01*
X11117693Y16510889D01*
X11042438Y16574830D01*
X11027017Y16581765D01*
X11077712Y16615637D01*
X11126463Y16664388D01*
X11164766Y16721713D01*
X11191150Y16785409D01*
X11204600Y16853028D01*
X11204600Y16921972D01*
X11204600Y17215000D01*
X11117100Y17302500D01*
X10484600Y17302500D01*
X10484600Y17282500D01*
X10384600Y17282500D01*
X10384600Y17302500D01*
X9752100Y17302500D01*
X9664600Y17215000D01*
X9664600Y17079367D01*
X9664375Y17079369D01*
X9664291Y17079377D01*
X9664212Y17079370D01*
X9662720Y17079380D01*
X5953729Y17079380D01*
X5912389Y17075327D01*
X5870951Y17071701D01*
X5868678Y17071041D01*
X5866324Y17070810D01*
X5826525Y17058795D01*
X5786614Y17047199D01*
X5784514Y17046111D01*
X5782247Y17045426D01*
X5745477Y17025876D01*
X5708642Y17006781D01*
X5706797Y17005309D01*
X5704703Y17004195D01*
X5672452Y16977893D01*
X5640005Y16951990D01*
X5636710Y16948742D01*
X5636644Y16948687D01*
X5636592Y16948625D01*
X5635531Y16947578D01*
X5631354Y16943401D01*
X5631354Y17485035D01*
X5054600Y18061789D01*
X4477846Y17485035D01*
X4534722Y17331885D01*
X4700904Y17245846D01*
X4880678Y17193880D01*
X5067136Y17177985D01*
X5253112Y17198771D01*
X5431459Y17255441D01*
X5574478Y17331885D01*
X5631354Y17485035D01*
X5631354Y16943401D01*
X5591511Y16903558D01*
X4254600Y16903558D01*
X4254600Y16921972D01*
X4254600Y17215000D01*
X4167100Y17302500D01*
X3534600Y17302500D01*
X3534600Y17282500D01*
X3434600Y17282500D01*
X3434600Y17302500D01*
X3414600Y17302500D01*
X3414600Y17402500D01*
X3434600Y17402500D01*
X3434600Y17422500D01*
X3534600Y17422500D01*
X3534600Y17402500D01*
X4167100Y17402500D01*
X4254600Y17490000D01*
X4254600Y17612394D01*
X4407135Y17555746D01*
X4983889Y18132500D01*
X4969747Y18146642D01*
X5040458Y18217353D01*
X5054600Y18203211D01*
X5068741Y18217354D01*
X5139453Y18146642D01*
X5125311Y18132500D01*
X5702065Y17555746D01*
X5783189Y17585874D01*
X5831078Y17536283D01*
X5951855Y17452341D01*
X6086636Y17393456D01*
X6230287Y17361872D01*
X6377338Y17358792D01*
X6522186Y17384333D01*
X6659314Y17437521D01*
X6783500Y17516332D01*
X6831807Y17562335D01*
X6846489Y17539554D01*
X6975907Y17405538D01*
X7128891Y17299211D01*
X7299613Y17224624D01*
X7481572Y17184618D01*
X7667836Y17180716D01*
X7851310Y17213068D01*
X8025006Y17280440D01*
X8182309Y17380267D01*
X8317225Y17508747D01*
X8424617Y17660985D01*
X8500394Y17831182D01*
X8530124Y17962040D01*
X8551645Y17844782D01*
X8605790Y17708028D01*
X8685466Y17584395D01*
X8787638Y17478593D01*
X8908415Y17394651D01*
X9043196Y17335766D01*
X9186847Y17304182D01*
X9333898Y17301102D01*
X9478746Y17326643D01*
X9615874Y17379831D01*
X9713080Y17441520D01*
X9752100Y17402500D01*
X10384600Y17402500D01*
X10384600Y17422500D01*
X10484600Y17422500D01*
X10484600Y17402500D01*
X11117100Y17402500D01*
X11204600Y17490000D01*
X11204600Y17783028D01*
X11204600Y17851972D01*
X11191150Y17919591D01*
X11164766Y17983287D01*
X11126463Y18040612D01*
X11077712Y18089363D01*
X11026411Y18123641D01*
X11087989Y18164407D01*
X11151930Y18239662D01*
X11192429Y18329727D01*
X11206294Y18427500D01*
X11206294Y19357500D01*
X11201677Y19414295D01*
X11172206Y19508546D01*
X11117693Y19590889D01*
X11042438Y19654830D01*
X11024968Y19662686D01*
X11087989Y19704407D01*
X11151930Y19779662D01*
X11192429Y19869727D01*
X11206294Y19967500D01*
X11206294Y20656610D01*
X11252906Y20609998D01*
X11252906Y19967500D01*
X11257523Y19910705D01*
X11286994Y19816454D01*
X11341507Y19734111D01*
X11416762Y19670170D01*
X11434231Y19662315D01*
X11371211Y19620593D01*
X11307270Y19545338D01*
X11266771Y19455273D01*
X11252906Y19357500D01*
X11252906Y18427500D01*
X11257523Y18370705D01*
X11286994Y18276454D01*
X11341507Y18194111D01*
X11416762Y18130170D01*
X11434231Y18122315D01*
X11371211Y18080593D01*
X11307270Y18005338D01*
X11266771Y17915273D01*
X11252906Y17817500D01*
X11252906Y16887500D01*
X11257523Y16830705D01*
X11286994Y16736454D01*
X11341507Y16654111D01*
X11416762Y16590170D01*
X11434231Y16582315D01*
X11371211Y16540593D01*
X11307270Y16465338D01*
X11266771Y16375273D01*
X11252906Y16277500D01*
X11252906Y15347500D01*
X11257523Y15290705D01*
X11286994Y15196454D01*
X11341507Y15114111D01*
X11416762Y15050170D01*
X11506827Y15009671D01*
X11574600Y15000061D01*
X11574600Y14659196D01*
X11574600Y14659196D01*
G37*
X11574600Y14659196D02*
X11447114Y14712785D01*
X11303036Y14742361D01*
X11155957Y14743387D01*
X11011479Y14715827D01*
X10875107Y14660729D01*
X10752033Y14580192D01*
X10646947Y14477283D01*
X10563850Y14355924D01*
X10505908Y14220735D01*
X10475328Y14076866D01*
X10473274Y13929798D01*
X10499825Y13785132D01*
X10553970Y13648378D01*
X10633646Y13524745D01*
X10735818Y13418943D01*
X10856595Y13335001D01*
X10991376Y13276116D01*
X11135027Y13244532D01*
X11232042Y13242500D01*
X9405315Y13242500D01*
X9405315Y11022500D01*
X9969572Y11022500D01*
X9861802Y10978958D01*
X9541811Y10769562D01*
X9268586Y10502001D01*
X9052534Y10186465D01*
X8989480Y10039349D01*
X8989480Y13872504D01*
X9182798Y14065822D01*
X9209186Y14097947D01*
X9235901Y14129785D01*
X9237039Y14131856D01*
X9238543Y14133686D01*
X9258204Y14170355D01*
X9278211Y14206746D01*
X9278926Y14209001D01*
X9280045Y14211087D01*
X9292209Y14250877D01*
X9304766Y14290460D01*
X9305029Y14292809D01*
X9305722Y14295074D01*
X9309924Y14336445D01*
X9314556Y14377737D01*
X9314588Y14382365D01*
X9314597Y14382449D01*
X9314589Y14382528D01*
X9314600Y14384020D01*
X9314600Y14752875D01*
X9452309Y14840267D01*
X9587225Y14968747D01*
X9694617Y15120985D01*
X9715662Y15168255D01*
X9751507Y15114111D01*
X9826762Y15050170D01*
X9916827Y15009671D01*
X10014600Y14995806D01*
X10854600Y14995806D01*
X10911395Y15000423D01*
X11005646Y15029894D01*
X11087989Y15084407D01*
X11151930Y15159662D01*
X11192429Y15249727D01*
X11206294Y15347500D01*
X11206294Y16277500D01*
X11201677Y16334295D01*
X11172206Y16428546D01*
X11117693Y16510889D01*
X11042438Y16574830D01*
X11027017Y16581765D01*
X11077712Y16615637D01*
X11126463Y16664388D01*
X11164766Y16721713D01*
X11191150Y16785409D01*
X11204600Y16853028D01*
X11204600Y16921972D01*
X11204600Y17215000D01*
X11117100Y17302500D01*
X10484600Y17302500D01*
X10484600Y17282500D01*
X10384600Y17282500D01*
X10384600Y17302500D01*
X9752100Y17302500D01*
X9664600Y17215000D01*
X9664600Y17079367D01*
X9664375Y17079369D01*
X9664291Y17079377D01*
X9664212Y17079370D01*
X9662720Y17079380D01*
X5953729Y17079380D01*
X5912389Y17075327D01*
X5870951Y17071701D01*
X5868678Y17071041D01*
X5866324Y17070810D01*
X5826525Y17058795D01*
X5786614Y17047199D01*
X5784514Y17046111D01*
X5782247Y17045426D01*
X5745477Y17025876D01*
X5708642Y17006781D01*
X5706797Y17005309D01*
X5704703Y17004195D01*
X5672452Y16977893D01*
X5640005Y16951990D01*
X5636710Y16948742D01*
X5636644Y16948687D01*
X5636592Y16948625D01*
X5635531Y16947578D01*
X5631354Y16943401D01*
X5631354Y17485035D01*
X5054600Y18061789D01*
X4477846Y17485035D01*
X4534722Y17331885D01*
X4700904Y17245846D01*
X4880678Y17193880D01*
X5067136Y17177985D01*
X5253112Y17198771D01*
X5431459Y17255441D01*
X5574478Y17331885D01*
X5631354Y17485035D01*
X5631354Y16943401D01*
X5591511Y16903558D01*
X4254600Y16903558D01*
X4254600Y16921972D01*
X4254600Y17215000D01*
X4167100Y17302500D01*
X3534600Y17302500D01*
X3534600Y17282500D01*
X3434600Y17282500D01*
X3434600Y17302500D01*
X3414600Y17302500D01*
X3414600Y17402500D01*
X3434600Y17402500D01*
X3434600Y17422500D01*
X3534600Y17422500D01*
X3534600Y17402500D01*
X4167100Y17402500D01*
X4254600Y17490000D01*
X4254600Y17612394D01*
X4407135Y17555746D01*
X4983889Y18132500D01*
X4969747Y18146642D01*
X5040458Y18217353D01*
X5054600Y18203211D01*
X5068741Y18217354D01*
X5139453Y18146642D01*
X5125311Y18132500D01*
X5702065Y17555746D01*
X5783189Y17585874D01*
X5831078Y17536283D01*
X5951855Y17452341D01*
X6086636Y17393456D01*
X6230287Y17361872D01*
X6377338Y17358792D01*
X6522186Y17384333D01*
X6659314Y17437521D01*
X6783500Y17516332D01*
X6831807Y17562335D01*
X6846489Y17539554D01*
X6975907Y17405538D01*
X7128891Y17299211D01*
X7299613Y17224624D01*
X7481572Y17184618D01*
X7667836Y17180716D01*
X7851310Y17213068D01*
X8025006Y17280440D01*
X8182309Y17380267D01*
X8317225Y17508747D01*
X8424617Y17660985D01*
X8500394Y17831182D01*
X8530124Y17962040D01*
X8551645Y17844782D01*
X8605790Y17708028D01*
X8685466Y17584395D01*
X8787638Y17478593D01*
X8908415Y17394651D01*
X9043196Y17335766D01*
X9186847Y17304182D01*
X9333898Y17301102D01*
X9478746Y17326643D01*
X9615874Y17379831D01*
X9713080Y17441520D01*
X9752100Y17402500D01*
X10384600Y17402500D01*
X10384600Y17422500D01*
X10484600Y17422500D01*
X10484600Y17402500D01*
X11117100Y17402500D01*
X11204600Y17490000D01*
X11204600Y17783028D01*
X11204600Y17851972D01*
X11191150Y17919591D01*
X11164766Y17983287D01*
X11126463Y18040612D01*
X11077712Y18089363D01*
X11026411Y18123641D01*
X11087989Y18164407D01*
X11151930Y18239662D01*
X11192429Y18329727D01*
X11206294Y18427500D01*
X11206294Y19357500D01*
X11201677Y19414295D01*
X11172206Y19508546D01*
X11117693Y19590889D01*
X11042438Y19654830D01*
X11024968Y19662686D01*
X11087989Y19704407D01*
X11151930Y19779662D01*
X11192429Y19869727D01*
X11206294Y19967500D01*
X11206294Y20656610D01*
X11252906Y20609998D01*
X11252906Y19967500D01*
X11257523Y19910705D01*
X11286994Y19816454D01*
X11341507Y19734111D01*
X11416762Y19670170D01*
X11434231Y19662315D01*
X11371211Y19620593D01*
X11307270Y19545338D01*
X11266771Y19455273D01*
X11252906Y19357500D01*
X11252906Y18427500D01*
X11257523Y18370705D01*
X11286994Y18276454D01*
X11341507Y18194111D01*
X11416762Y18130170D01*
X11434231Y18122315D01*
X11371211Y18080593D01*
X11307270Y18005338D01*
X11266771Y17915273D01*
X11252906Y17817500D01*
X11252906Y16887500D01*
X11257523Y16830705D01*
X11286994Y16736454D01*
X11341507Y16654111D01*
X11416762Y16590170D01*
X11434231Y16582315D01*
X11371211Y16540593D01*
X11307270Y16465338D01*
X11266771Y16375273D01*
X11252906Y16277500D01*
X11252906Y15347500D01*
X11257523Y15290705D01*
X11286994Y15196454D01*
X11341507Y15114111D01*
X11416762Y15050170D01*
X11506827Y15009671D01*
X11574600Y15000061D01*
X11574600Y14659196D01*
G36*
X12346000Y44357500D02*
X12162100Y44357500D01*
X12074600Y44270000D01*
X12074600Y43592500D01*
X12094600Y43592500D01*
X12094600Y43492500D01*
X12074600Y43492500D01*
X12074600Y42815000D01*
X12132100Y42757500D01*
X12074600Y42700000D01*
X12074600Y42022500D01*
X12094600Y42022500D01*
X12094600Y41922500D01*
X12074600Y41922500D01*
X12074600Y41245000D01*
X12117100Y41202500D01*
X12074600Y41160000D01*
X12074600Y40482500D01*
X12094600Y40482500D01*
X12094600Y40382500D01*
X12074600Y40382500D01*
X12074600Y39705000D01*
X12117100Y39662500D01*
X12074600Y39620000D01*
X12074600Y38942500D01*
X12094600Y38942500D01*
X12094600Y38842500D01*
X12074600Y38842500D01*
X12074600Y38822500D01*
X11974600Y38822500D01*
X11974600Y38842500D01*
X11954600Y38842500D01*
X11954600Y38942500D01*
X11974600Y38942500D01*
X11974600Y39620000D01*
X11932100Y39662500D01*
X11974600Y39705000D01*
X11974600Y40382500D01*
X11974600Y40482500D01*
X11974600Y41160000D01*
X11932100Y41202500D01*
X11974600Y41245000D01*
X11974600Y41922500D01*
X11974600Y42022500D01*
X11974600Y42700000D01*
X11917100Y42757500D01*
X11974600Y42815000D01*
X11974600Y43492500D01*
X11974600Y43592500D01*
X11974600Y44270000D01*
X11887100Y44357500D01*
X11570128Y44357500D01*
X11502509Y44344050D01*
X11438813Y44317666D01*
X11381488Y44279363D01*
X11332737Y44230612D01*
X11294434Y44173287D01*
X11268050Y44109591D01*
X11254600Y44041972D01*
X11254600Y43973028D01*
X11254600Y43680000D01*
X11342100Y43592500D01*
X11974600Y43592500D01*
X11974600Y43492500D01*
X11342100Y43492500D01*
X11254600Y43405000D01*
X11254600Y43111972D01*
X11254600Y43043028D01*
X11268050Y42975409D01*
X11294434Y42911713D01*
X11332737Y42854388D01*
X11381488Y42805637D01*
X11438813Y42767334D01*
X11462554Y42757500D01*
X11438813Y42747666D01*
X11381488Y42709363D01*
X11332737Y42660612D01*
X11294434Y42603287D01*
X11268050Y42539591D01*
X11254600Y42471972D01*
X11254600Y42403028D01*
X11254600Y42110000D01*
X11342100Y42022500D01*
X11974600Y42022500D01*
X11974600Y41922500D01*
X11342100Y41922500D01*
X11254600Y41835000D01*
X11254600Y41541972D01*
X11254600Y41473028D01*
X11268050Y41405409D01*
X11294434Y41341713D01*
X11332737Y41284388D01*
X11381488Y41235637D01*
X11431081Y41202500D01*
X11381488Y41169363D01*
X11332737Y41120612D01*
X11294434Y41063287D01*
X11268050Y40999591D01*
X11254600Y40931972D01*
X11254600Y40863028D01*
X11254600Y40570000D01*
X11342100Y40482500D01*
X11974600Y40482500D01*
X11974600Y40382500D01*
X11342100Y40382500D01*
X11254600Y40295000D01*
X11254600Y40191956D01*
X11206294Y40240262D01*
X11206294Y40897500D01*
X11201677Y40954295D01*
X11172206Y41048546D01*
X11117693Y41130889D01*
X11042438Y41194830D01*
X11024968Y41202686D01*
X11087989Y41244407D01*
X11151930Y41319662D01*
X11192429Y41409727D01*
X11206294Y41507500D01*
X11206294Y42437500D01*
X11201677Y42494295D01*
X11172206Y42588546D01*
X11117693Y42670889D01*
X11042438Y42734830D01*
X10994470Y42756400D01*
X11005646Y42759894D01*
X11087989Y42814407D01*
X11151930Y42889662D01*
X11192429Y42979727D01*
X11206294Y43077500D01*
X11206294Y44007500D01*
X11201677Y44064295D01*
X11172206Y44158546D01*
X11117693Y44240889D01*
X11042438Y44304830D01*
X10952373Y44345329D01*
X10934600Y44347850D01*
X10934600Y45361172D01*
X10930090Y45407161D01*
X10926068Y45453148D01*
X10925334Y45455673D01*
X10925078Y45458289D01*
X10911731Y45502496D01*
X10898843Y45546856D01*
X10897632Y45549192D01*
X10896873Y45551707D01*
X10875184Y45592497D01*
X10853935Y45633492D01*
X10852296Y45635545D01*
X10851061Y45637868D01*
X10821869Y45673660D01*
X10793055Y45709755D01*
X10789443Y45713418D01*
X10789385Y45713489D01*
X10789318Y45713544D01*
X10788153Y45714726D01*
X10353125Y46149753D01*
X10317480Y46179033D01*
X10282056Y46208757D01*
X10279749Y46210026D01*
X10277720Y46211692D01*
X10237050Y46233499D01*
X10196543Y46255768D01*
X10194035Y46256564D01*
X10191720Y46257805D01*
X10147556Y46271308D01*
X10103528Y46285274D01*
X10100916Y46285567D01*
X10098401Y46286336D01*
X10052424Y46291006D01*
X10006553Y46296151D01*
X10001414Y46296188D01*
X10001317Y46296197D01*
X10001225Y46296189D01*
X9999572Y46296200D01*
X9318300Y46296200D01*
X9272311Y46291691D01*
X9226324Y46287668D01*
X9223799Y46286935D01*
X9221183Y46286678D01*
X9176976Y46273332D01*
X9132616Y46260443D01*
X9130280Y46259233D01*
X9127765Y46258473D01*
X9086975Y46236785D01*
X9045980Y46215535D01*
X9043927Y46213897D01*
X9041604Y46212661D01*
X9005812Y46183470D01*
X8969717Y46154655D01*
X8966054Y46151044D01*
X8965983Y46150985D01*
X8965928Y46150919D01*
X8964746Y46149753D01*
X8635102Y45820109D01*
X8612373Y45830329D01*
X8514600Y45844194D01*
X8394591Y45844194D01*
X8391068Y45884476D01*
X8390334Y45887001D01*
X8390078Y45889617D01*
X8376731Y45933824D01*
X8363843Y45978184D01*
X8362632Y45980520D01*
X8361873Y45983035D01*
X8340184Y46023825D01*
X8318935Y46064820D01*
X8317296Y46066873D01*
X8316061Y46069196D01*
X8286869Y46104988D01*
X8258055Y46141083D01*
X8254443Y46144746D01*
X8254385Y46144817D01*
X8254318Y46144872D01*
X8253153Y46146054D01*
X8158943Y46240263D01*
X8166930Y46249662D01*
X8207429Y46339727D01*
X8221294Y46437500D01*
X8221294Y47607500D01*
X8216677Y47664295D01*
X8187206Y47758546D01*
X8132693Y47840889D01*
X8057438Y47904830D01*
X7967373Y47945329D01*
X7869600Y47959194D01*
X6049600Y47959194D01*
X5992805Y47954577D01*
X5898554Y47925106D01*
X5816211Y47870593D01*
X5752270Y47795338D01*
X5711771Y47705273D01*
X5697906Y47607500D01*
X5697906Y46437500D01*
X5702523Y46380705D01*
X5731994Y46286454D01*
X5786507Y46204111D01*
X5861762Y46140170D01*
X5951827Y46099671D01*
X6049600Y46085806D01*
X6464607Y46085806D01*
X6468132Y46045524D01*
X6468865Y46043000D01*
X6469122Y46040383D01*
X6482468Y45996177D01*
X6495357Y45951816D01*
X6496567Y45949481D01*
X6497327Y45946965D01*
X6518994Y45906215D01*
X6540264Y45865180D01*
X6541905Y45863124D01*
X6543139Y45860804D01*
X6556686Y45844194D01*
X5609600Y45844194D01*
X5404600Y45844194D01*
X5347805Y45839577D01*
X5253554Y45810106D01*
X5171211Y45755593D01*
X5107270Y45680338D01*
X5066771Y45590273D01*
X5052906Y45492500D01*
X5052906Y45092500D01*
X5057523Y45035705D01*
X5078917Y44967285D01*
X5066771Y44940273D01*
X5052906Y44842500D01*
X5052906Y44442500D01*
X5057523Y44385705D01*
X5078286Y44319303D01*
X5068050Y44294591D01*
X5054600Y44226972D01*
X5054600Y44130000D01*
X5142100Y44042500D01*
X5969600Y44042500D01*
X5969600Y44062500D01*
X6069600Y44062500D01*
X6069600Y44042500D01*
X6089600Y44042500D01*
X6089600Y43942500D01*
X6069600Y43942500D01*
X6069600Y43530000D01*
X6157100Y43442500D01*
X6600128Y43442500D01*
X6669072Y43442500D01*
X6736691Y43455950D01*
X6800387Y43482334D01*
X6857712Y43520637D01*
X6906463Y43569388D01*
X6944766Y43626713D01*
X6960058Y43663634D01*
X6966994Y43641454D01*
X7021507Y43559111D01*
X7096762Y43495170D01*
X7186827Y43454671D01*
X7284600Y43440806D01*
X8514600Y43440806D01*
X8571395Y43445423D01*
X8665646Y43474894D01*
X8692240Y43492500D01*
X8708665Y43492500D01*
X8760840Y43438472D01*
X8760840Y43191260D01*
X8765344Y43145317D01*
X8769372Y43099284D01*
X8770105Y43096760D01*
X8770362Y43094143D01*
X8783708Y43049937D01*
X8796597Y43005576D01*
X8797807Y43003241D01*
X8798567Y43000725D01*
X8820234Y42959975D01*
X8841504Y42918940D01*
X8843145Y42916884D01*
X8844379Y42914564D01*
X8873567Y42878776D01*
X8902385Y42842678D01*
X8905992Y42839021D01*
X8906055Y42838943D01*
X8906126Y42838884D01*
X8907287Y42837707D01*
X9102715Y42642279D01*
X9101134Y42642456D01*
X9096506Y42642489D01*
X9096422Y42642497D01*
X9096343Y42642490D01*
X9094851Y42642500D01*
X8436233Y42642500D01*
X8334360Y42795833D01*
X8203083Y42928030D01*
X8048629Y43032210D01*
X7876882Y43104406D01*
X7694383Y43141868D01*
X7508082Y43143168D01*
X7325078Y43108258D01*
X7152339Y43038467D01*
X6996446Y42936454D01*
X6863336Y42806103D01*
X6758080Y42652381D01*
X6684687Y42481141D01*
X6645952Y42298908D01*
X6643351Y42112621D01*
X6676982Y41929377D01*
X6745566Y41756156D01*
X6846489Y41599554D01*
X6975907Y41465538D01*
X7128891Y41359211D01*
X7299613Y41284624D01*
X7481572Y41244618D01*
X7631978Y41241468D01*
X7537773Y41179821D01*
X7432687Y41076912D01*
X7409116Y41042489D01*
X6964907Y41042489D01*
X6476022Y41531374D01*
X6396699Y41610697D01*
X6364596Y41637067D01*
X6332736Y41663800D01*
X6330662Y41664940D01*
X6328834Y41666442D01*
X6292186Y41686093D01*
X6255775Y41706110D01*
X6253520Y41706826D01*
X6251434Y41707944D01*
X6211644Y41720109D01*
X6172061Y41732665D01*
X6169712Y41732929D01*
X6167447Y41733621D01*
X6126076Y41737824D01*
X6084784Y41742455D01*
X6080156Y41742488D01*
X6080072Y41742496D01*
X6079993Y41742489D01*
X6078501Y41742499D01*
X5894195Y41742499D01*
X5960394Y41891182D01*
X6001670Y42072857D01*
X6004641Y42285652D01*
X5969600Y42462622D01*
X5969600Y43530000D01*
X5969600Y43942500D01*
X5142100Y43942500D01*
X5054600Y43855000D01*
X5054600Y43758028D01*
X5068050Y43690409D01*
X5094434Y43626713D01*
X5132737Y43569388D01*
X5181488Y43520637D01*
X5238813Y43482334D01*
X5302509Y43455950D01*
X5370128Y43442500D01*
X5439072Y43442500D01*
X5882100Y43442500D01*
X5969600Y43530000D01*
X5969600Y42462622D01*
X5968454Y42468409D01*
X5897459Y42640656D01*
X5794360Y42795833D01*
X5663083Y42928030D01*
X5508629Y43032210D01*
X5336882Y43104406D01*
X5154383Y43141868D01*
X4968082Y43143168D01*
X4785078Y43108258D01*
X4612339Y43038467D01*
X4456446Y42936454D01*
X4323336Y42806103D01*
X4218080Y42652381D01*
X4203093Y42617416D01*
X4167693Y42670889D01*
X4092438Y42734830D01*
X4044470Y42756400D01*
X4055646Y42759894D01*
X4137989Y42814407D01*
X4201930Y42889662D01*
X4242429Y42979727D01*
X4256294Y43077500D01*
X4256294Y44007500D01*
X4251677Y44064295D01*
X4222206Y44158546D01*
X4167693Y44240889D01*
X4092438Y44304830D01*
X4002373Y44345329D01*
X3904600Y44359194D01*
X3064600Y44359194D01*
X3007805Y44354577D01*
X2913554Y44325106D01*
X2831211Y44270593D01*
X2767270Y44195338D01*
X2726771Y44105273D01*
X2712906Y44007500D01*
X2712906Y43362202D01*
X2666294Y43315590D01*
X2666294Y44007500D01*
X2661677Y44064295D01*
X2632206Y44158546D01*
X2577693Y44240889D01*
X2509359Y44298950D01*
X2534066Y44329027D01*
X2560781Y44360865D01*
X2561919Y44362936D01*
X2563423Y44364766D01*
X2583084Y44401435D01*
X2603091Y44437826D01*
X2603806Y44440081D01*
X2604925Y44442167D01*
X2617089Y44481957D01*
X2629646Y44521540D01*
X2629909Y44523889D01*
X2630602Y44526154D01*
X2634804Y44567525D01*
X2639436Y44608817D01*
X2639468Y44613445D01*
X2639477Y44613529D01*
X2639469Y44613608D01*
X2639480Y44615100D01*
X2639480Y44624501D01*
X2653460Y44633372D01*
X2759973Y44734803D01*
X2844757Y44854991D01*
X2904580Y44989358D01*
X2937166Y45132785D01*
X2939512Y45300781D01*
X2910944Y45445063D01*
X2854895Y45581047D01*
X2773501Y45703556D01*
X2669861Y45807921D01*
X2547924Y45890169D01*
X2412334Y45947165D01*
X2268256Y45976741D01*
X2121177Y45977767D01*
X1976699Y45950207D01*
X1840327Y45895109D01*
X1717253Y45814572D01*
X1612167Y45711663D01*
X1573200Y45654754D01*
X1573200Y47388717D01*
X1614004Y47325401D01*
X1879651Y47050315D01*
X2193671Y46832066D01*
X2544101Y46678967D01*
X2917595Y46596849D01*
X3299926Y46588840D01*
X3676531Y46655246D01*
X4033065Y46793536D01*
X4355949Y46998444D01*
X4632883Y47262165D01*
X4853319Y47574653D01*
X5008861Y47924006D01*
X5093584Y48296918D01*
X5099683Y48733707D01*
X5025405Y49108839D01*
X4879678Y49462399D01*
X4668053Y49780920D01*
X4398591Y50052271D01*
X4081555Y50266114D01*
X3729021Y50414306D01*
X3664335Y50427584D01*
X3673254Y50429971D01*
X3829151Y50502185D01*
X3967964Y50603426D01*
X4084358Y50729802D01*
X4173861Y50876458D01*
X4233033Y51037757D01*
X4259600Y51207500D01*
X4259600Y51807500D01*
X4259600Y51907500D01*
X4259600Y52507500D01*
X4233033Y52677243D01*
X4173861Y52838542D01*
X4084358Y52985198D01*
X3967964Y53111574D01*
X3829151Y53212815D01*
X3673254Y53285029D01*
X3570641Y53312493D01*
X3434600Y53243411D01*
X3434600Y51907500D01*
X4259600Y51907500D01*
X4259600Y51807500D01*
X3434600Y51807500D01*
X3434600Y51787500D01*
X3334600Y51787500D01*
X3334600Y51807500D01*
X3334600Y51907500D01*
X3334600Y53243411D01*
X3334600Y53921589D01*
X3334600Y55257500D01*
X3334600Y55357500D01*
X3334600Y56693411D01*
X3198559Y56762493D01*
X3095946Y56735029D01*
X2940049Y56662815D01*
X2801236Y56561574D01*
X2684842Y56435198D01*
X2595339Y56288542D01*
X2536167Y56127243D01*
X2509600Y55957500D01*
X2509600Y55357500D01*
X3334600Y55357500D01*
X3334600Y55257500D01*
X2509600Y55257500D01*
X2509600Y54657500D01*
X2536167Y54487757D01*
X2595339Y54326458D01*
X2684842Y54179802D01*
X2801236Y54053426D01*
X2940049Y53952185D01*
X3095946Y53879971D01*
X3198559Y53852507D01*
X3334600Y53921589D01*
X3334600Y53243411D01*
X3198559Y53312493D01*
X3095946Y53285029D01*
X2940049Y53212815D01*
X2801236Y53111574D01*
X2684842Y52985198D01*
X2595339Y52838542D01*
X2536167Y52677243D01*
X2509600Y52507500D01*
X2509600Y51907500D01*
X3334600Y51907500D01*
X3334600Y51807500D01*
X2509600Y51807500D01*
X2509600Y51207500D01*
X2536167Y51037757D01*
X2595339Y50876458D01*
X2684842Y50729802D01*
X2801236Y50603426D01*
X2940049Y50502185D01*
X2962085Y50491978D01*
X2596370Y50422213D01*
X2241802Y50278958D01*
X1921811Y50069562D01*
X1648586Y49802001D01*
X1573200Y49691903D01*
X1573200Y57034760D01*
X12346000Y57034760D01*
X12346000Y49693703D01*
X12288053Y49780920D01*
X12018591Y50052271D01*
X11701555Y50266114D01*
X11349021Y50414306D01*
X10974417Y50491201D01*
X10955720Y50491332D01*
X10979151Y50502185D01*
X11117964Y50603426D01*
X11234358Y50729802D01*
X11323861Y50876458D01*
X11383033Y51037757D01*
X11409600Y51207500D01*
X11409600Y51807500D01*
X11409600Y51907500D01*
X11409600Y52507500D01*
X11409600Y54657500D01*
X11409600Y55257500D01*
X11409600Y55357500D01*
X11409600Y55957500D01*
X11383033Y56127243D01*
X11323861Y56288542D01*
X11234358Y56435198D01*
X11117964Y56561574D01*
X10979151Y56662815D01*
X10823254Y56735029D01*
X10720641Y56762493D01*
X10584600Y56693411D01*
X10584600Y55357500D01*
X11409600Y55357500D01*
X11409600Y55257500D01*
X10584600Y55257500D01*
X10584600Y53921589D01*
X10720641Y53852507D01*
X10823254Y53879971D01*
X10979151Y53952185D01*
X11117964Y54053426D01*
X11234358Y54179802D01*
X11323861Y54326458D01*
X11383033Y54487757D01*
X11409600Y54657500D01*
X11409600Y52507500D01*
X11383033Y52677243D01*
X11323861Y52838542D01*
X11234358Y52985198D01*
X11117964Y53111574D01*
X10979151Y53212815D01*
X10823254Y53285029D01*
X10720641Y53312493D01*
X10584600Y53243411D01*
X10584600Y51907500D01*
X11409600Y51907500D01*
X11409600Y51807500D01*
X10584600Y51807500D01*
X10584600Y51787500D01*
X10484600Y51787500D01*
X10484600Y51807500D01*
X10484600Y51907500D01*
X10484600Y53243411D01*
X10484600Y53921589D01*
X10484600Y55257500D01*
X10484600Y55357500D01*
X10484600Y56693411D01*
X10348559Y56762493D01*
X10245946Y56735029D01*
X10090049Y56662815D01*
X9951236Y56561574D01*
X9834842Y56435198D01*
X9745339Y56288542D01*
X9686167Y56127243D01*
X9659600Y55957500D01*
X9659600Y55357500D01*
X10484600Y55357500D01*
X10484600Y55257500D01*
X9659600Y55257500D01*
X9659600Y54657500D01*
X9686167Y54487757D01*
X9745339Y54326458D01*
X9834842Y54179802D01*
X9951236Y54053426D01*
X10090049Y53952185D01*
X10245946Y53879971D01*
X10348559Y53852507D01*
X10484600Y53921589D01*
X10484600Y53243411D01*
X10348559Y53312493D01*
X10245946Y53285029D01*
X10090049Y53212815D01*
X9951236Y53111574D01*
X9834842Y52985198D01*
X9745339Y52838542D01*
X9709632Y52741208D01*
X9709632Y53081041D01*
X9681064Y53225323D01*
X9625015Y53361307D01*
X9543621Y53483816D01*
X9439981Y53588181D01*
X9318044Y53670429D01*
X9182454Y53727425D01*
X9038376Y53757001D01*
X8891297Y53758027D01*
X8746819Y53730467D01*
X8610447Y53675369D01*
X8487373Y53594832D01*
X8450981Y53559194D01*
X8059600Y53559194D01*
X8002805Y53554577D01*
X7934384Y53533183D01*
X7907373Y53545329D01*
X7809600Y53559194D01*
X7409600Y53559194D01*
X7352805Y53554577D01*
X7284384Y53533183D01*
X7257373Y53545329D01*
X7159600Y53559194D01*
X6759600Y53559194D01*
X6702805Y53554577D01*
X6634384Y53533183D01*
X6607373Y53545329D01*
X6509600Y53559194D01*
X6109600Y53559194D01*
X6052805Y53554577D01*
X5986402Y53533814D01*
X5961691Y53544050D01*
X5894072Y53557500D01*
X5797100Y53557500D01*
X5709600Y53470000D01*
X5709600Y53081203D01*
X5681064Y53225323D01*
X5625015Y53361307D01*
X5609600Y53384509D01*
X5609600Y53470000D01*
X5522100Y53557500D01*
X5470448Y53557500D01*
X5439981Y53588181D01*
X5318044Y53670429D01*
X5182454Y53727425D01*
X5038376Y53757001D01*
X4891297Y53758027D01*
X4746819Y53730467D01*
X4610447Y53675369D01*
X4487373Y53594832D01*
X4382287Y53491923D01*
X4299190Y53370564D01*
X4259600Y53278194D01*
X4259600Y54657500D01*
X4259600Y55257500D01*
X4259600Y55357500D01*
X4259600Y55957500D01*
X4233033Y56127243D01*
X4173861Y56288542D01*
X4084358Y56435198D01*
X3967964Y56561574D01*
X3829151Y56662815D01*
X3673254Y56735029D01*
X3570641Y56762493D01*
X3434600Y56693411D01*
X3434600Y55357500D01*
X4259600Y55357500D01*
X4259600Y55257500D01*
X3434600Y55257500D01*
X3434600Y53921589D01*
X3570641Y53852507D01*
X3673254Y53879971D01*
X3829151Y53952185D01*
X3967964Y54053426D01*
X4084358Y54179802D01*
X4173861Y54326458D01*
X4233033Y54487757D01*
X4259600Y54657500D01*
X4259600Y53278194D01*
X4241248Y53235375D01*
X4210668Y53091506D01*
X4208614Y52944438D01*
X4235165Y52799772D01*
X4289310Y52663018D01*
X4368986Y52539385D01*
X4471158Y52433583D01*
X4591935Y52349641D01*
X4726716Y52290756D01*
X4870367Y52259172D01*
X5017418Y52256092D01*
X5109600Y52272347D01*
X5109600Y52232498D01*
X5197098Y52232498D01*
X5109600Y52145000D01*
X5109600Y51391972D01*
X5109600Y51323028D01*
X5123050Y51255409D01*
X5149434Y51191713D01*
X5187737Y51134388D01*
X5236488Y51085637D01*
X5293813Y51047334D01*
X5357509Y51020950D01*
X5425128Y51007500D01*
X5522100Y51007500D01*
X5609600Y51095000D01*
X5609600Y52232500D01*
X5589600Y52232500D01*
X5589600Y52332500D01*
X5609600Y52332500D01*
X5609600Y52627771D01*
X5614877Y52635251D01*
X5674700Y52769618D01*
X5707286Y52913045D01*
X5709600Y53078750D01*
X5709600Y52332500D01*
X5729600Y52332500D01*
X5729600Y52232500D01*
X5709600Y52232500D01*
X5709600Y51095000D01*
X5797100Y51007500D01*
X5894072Y51007500D01*
X5961691Y51020950D01*
X5986307Y51031147D01*
X6011827Y51019671D01*
X6109600Y51005806D01*
X6509600Y51005806D01*
X6566395Y51010423D01*
X6634815Y51031818D01*
X6661827Y51019671D01*
X6759600Y51005806D01*
X7159600Y51005806D01*
X7216395Y51010423D01*
X7284815Y51031818D01*
X7311827Y51019671D01*
X7409600Y51005806D01*
X7504780Y51005806D01*
X7498168Y50999194D01*
X6049600Y50999194D01*
X5992805Y50994577D01*
X5898554Y50965106D01*
X5816211Y50910593D01*
X5752270Y50835338D01*
X5711771Y50745273D01*
X5697906Y50647500D01*
X5697906Y49477500D01*
X5702523Y49420705D01*
X5731994Y49326454D01*
X5786507Y49244111D01*
X5861762Y49180170D01*
X5951827Y49139671D01*
X6049600Y49125806D01*
X7869600Y49125806D01*
X7926395Y49130423D01*
X8020646Y49159894D01*
X8102989Y49214407D01*
X8166930Y49289662D01*
X8207429Y49379727D01*
X8221294Y49477500D01*
X8221294Y50308108D01*
X8613153Y50699967D01*
X8642432Y50735612D01*
X8672157Y50771036D01*
X8673425Y50773343D01*
X8675092Y50775372D01*
X8696898Y50816042D01*
X8719168Y50856549D01*
X8719963Y50859057D01*
X8721205Y50861372D01*
X8734707Y50905536D01*
X8748674Y50949564D01*
X8748966Y50952176D01*
X8749736Y50954691D01*
X8754405Y51000668D01*
X8759551Y51046539D01*
X8759587Y51051678D01*
X8759597Y51051775D01*
X8759588Y51051867D01*
X8759600Y51053520D01*
X8759600Y51175600D01*
X8797429Y51259727D01*
X8811294Y51357500D01*
X8811294Y52272161D01*
X8870367Y52259172D01*
X9017418Y52256092D01*
X9162266Y52281633D01*
X9299394Y52334821D01*
X9423580Y52413632D01*
X9530093Y52515063D01*
X9614877Y52635251D01*
X9674700Y52769618D01*
X9707286Y52913045D01*
X9709632Y53081041D01*
X9709632Y52741208D01*
X9686167Y52677243D01*
X9659600Y52507500D01*
X9659600Y51907500D01*
X10484600Y51907500D01*
X10484600Y51807500D01*
X9659600Y51807500D01*
X9659600Y51207500D01*
X9686167Y51037757D01*
X9745339Y50876458D01*
X9834842Y50729802D01*
X9951236Y50603426D01*
X10090049Y50502185D01*
X10245946Y50429971D01*
X10250562Y50428736D01*
X10216370Y50422213D01*
X9861802Y50278958D01*
X9541811Y50069562D01*
X9268586Y49802001D01*
X9052534Y49486465D01*
X8901885Y49134974D01*
X8822376Y48760916D01*
X8817037Y48378539D01*
X8886070Y48002407D01*
X9026846Y47646846D01*
X9234004Y47325401D01*
X9499651Y47050315D01*
X9813671Y46832066D01*
X10164101Y46678967D01*
X10537595Y46596849D01*
X10919926Y46588840D01*
X11296531Y46655246D01*
X11653065Y46793536D01*
X11975949Y46998444D01*
X12252883Y47262165D01*
X12346000Y47394167D01*
X12346000Y44357500D01*
X12346000Y44357500D01*
G37*
X12346000Y44357500D02*
X12162100Y44357500D01*
X12074600Y44270000D01*
X12074600Y43592500D01*
X12094600Y43592500D01*
X12094600Y43492500D01*
X12074600Y43492500D01*
X12074600Y42815000D01*
X12132100Y42757500D01*
X12074600Y42700000D01*
X12074600Y42022500D01*
X12094600Y42022500D01*
X12094600Y41922500D01*
X12074600Y41922500D01*
X12074600Y41245000D01*
X12117100Y41202500D01*
X12074600Y41160000D01*
X12074600Y40482500D01*
X12094600Y40482500D01*
X12094600Y40382500D01*
X12074600Y40382500D01*
X12074600Y39705000D01*
X12117100Y39662500D01*
X12074600Y39620000D01*
X12074600Y38942500D01*
X12094600Y38942500D01*
X12094600Y38842500D01*
X12074600Y38842500D01*
X12074600Y38822500D01*
X11974600Y38822500D01*
X11974600Y38842500D01*
X11954600Y38842500D01*
X11954600Y38942500D01*
X11974600Y38942500D01*
X11974600Y39620000D01*
X11932100Y39662500D01*
X11974600Y39705000D01*
X11974600Y40382500D01*
X11974600Y40482500D01*
X11974600Y41160000D01*
X11932100Y41202500D01*
X11974600Y41245000D01*
X11974600Y41922500D01*
X11974600Y42022500D01*
X11974600Y42700000D01*
X11917100Y42757500D01*
X11974600Y42815000D01*
X11974600Y43492500D01*
X11974600Y43592500D01*
X11974600Y44270000D01*
X11887100Y44357500D01*
X11570128Y44357500D01*
X11502509Y44344050D01*
X11438813Y44317666D01*
X11381488Y44279363D01*
X11332737Y44230612D01*
X11294434Y44173287D01*
X11268050Y44109591D01*
X11254600Y44041972D01*
X11254600Y43973028D01*
X11254600Y43680000D01*
X11342100Y43592500D01*
X11974600Y43592500D01*
X11974600Y43492500D01*
X11342100Y43492500D01*
X11254600Y43405000D01*
X11254600Y43111972D01*
X11254600Y43043028D01*
X11268050Y42975409D01*
X11294434Y42911713D01*
X11332737Y42854388D01*
X11381488Y42805637D01*
X11438813Y42767334D01*
X11462554Y42757500D01*
X11438813Y42747666D01*
X11381488Y42709363D01*
X11332737Y42660612D01*
X11294434Y42603287D01*
X11268050Y42539591D01*
X11254600Y42471972D01*
X11254600Y42403028D01*
X11254600Y42110000D01*
X11342100Y42022500D01*
X11974600Y42022500D01*
X11974600Y41922500D01*
X11342100Y41922500D01*
X11254600Y41835000D01*
X11254600Y41541972D01*
X11254600Y41473028D01*
X11268050Y41405409D01*
X11294434Y41341713D01*
X11332737Y41284388D01*
X11381488Y41235637D01*
X11431081Y41202500D01*
X11381488Y41169363D01*
X11332737Y41120612D01*
X11294434Y41063287D01*
X11268050Y40999591D01*
X11254600Y40931972D01*
X11254600Y40863028D01*
X11254600Y40570000D01*
X11342100Y40482500D01*
X11974600Y40482500D01*
X11974600Y40382500D01*
X11342100Y40382500D01*
X11254600Y40295000D01*
X11254600Y40191956D01*
X11206294Y40240262D01*
X11206294Y40897500D01*
X11201677Y40954295D01*
X11172206Y41048546D01*
X11117693Y41130889D01*
X11042438Y41194830D01*
X11024968Y41202686D01*
X11087989Y41244407D01*
X11151930Y41319662D01*
X11192429Y41409727D01*
X11206294Y41507500D01*
X11206294Y42437500D01*
X11201677Y42494295D01*
X11172206Y42588546D01*
X11117693Y42670889D01*
X11042438Y42734830D01*
X10994470Y42756400D01*
X11005646Y42759894D01*
X11087989Y42814407D01*
X11151930Y42889662D01*
X11192429Y42979727D01*
X11206294Y43077500D01*
X11206294Y44007500D01*
X11201677Y44064295D01*
X11172206Y44158546D01*
X11117693Y44240889D01*
X11042438Y44304830D01*
X10952373Y44345329D01*
X10934600Y44347850D01*
X10934600Y45361172D01*
X10930090Y45407161D01*
X10926068Y45453148D01*
X10925334Y45455673D01*
X10925078Y45458289D01*
X10911731Y45502496D01*
X10898843Y45546856D01*
X10897632Y45549192D01*
X10896873Y45551707D01*
X10875184Y45592497D01*
X10853935Y45633492D01*
X10852296Y45635545D01*
X10851061Y45637868D01*
X10821869Y45673660D01*
X10793055Y45709755D01*
X10789443Y45713418D01*
X10789385Y45713489D01*
X10789318Y45713544D01*
X10788153Y45714726D01*
X10353125Y46149753D01*
X10317480Y46179033D01*
X10282056Y46208757D01*
X10279749Y46210026D01*
X10277720Y46211692D01*
X10237050Y46233499D01*
X10196543Y46255768D01*
X10194035Y46256564D01*
X10191720Y46257805D01*
X10147556Y46271308D01*
X10103528Y46285274D01*
X10100916Y46285567D01*
X10098401Y46286336D01*
X10052424Y46291006D01*
X10006553Y46296151D01*
X10001414Y46296188D01*
X10001317Y46296197D01*
X10001225Y46296189D01*
X9999572Y46296200D01*
X9318300Y46296200D01*
X9272311Y46291691D01*
X9226324Y46287668D01*
X9223799Y46286935D01*
X9221183Y46286678D01*
X9176976Y46273332D01*
X9132616Y46260443D01*
X9130280Y46259233D01*
X9127765Y46258473D01*
X9086975Y46236785D01*
X9045980Y46215535D01*
X9043927Y46213897D01*
X9041604Y46212661D01*
X9005812Y46183470D01*
X8969717Y46154655D01*
X8966054Y46151044D01*
X8965983Y46150985D01*
X8965928Y46150919D01*
X8964746Y46149753D01*
X8635102Y45820109D01*
X8612373Y45830329D01*
X8514600Y45844194D01*
X8394591Y45844194D01*
X8391068Y45884476D01*
X8390334Y45887001D01*
X8390078Y45889617D01*
X8376731Y45933824D01*
X8363843Y45978184D01*
X8362632Y45980520D01*
X8361873Y45983035D01*
X8340184Y46023825D01*
X8318935Y46064820D01*
X8317296Y46066873D01*
X8316061Y46069196D01*
X8286869Y46104988D01*
X8258055Y46141083D01*
X8254443Y46144746D01*
X8254385Y46144817D01*
X8254318Y46144872D01*
X8253153Y46146054D01*
X8158943Y46240263D01*
X8166930Y46249662D01*
X8207429Y46339727D01*
X8221294Y46437500D01*
X8221294Y47607500D01*
X8216677Y47664295D01*
X8187206Y47758546D01*
X8132693Y47840889D01*
X8057438Y47904830D01*
X7967373Y47945329D01*
X7869600Y47959194D01*
X6049600Y47959194D01*
X5992805Y47954577D01*
X5898554Y47925106D01*
X5816211Y47870593D01*
X5752270Y47795338D01*
X5711771Y47705273D01*
X5697906Y47607500D01*
X5697906Y46437500D01*
X5702523Y46380705D01*
X5731994Y46286454D01*
X5786507Y46204111D01*
X5861762Y46140170D01*
X5951827Y46099671D01*
X6049600Y46085806D01*
X6464607Y46085806D01*
X6468132Y46045524D01*
X6468865Y46043000D01*
X6469122Y46040383D01*
X6482468Y45996177D01*
X6495357Y45951816D01*
X6496567Y45949481D01*
X6497327Y45946965D01*
X6518994Y45906215D01*
X6540264Y45865180D01*
X6541905Y45863124D01*
X6543139Y45860804D01*
X6556686Y45844194D01*
X5609600Y45844194D01*
X5404600Y45844194D01*
X5347805Y45839577D01*
X5253554Y45810106D01*
X5171211Y45755593D01*
X5107270Y45680338D01*
X5066771Y45590273D01*
X5052906Y45492500D01*
X5052906Y45092500D01*
X5057523Y45035705D01*
X5078917Y44967285D01*
X5066771Y44940273D01*
X5052906Y44842500D01*
X5052906Y44442500D01*
X5057523Y44385705D01*
X5078286Y44319303D01*
X5068050Y44294591D01*
X5054600Y44226972D01*
X5054600Y44130000D01*
X5142100Y44042500D01*
X5969600Y44042500D01*
X5969600Y44062500D01*
X6069600Y44062500D01*
X6069600Y44042500D01*
X6089600Y44042500D01*
X6089600Y43942500D01*
X6069600Y43942500D01*
X6069600Y43530000D01*
X6157100Y43442500D01*
X6600128Y43442500D01*
X6669072Y43442500D01*
X6736691Y43455950D01*
X6800387Y43482334D01*
X6857712Y43520637D01*
X6906463Y43569388D01*
X6944766Y43626713D01*
X6960058Y43663634D01*
X6966994Y43641454D01*
X7021507Y43559111D01*
X7096762Y43495170D01*
X7186827Y43454671D01*
X7284600Y43440806D01*
X8514600Y43440806D01*
X8571395Y43445423D01*
X8665646Y43474894D01*
X8692240Y43492500D01*
X8708665Y43492500D01*
X8760840Y43438472D01*
X8760840Y43191260D01*
X8765344Y43145317D01*
X8769372Y43099284D01*
X8770105Y43096760D01*
X8770362Y43094143D01*
X8783708Y43049937D01*
X8796597Y43005576D01*
X8797807Y43003241D01*
X8798567Y43000725D01*
X8820234Y42959975D01*
X8841504Y42918940D01*
X8843145Y42916884D01*
X8844379Y42914564D01*
X8873567Y42878776D01*
X8902385Y42842678D01*
X8905992Y42839021D01*
X8906055Y42838943D01*
X8906126Y42838884D01*
X8907287Y42837707D01*
X9102715Y42642279D01*
X9101134Y42642456D01*
X9096506Y42642489D01*
X9096422Y42642497D01*
X9096343Y42642490D01*
X9094851Y42642500D01*
X8436233Y42642500D01*
X8334360Y42795833D01*
X8203083Y42928030D01*
X8048629Y43032210D01*
X7876882Y43104406D01*
X7694383Y43141868D01*
X7508082Y43143168D01*
X7325078Y43108258D01*
X7152339Y43038467D01*
X6996446Y42936454D01*
X6863336Y42806103D01*
X6758080Y42652381D01*
X6684687Y42481141D01*
X6645952Y42298908D01*
X6643351Y42112621D01*
X6676982Y41929377D01*
X6745566Y41756156D01*
X6846489Y41599554D01*
X6975907Y41465538D01*
X7128891Y41359211D01*
X7299613Y41284624D01*
X7481572Y41244618D01*
X7631978Y41241468D01*
X7537773Y41179821D01*
X7432687Y41076912D01*
X7409116Y41042489D01*
X6964907Y41042489D01*
X6476022Y41531374D01*
X6396699Y41610697D01*
X6364596Y41637067D01*
X6332736Y41663800D01*
X6330662Y41664940D01*
X6328834Y41666442D01*
X6292186Y41686093D01*
X6255775Y41706110D01*
X6253520Y41706826D01*
X6251434Y41707944D01*
X6211644Y41720109D01*
X6172061Y41732665D01*
X6169712Y41732929D01*
X6167447Y41733621D01*
X6126076Y41737824D01*
X6084784Y41742455D01*
X6080156Y41742488D01*
X6080072Y41742496D01*
X6079993Y41742489D01*
X6078501Y41742499D01*
X5894195Y41742499D01*
X5960394Y41891182D01*
X6001670Y42072857D01*
X6004641Y42285652D01*
X5969600Y42462622D01*
X5969600Y43530000D01*
X5969600Y43942500D01*
X5142100Y43942500D01*
X5054600Y43855000D01*
X5054600Y43758028D01*
X5068050Y43690409D01*
X5094434Y43626713D01*
X5132737Y43569388D01*
X5181488Y43520637D01*
X5238813Y43482334D01*
X5302509Y43455950D01*
X5370128Y43442500D01*
X5439072Y43442500D01*
X5882100Y43442500D01*
X5969600Y43530000D01*
X5969600Y42462622D01*
X5968454Y42468409D01*
X5897459Y42640656D01*
X5794360Y42795833D01*
X5663083Y42928030D01*
X5508629Y43032210D01*
X5336882Y43104406D01*
X5154383Y43141868D01*
X4968082Y43143168D01*
X4785078Y43108258D01*
X4612339Y43038467D01*
X4456446Y42936454D01*
X4323336Y42806103D01*
X4218080Y42652381D01*
X4203093Y42617416D01*
X4167693Y42670889D01*
X4092438Y42734830D01*
X4044470Y42756400D01*
X4055646Y42759894D01*
X4137989Y42814407D01*
X4201930Y42889662D01*
X4242429Y42979727D01*
X4256294Y43077500D01*
X4256294Y44007500D01*
X4251677Y44064295D01*
X4222206Y44158546D01*
X4167693Y44240889D01*
X4092438Y44304830D01*
X4002373Y44345329D01*
X3904600Y44359194D01*
X3064600Y44359194D01*
X3007805Y44354577D01*
X2913554Y44325106D01*
X2831211Y44270593D01*
X2767270Y44195338D01*
X2726771Y44105273D01*
X2712906Y44007500D01*
X2712906Y43362202D01*
X2666294Y43315590D01*
X2666294Y44007500D01*
X2661677Y44064295D01*
X2632206Y44158546D01*
X2577693Y44240889D01*
X2509359Y44298950D01*
X2534066Y44329027D01*
X2560781Y44360865D01*
X2561919Y44362936D01*
X2563423Y44364766D01*
X2583084Y44401435D01*
X2603091Y44437826D01*
X2603806Y44440081D01*
X2604925Y44442167D01*
X2617089Y44481957D01*
X2629646Y44521540D01*
X2629909Y44523889D01*
X2630602Y44526154D01*
X2634804Y44567525D01*
X2639436Y44608817D01*
X2639468Y44613445D01*
X2639477Y44613529D01*
X2639469Y44613608D01*
X2639480Y44615100D01*
X2639480Y44624501D01*
X2653460Y44633372D01*
X2759973Y44734803D01*
X2844757Y44854991D01*
X2904580Y44989358D01*
X2937166Y45132785D01*
X2939512Y45300781D01*
X2910944Y45445063D01*
X2854895Y45581047D01*
X2773501Y45703556D01*
X2669861Y45807921D01*
X2547924Y45890169D01*
X2412334Y45947165D01*
X2268256Y45976741D01*
X2121177Y45977767D01*
X1976699Y45950207D01*
X1840327Y45895109D01*
X1717253Y45814572D01*
X1612167Y45711663D01*
X1573200Y45654754D01*
X1573200Y47388717D01*
X1614004Y47325401D01*
X1879651Y47050315D01*
X2193671Y46832066D01*
X2544101Y46678967D01*
X2917595Y46596849D01*
X3299926Y46588840D01*
X3676531Y46655246D01*
X4033065Y46793536D01*
X4355949Y46998444D01*
X4632883Y47262165D01*
X4853319Y47574653D01*
X5008861Y47924006D01*
X5093584Y48296918D01*
X5099683Y48733707D01*
X5025405Y49108839D01*
X4879678Y49462399D01*
X4668053Y49780920D01*
X4398591Y50052271D01*
X4081555Y50266114D01*
X3729021Y50414306D01*
X3664335Y50427584D01*
X3673254Y50429971D01*
X3829151Y50502185D01*
X3967964Y50603426D01*
X4084358Y50729802D01*
X4173861Y50876458D01*
X4233033Y51037757D01*
X4259600Y51207500D01*
X4259600Y51807500D01*
X4259600Y51907500D01*
X4259600Y52507500D01*
X4233033Y52677243D01*
X4173861Y52838542D01*
X4084358Y52985198D01*
X3967964Y53111574D01*
X3829151Y53212815D01*
X3673254Y53285029D01*
X3570641Y53312493D01*
X3434600Y53243411D01*
X3434600Y51907500D01*
X4259600Y51907500D01*
X4259600Y51807500D01*
X3434600Y51807500D01*
X3434600Y51787500D01*
X3334600Y51787500D01*
X3334600Y51807500D01*
X3334600Y51907500D01*
X3334600Y53243411D01*
X3334600Y53921589D01*
X3334600Y55257500D01*
X3334600Y55357500D01*
X3334600Y56693411D01*
X3198559Y56762493D01*
X3095946Y56735029D01*
X2940049Y56662815D01*
X2801236Y56561574D01*
X2684842Y56435198D01*
X2595339Y56288542D01*
X2536167Y56127243D01*
X2509600Y55957500D01*
X2509600Y55357500D01*
X3334600Y55357500D01*
X3334600Y55257500D01*
X2509600Y55257500D01*
X2509600Y54657500D01*
X2536167Y54487757D01*
X2595339Y54326458D01*
X2684842Y54179802D01*
X2801236Y54053426D01*
X2940049Y53952185D01*
X3095946Y53879971D01*
X3198559Y53852507D01*
X3334600Y53921589D01*
X3334600Y53243411D01*
X3198559Y53312493D01*
X3095946Y53285029D01*
X2940049Y53212815D01*
X2801236Y53111574D01*
X2684842Y52985198D01*
X2595339Y52838542D01*
X2536167Y52677243D01*
X2509600Y52507500D01*
X2509600Y51907500D01*
X3334600Y51907500D01*
X3334600Y51807500D01*
X2509600Y51807500D01*
X2509600Y51207500D01*
X2536167Y51037757D01*
X2595339Y50876458D01*
X2684842Y50729802D01*
X2801236Y50603426D01*
X2940049Y50502185D01*
X2962085Y50491978D01*
X2596370Y50422213D01*
X2241802Y50278958D01*
X1921811Y50069562D01*
X1648586Y49802001D01*
X1573200Y49691903D01*
X1573200Y57034760D01*
X12346000Y57034760D01*
X12346000Y49693703D01*
X12288053Y49780920D01*
X12018591Y50052271D01*
X11701555Y50266114D01*
X11349021Y50414306D01*
X10974417Y50491201D01*
X10955720Y50491332D01*
X10979151Y50502185D01*
X11117964Y50603426D01*
X11234358Y50729802D01*
X11323861Y50876458D01*
X11383033Y51037757D01*
X11409600Y51207500D01*
X11409600Y51807500D01*
X11409600Y51907500D01*
X11409600Y52507500D01*
X11409600Y54657500D01*
X11409600Y55257500D01*
X11409600Y55357500D01*
X11409600Y55957500D01*
X11383033Y56127243D01*
X11323861Y56288542D01*
X11234358Y56435198D01*
X11117964Y56561574D01*
X10979151Y56662815D01*
X10823254Y56735029D01*
X10720641Y56762493D01*
X10584600Y56693411D01*
X10584600Y55357500D01*
X11409600Y55357500D01*
X11409600Y55257500D01*
X10584600Y55257500D01*
X10584600Y53921589D01*
X10720641Y53852507D01*
X10823254Y53879971D01*
X10979151Y53952185D01*
X11117964Y54053426D01*
X11234358Y54179802D01*
X11323861Y54326458D01*
X11383033Y54487757D01*
X11409600Y54657500D01*
X11409600Y52507500D01*
X11383033Y52677243D01*
X11323861Y52838542D01*
X11234358Y52985198D01*
X11117964Y53111574D01*
X10979151Y53212815D01*
X10823254Y53285029D01*
X10720641Y53312493D01*
X10584600Y53243411D01*
X10584600Y51907500D01*
X11409600Y51907500D01*
X11409600Y51807500D01*
X10584600Y51807500D01*
X10584600Y51787500D01*
X10484600Y51787500D01*
X10484600Y51807500D01*
X10484600Y51907500D01*
X10484600Y53243411D01*
X10484600Y53921589D01*
X10484600Y55257500D01*
X10484600Y55357500D01*
X10484600Y56693411D01*
X10348559Y56762493D01*
X10245946Y56735029D01*
X10090049Y56662815D01*
X9951236Y56561574D01*
X9834842Y56435198D01*
X9745339Y56288542D01*
X9686167Y56127243D01*
X9659600Y55957500D01*
X9659600Y55357500D01*
X10484600Y55357500D01*
X10484600Y55257500D01*
X9659600Y55257500D01*
X9659600Y54657500D01*
X9686167Y54487757D01*
X9745339Y54326458D01*
X9834842Y54179802D01*
X9951236Y54053426D01*
X10090049Y53952185D01*
X10245946Y53879971D01*
X10348559Y53852507D01*
X10484600Y53921589D01*
X10484600Y53243411D01*
X10348559Y53312493D01*
X10245946Y53285029D01*
X10090049Y53212815D01*
X9951236Y53111574D01*
X9834842Y52985198D01*
X9745339Y52838542D01*
X9709632Y52741208D01*
X9709632Y53081041D01*
X9681064Y53225323D01*
X9625015Y53361307D01*
X9543621Y53483816D01*
X9439981Y53588181D01*
X9318044Y53670429D01*
X9182454Y53727425D01*
X9038376Y53757001D01*
X8891297Y53758027D01*
X8746819Y53730467D01*
X8610447Y53675369D01*
X8487373Y53594832D01*
X8450981Y53559194D01*
X8059600Y53559194D01*
X8002805Y53554577D01*
X7934384Y53533183D01*
X7907373Y53545329D01*
X7809600Y53559194D01*
X7409600Y53559194D01*
X7352805Y53554577D01*
X7284384Y53533183D01*
X7257373Y53545329D01*
X7159600Y53559194D01*
X6759600Y53559194D01*
X6702805Y53554577D01*
X6634384Y53533183D01*
X6607373Y53545329D01*
X6509600Y53559194D01*
X6109600Y53559194D01*
X6052805Y53554577D01*
X5986402Y53533814D01*
X5961691Y53544050D01*
X5894072Y53557500D01*
X5797100Y53557500D01*
X5709600Y53470000D01*
X5709600Y53081203D01*
X5681064Y53225323D01*
X5625015Y53361307D01*
X5609600Y53384509D01*
X5609600Y53470000D01*
X5522100Y53557500D01*
X5470448Y53557500D01*
X5439981Y53588181D01*
X5318044Y53670429D01*
X5182454Y53727425D01*
X5038376Y53757001D01*
X4891297Y53758027D01*
X4746819Y53730467D01*
X4610447Y53675369D01*
X4487373Y53594832D01*
X4382287Y53491923D01*
X4299190Y53370564D01*
X4259600Y53278194D01*
X4259600Y54657500D01*
X4259600Y55257500D01*
X4259600Y55357500D01*
X4259600Y55957500D01*
X4233033Y56127243D01*
X4173861Y56288542D01*
X4084358Y56435198D01*
X3967964Y56561574D01*
X3829151Y56662815D01*
X3673254Y56735029D01*
X3570641Y56762493D01*
X3434600Y56693411D01*
X3434600Y55357500D01*
X4259600Y55357500D01*
X4259600Y55257500D01*
X3434600Y55257500D01*
X3434600Y53921589D01*
X3570641Y53852507D01*
X3673254Y53879971D01*
X3829151Y53952185D01*
X3967964Y54053426D01*
X4084358Y54179802D01*
X4173861Y54326458D01*
X4233033Y54487757D01*
X4259600Y54657500D01*
X4259600Y53278194D01*
X4241248Y53235375D01*
X4210668Y53091506D01*
X4208614Y52944438D01*
X4235165Y52799772D01*
X4289310Y52663018D01*
X4368986Y52539385D01*
X4471158Y52433583D01*
X4591935Y52349641D01*
X4726716Y52290756D01*
X4870367Y52259172D01*
X5017418Y52256092D01*
X5109600Y52272347D01*
X5109600Y52232498D01*
X5197098Y52232498D01*
X5109600Y52145000D01*
X5109600Y51391972D01*
X5109600Y51323028D01*
X5123050Y51255409D01*
X5149434Y51191713D01*
X5187737Y51134388D01*
X5236488Y51085637D01*
X5293813Y51047334D01*
X5357509Y51020950D01*
X5425128Y51007500D01*
X5522100Y51007500D01*
X5609600Y51095000D01*
X5609600Y52232500D01*
X5589600Y52232500D01*
X5589600Y52332500D01*
X5609600Y52332500D01*
X5609600Y52627771D01*
X5614877Y52635251D01*
X5674700Y52769618D01*
X5707286Y52913045D01*
X5709600Y53078750D01*
X5709600Y52332500D01*
X5729600Y52332500D01*
X5729600Y52232500D01*
X5709600Y52232500D01*
X5709600Y51095000D01*
X5797100Y51007500D01*
X5894072Y51007500D01*
X5961691Y51020950D01*
X5986307Y51031147D01*
X6011827Y51019671D01*
X6109600Y51005806D01*
X6509600Y51005806D01*
X6566395Y51010423D01*
X6634815Y51031818D01*
X6661827Y51019671D01*
X6759600Y51005806D01*
X7159600Y51005806D01*
X7216395Y51010423D01*
X7284815Y51031818D01*
X7311827Y51019671D01*
X7409600Y51005806D01*
X7504780Y51005806D01*
X7498168Y50999194D01*
X6049600Y50999194D01*
X5992805Y50994577D01*
X5898554Y50965106D01*
X5816211Y50910593D01*
X5752270Y50835338D01*
X5711771Y50745273D01*
X5697906Y50647500D01*
X5697906Y49477500D01*
X5702523Y49420705D01*
X5731994Y49326454D01*
X5786507Y49244111D01*
X5861762Y49180170D01*
X5951827Y49139671D01*
X6049600Y49125806D01*
X7869600Y49125806D01*
X7926395Y49130423D01*
X8020646Y49159894D01*
X8102989Y49214407D01*
X8166930Y49289662D01*
X8207429Y49379727D01*
X8221294Y49477500D01*
X8221294Y50308108D01*
X8613153Y50699967D01*
X8642432Y50735612D01*
X8672157Y50771036D01*
X8673425Y50773343D01*
X8675092Y50775372D01*
X8696898Y50816042D01*
X8719168Y50856549D01*
X8719963Y50859057D01*
X8721205Y50861372D01*
X8734707Y50905536D01*
X8748674Y50949564D01*
X8748966Y50952176D01*
X8749736Y50954691D01*
X8754405Y51000668D01*
X8759551Y51046539D01*
X8759587Y51051678D01*
X8759597Y51051775D01*
X8759588Y51051867D01*
X8759600Y51053520D01*
X8759600Y51175600D01*
X8797429Y51259727D01*
X8811294Y51357500D01*
X8811294Y52272161D01*
X8870367Y52259172D01*
X9017418Y52256092D01*
X9162266Y52281633D01*
X9299394Y52334821D01*
X9423580Y52413632D01*
X9530093Y52515063D01*
X9614877Y52635251D01*
X9674700Y52769618D01*
X9707286Y52913045D01*
X9709632Y53081041D01*
X9709632Y52741208D01*
X9686167Y52677243D01*
X9659600Y52507500D01*
X9659600Y51907500D01*
X10484600Y51907500D01*
X10484600Y51807500D01*
X9659600Y51807500D01*
X9659600Y51207500D01*
X9686167Y51037757D01*
X9745339Y50876458D01*
X9834842Y50729802D01*
X9951236Y50603426D01*
X10090049Y50502185D01*
X10245946Y50429971D01*
X10250562Y50428736D01*
X10216370Y50422213D01*
X9861802Y50278958D01*
X9541811Y50069562D01*
X9268586Y49802001D01*
X9052534Y49486465D01*
X8901885Y49134974D01*
X8822376Y48760916D01*
X8817037Y48378539D01*
X8886070Y48002407D01*
X9026846Y47646846D01*
X9234004Y47325401D01*
X9499651Y47050315D01*
X9813671Y46832066D01*
X10164101Y46678967D01*
X10537595Y46596849D01*
X10919926Y46588840D01*
X11296531Y46655246D01*
X11653065Y46793536D01*
X11975949Y46998444D01*
X12252883Y47262165D01*
X12346000Y47394167D01*
X12346000Y44357500D01*
G36*
X12346000Y1730680D02*
X11159634Y1730680D01*
X11159634Y3186244D01*
X11129161Y3340144D01*
X11069376Y3485195D01*
X10982555Y3615870D01*
X10872007Y3727193D01*
X10741941Y3814924D01*
X10597311Y3875721D01*
X10443627Y3907267D01*
X10286743Y3908363D01*
X10132634Y3878965D01*
X9987170Y3820193D01*
X9855891Y3734287D01*
X9743799Y3624518D01*
X9655162Y3495068D01*
X9593358Y3350866D01*
X9560739Y3197407D01*
X9558548Y3040534D01*
X9586870Y2886223D01*
X9644624Y2740352D01*
X9729612Y2608477D01*
X9838595Y2495621D01*
X9967424Y2406083D01*
X10111190Y2343273D01*
X10264418Y2309584D01*
X10421272Y2306298D01*
X10575777Y2333542D01*
X10722047Y2390276D01*
X10854512Y2474341D01*
X10968126Y2582534D01*
X11058562Y2710734D01*
X11122374Y2854059D01*
X11157132Y3007048D01*
X11159634Y3186244D01*
X11159634Y1730680D01*
X7911294Y1730680D01*
X7911294Y4607800D01*
X7911294Y7107800D01*
X7906677Y7164595D01*
X7877206Y7258846D01*
X7822693Y7341189D01*
X7747438Y7405130D01*
X7657373Y7445629D01*
X7559600Y7459494D01*
X7409600Y7459494D01*
X7409600Y7474461D01*
X7423580Y7483332D01*
X7530093Y7584763D01*
X7614877Y7704951D01*
X7674700Y7839318D01*
X7707286Y7982745D01*
X7709632Y8150741D01*
X7681064Y8295023D01*
X7625015Y8431007D01*
X7543621Y8553516D01*
X7439981Y8657881D01*
X7318044Y8740129D01*
X7182454Y8797125D01*
X7038376Y8826701D01*
X6891297Y8827727D01*
X6746819Y8800167D01*
X6610447Y8745069D01*
X6487373Y8664532D01*
X6382287Y8561623D01*
X6299190Y8440264D01*
X6241248Y8305075D01*
X6210668Y8161206D01*
X6208614Y8014138D01*
X6235165Y7869472D01*
X6289310Y7732718D01*
X6368986Y7609085D01*
X6471158Y7503283D01*
X6509600Y7476566D01*
X6509600Y7459494D01*
X6359600Y7459494D01*
X6302805Y7454877D01*
X6208554Y7425406D01*
X6126211Y7370893D01*
X6062270Y7295638D01*
X6021771Y7205573D01*
X6007906Y7107800D01*
X6007906Y4607800D01*
X6012523Y4551005D01*
X6041994Y4456754D01*
X6096507Y4374411D01*
X6171762Y4310470D01*
X6261827Y4269971D01*
X6359600Y4256106D01*
X7559600Y4256106D01*
X7616395Y4260723D01*
X7710646Y4290194D01*
X7792989Y4344707D01*
X7856930Y4419962D01*
X7897429Y4510027D01*
X7911294Y4607800D01*
X7911294Y1730680D01*
X4359634Y1730680D01*
X4359634Y3186244D01*
X4329161Y3340144D01*
X4269376Y3485195D01*
X4182555Y3615870D01*
X4072007Y3727193D01*
X3941941Y3814924D01*
X3797311Y3875721D01*
X3643627Y3907267D01*
X3486743Y3908363D01*
X3332634Y3878965D01*
X3187170Y3820193D01*
X3055891Y3734287D01*
X2943799Y3624518D01*
X2855162Y3495068D01*
X2793358Y3350866D01*
X2760739Y3197407D01*
X2758548Y3040534D01*
X2786870Y2886223D01*
X2844624Y2740352D01*
X2929612Y2608477D01*
X3038595Y2495621D01*
X3167424Y2406083D01*
X3311190Y2343273D01*
X3464418Y2309584D01*
X3621272Y2306298D01*
X3775777Y2333542D01*
X3922047Y2390276D01*
X4054512Y2474341D01*
X4168126Y2582534D01*
X4258562Y2710734D01*
X4322374Y2854059D01*
X4357132Y3007048D01*
X4359634Y3186244D01*
X4359634Y1730680D01*
X1573200Y1730680D01*
X1573200Y8088717D01*
X1614004Y8025401D01*
X1879651Y7750315D01*
X2193671Y7532066D01*
X2544101Y7378967D01*
X2917595Y7296849D01*
X3299926Y7288840D01*
X3601706Y7342053D01*
X3562270Y7295638D01*
X3521771Y7205573D01*
X3507906Y7107800D01*
X3507906Y4607800D01*
X3512523Y4551005D01*
X3541994Y4456754D01*
X3596507Y4374411D01*
X3671762Y4310470D01*
X3761827Y4269971D01*
X3859600Y4256106D01*
X5059600Y4256106D01*
X5116395Y4260723D01*
X5210646Y4290194D01*
X5292989Y4344707D01*
X5356930Y4419962D01*
X5397429Y4510027D01*
X5411294Y4607800D01*
X5411294Y7107800D01*
X5406677Y7164595D01*
X5377206Y7258846D01*
X5322693Y7341189D01*
X5247438Y7405130D01*
X5157373Y7445629D01*
X5059600Y7459494D01*
X5002170Y7459494D01*
X5697918Y8155242D01*
X5724306Y8187367D01*
X5751021Y8219205D01*
X5752159Y8221276D01*
X5753663Y8223106D01*
X5773324Y8259775D01*
X5793331Y8296166D01*
X5794046Y8298421D01*
X5795165Y8300507D01*
X5807329Y8340297D01*
X5819886Y8379880D01*
X5820149Y8382229D01*
X5820842Y8384494D01*
X5825044Y8425865D01*
X5829676Y8467157D01*
X5829708Y8471785D01*
X5829717Y8471869D01*
X5829709Y8471948D01*
X5829720Y8473440D01*
X5829720Y14779486D01*
X5858891Y14759211D01*
X6029613Y14684624D01*
X6211572Y14644618D01*
X6397836Y14640716D01*
X6581310Y14673068D01*
X6755006Y14740440D01*
X6912309Y14840267D01*
X7047225Y14968747D01*
X7154617Y15120985D01*
X7230394Y15291182D01*
X7271670Y15472857D01*
X7274641Y15685652D01*
X7238454Y15868409D01*
X7167459Y16040656D01*
X7075291Y16179380D01*
X8115038Y16179380D01*
X8028080Y16052381D01*
X7954687Y15881141D01*
X7915952Y15698908D01*
X7913351Y15512621D01*
X7946982Y15329377D01*
X8015566Y15156156D01*
X8116489Y14999554D01*
X8245907Y14865538D01*
X8398891Y14759211D01*
X8414600Y14752348D01*
X8414600Y14570416D01*
X8221282Y14377098D01*
X8194912Y14344996D01*
X8168179Y14313135D01*
X8167039Y14311062D01*
X8165537Y14309233D01*
X8145886Y14272586D01*
X8125869Y14236174D01*
X8125153Y14233920D01*
X8124035Y14231833D01*
X8111870Y14192044D01*
X8099314Y14152460D01*
X8099050Y14150112D01*
X8098358Y14147846D01*
X8094155Y14106476D01*
X8089524Y14065183D01*
X8089491Y14060556D01*
X8089483Y14060471D01*
X8089490Y14060393D01*
X8089480Y14058900D01*
X8089480Y8415936D01*
X8093533Y8374597D01*
X8097159Y8333158D01*
X8097819Y8330886D01*
X8098050Y8328531D01*
X8110065Y8288733D01*
X8121661Y8248821D01*
X8122749Y8246722D01*
X8123434Y8244454D01*
X8142984Y8207685D01*
X8162079Y8170849D01*
X8163551Y8169005D01*
X8164665Y8166910D01*
X8190967Y8134660D01*
X8216870Y8102212D01*
X8220118Y8098918D01*
X8220173Y8098851D01*
X8220235Y8098800D01*
X8221282Y8097738D01*
X8859531Y7459489D01*
X8802805Y7454877D01*
X8708554Y7425406D01*
X8626211Y7370893D01*
X8562270Y7295638D01*
X8521771Y7205573D01*
X8507906Y7107800D01*
X8507906Y4607800D01*
X8512523Y4551005D01*
X8541994Y4456754D01*
X8596507Y4374411D01*
X8671762Y4310470D01*
X8761827Y4269971D01*
X8859600Y4256106D01*
X10059600Y4256106D01*
X10116395Y4260723D01*
X10210646Y4290194D01*
X10292989Y4344707D01*
X10356930Y4419962D01*
X10397429Y4510027D01*
X10411294Y4607800D01*
X10411294Y7107800D01*
X10406677Y7164595D01*
X10377206Y7258846D01*
X10322693Y7341189D01*
X10318073Y7345114D01*
X10537595Y7296849D01*
X10919926Y7288840D01*
X11296531Y7355246D01*
X11653065Y7493536D01*
X11975949Y7698444D01*
X12252883Y7962165D01*
X12346000Y8094167D01*
X12346000Y1730680D01*
X12346000Y1730680D01*
G37*
X12346000Y1730680D02*
X11159634Y1730680D01*
X11159634Y3186244D01*
X11129161Y3340144D01*
X11069376Y3485195D01*
X10982555Y3615870D01*
X10872007Y3727193D01*
X10741941Y3814924D01*
X10597311Y3875721D01*
X10443627Y3907267D01*
X10286743Y3908363D01*
X10132634Y3878965D01*
X9987170Y3820193D01*
X9855891Y3734287D01*
X9743799Y3624518D01*
X9655162Y3495068D01*
X9593358Y3350866D01*
X9560739Y3197407D01*
X9558548Y3040534D01*
X9586870Y2886223D01*
X9644624Y2740352D01*
X9729612Y2608477D01*
X9838595Y2495621D01*
X9967424Y2406083D01*
X10111190Y2343273D01*
X10264418Y2309584D01*
X10421272Y2306298D01*
X10575777Y2333542D01*
X10722047Y2390276D01*
X10854512Y2474341D01*
X10968126Y2582534D01*
X11058562Y2710734D01*
X11122374Y2854059D01*
X11157132Y3007048D01*
X11159634Y3186244D01*
X11159634Y1730680D01*
X7911294Y1730680D01*
X7911294Y4607800D01*
X7911294Y7107800D01*
X7906677Y7164595D01*
X7877206Y7258846D01*
X7822693Y7341189D01*
X7747438Y7405130D01*
X7657373Y7445629D01*
X7559600Y7459494D01*
X7409600Y7459494D01*
X7409600Y7474461D01*
X7423580Y7483332D01*
X7530093Y7584763D01*
X7614877Y7704951D01*
X7674700Y7839318D01*
X7707286Y7982745D01*
X7709632Y8150741D01*
X7681064Y8295023D01*
X7625015Y8431007D01*
X7543621Y8553516D01*
X7439981Y8657881D01*
X7318044Y8740129D01*
X7182454Y8797125D01*
X7038376Y8826701D01*
X6891297Y8827727D01*
X6746819Y8800167D01*
X6610447Y8745069D01*
X6487373Y8664532D01*
X6382287Y8561623D01*
X6299190Y8440264D01*
X6241248Y8305075D01*
X6210668Y8161206D01*
X6208614Y8014138D01*
X6235165Y7869472D01*
X6289310Y7732718D01*
X6368986Y7609085D01*
X6471158Y7503283D01*
X6509600Y7476566D01*
X6509600Y7459494D01*
X6359600Y7459494D01*
X6302805Y7454877D01*
X6208554Y7425406D01*
X6126211Y7370893D01*
X6062270Y7295638D01*
X6021771Y7205573D01*
X6007906Y7107800D01*
X6007906Y4607800D01*
X6012523Y4551005D01*
X6041994Y4456754D01*
X6096507Y4374411D01*
X6171762Y4310470D01*
X6261827Y4269971D01*
X6359600Y4256106D01*
X7559600Y4256106D01*
X7616395Y4260723D01*
X7710646Y4290194D01*
X7792989Y4344707D01*
X7856930Y4419962D01*
X7897429Y4510027D01*
X7911294Y4607800D01*
X7911294Y1730680D01*
X4359634Y1730680D01*
X4359634Y3186244D01*
X4329161Y3340144D01*
X4269376Y3485195D01*
X4182555Y3615870D01*
X4072007Y3727193D01*
X3941941Y3814924D01*
X3797311Y3875721D01*
X3643627Y3907267D01*
X3486743Y3908363D01*
X3332634Y3878965D01*
X3187170Y3820193D01*
X3055891Y3734287D01*
X2943799Y3624518D01*
X2855162Y3495068D01*
X2793358Y3350866D01*
X2760739Y3197407D01*
X2758548Y3040534D01*
X2786870Y2886223D01*
X2844624Y2740352D01*
X2929612Y2608477D01*
X3038595Y2495621D01*
X3167424Y2406083D01*
X3311190Y2343273D01*
X3464418Y2309584D01*
X3621272Y2306298D01*
X3775777Y2333542D01*
X3922047Y2390276D01*
X4054512Y2474341D01*
X4168126Y2582534D01*
X4258562Y2710734D01*
X4322374Y2854059D01*
X4357132Y3007048D01*
X4359634Y3186244D01*
X4359634Y1730680D01*
X1573200Y1730680D01*
X1573200Y8088717D01*
X1614004Y8025401D01*
X1879651Y7750315D01*
X2193671Y7532066D01*
X2544101Y7378967D01*
X2917595Y7296849D01*
X3299926Y7288840D01*
X3601706Y7342053D01*
X3562270Y7295638D01*
X3521771Y7205573D01*
X3507906Y7107800D01*
X3507906Y4607800D01*
X3512523Y4551005D01*
X3541994Y4456754D01*
X3596507Y4374411D01*
X3671762Y4310470D01*
X3761827Y4269971D01*
X3859600Y4256106D01*
X5059600Y4256106D01*
X5116395Y4260723D01*
X5210646Y4290194D01*
X5292989Y4344707D01*
X5356930Y4419962D01*
X5397429Y4510027D01*
X5411294Y4607800D01*
X5411294Y7107800D01*
X5406677Y7164595D01*
X5377206Y7258846D01*
X5322693Y7341189D01*
X5247438Y7405130D01*
X5157373Y7445629D01*
X5059600Y7459494D01*
X5002170Y7459494D01*
X5697918Y8155242D01*
X5724306Y8187367D01*
X5751021Y8219205D01*
X5752159Y8221276D01*
X5753663Y8223106D01*
X5773324Y8259775D01*
X5793331Y8296166D01*
X5794046Y8298421D01*
X5795165Y8300507D01*
X5807329Y8340297D01*
X5819886Y8379880D01*
X5820149Y8382229D01*
X5820842Y8384494D01*
X5825044Y8425865D01*
X5829676Y8467157D01*
X5829708Y8471785D01*
X5829717Y8471869D01*
X5829709Y8471948D01*
X5829720Y8473440D01*
X5829720Y14779486D01*
X5858891Y14759211D01*
X6029613Y14684624D01*
X6211572Y14644618D01*
X6397836Y14640716D01*
X6581310Y14673068D01*
X6755006Y14740440D01*
X6912309Y14840267D01*
X7047225Y14968747D01*
X7154617Y15120985D01*
X7230394Y15291182D01*
X7271670Y15472857D01*
X7274641Y15685652D01*
X7238454Y15868409D01*
X7167459Y16040656D01*
X7075291Y16179380D01*
X8115038Y16179380D01*
X8028080Y16052381D01*
X7954687Y15881141D01*
X7915952Y15698908D01*
X7913351Y15512621D01*
X7946982Y15329377D01*
X8015566Y15156156D01*
X8116489Y14999554D01*
X8245907Y14865538D01*
X8398891Y14759211D01*
X8414600Y14752348D01*
X8414600Y14570416D01*
X8221282Y14377098D01*
X8194912Y14344996D01*
X8168179Y14313135D01*
X8167039Y14311062D01*
X8165537Y14309233D01*
X8145886Y14272586D01*
X8125869Y14236174D01*
X8125153Y14233920D01*
X8124035Y14231833D01*
X8111870Y14192044D01*
X8099314Y14152460D01*
X8099050Y14150112D01*
X8098358Y14147846D01*
X8094155Y14106476D01*
X8089524Y14065183D01*
X8089491Y14060556D01*
X8089483Y14060471D01*
X8089490Y14060393D01*
X8089480Y14058900D01*
X8089480Y8415936D01*
X8093533Y8374597D01*
X8097159Y8333158D01*
X8097819Y8330886D01*
X8098050Y8328531D01*
X8110065Y8288733D01*
X8121661Y8248821D01*
X8122749Y8246722D01*
X8123434Y8244454D01*
X8142984Y8207685D01*
X8162079Y8170849D01*
X8163551Y8169005D01*
X8164665Y8166910D01*
X8190967Y8134660D01*
X8216870Y8102212D01*
X8220118Y8098918D01*
X8220173Y8098851D01*
X8220235Y8098800D01*
X8221282Y8097738D01*
X8859531Y7459489D01*
X8802805Y7454877D01*
X8708554Y7425406D01*
X8626211Y7370893D01*
X8562270Y7295638D01*
X8521771Y7205573D01*
X8507906Y7107800D01*
X8507906Y4607800D01*
X8512523Y4551005D01*
X8541994Y4456754D01*
X8596507Y4374411D01*
X8671762Y4310470D01*
X8761827Y4269971D01*
X8859600Y4256106D01*
X10059600Y4256106D01*
X10116395Y4260723D01*
X10210646Y4290194D01*
X10292989Y4344707D01*
X10356930Y4419962D01*
X10397429Y4510027D01*
X10411294Y4607800D01*
X10411294Y7107800D01*
X10406677Y7164595D01*
X10377206Y7258846D01*
X10322693Y7341189D01*
X10318073Y7345114D01*
X10537595Y7296849D01*
X10919926Y7288840D01*
X11296531Y7355246D01*
X11653065Y7493536D01*
X11975949Y7698444D01*
X12252883Y7962165D01*
X12346000Y8094167D01*
X12346000Y1730680D01*
M02*
