M48
;DRILL file {kicad (after 2015-mar-04 BZR unknown)-product} date 5/23/2015 10:26:02 AM
;FORMAT={-:-/ absolute / metric / decimal}
FMAT,2
METRIC,TZ
T1C0.400
T2C0.650
T3C0.800
T4C0.900
T5C1.250
T6C3.200
%
G90
G05
M71
T1
X1.986Y23.251
X1.986Y34.541
X1.991Y24.251
X2.189Y45.227
X2.471Y33.33
X2.525Y5.669
X2.537Y6.774
X3.233Y44.877
X4.387Y44.877
X4.606Y28.891
X4.655Y38.474
X5.036Y35.295
X5.156Y40.592
X5.46Y24.221
X6.32Y18.11
X6.46Y24.216
X6.96Y8.077
X6.965Y14.016
X7.449Y34.644
X7.449Y33.644
X8.01Y40.592
X8.915Y28.829
X9.016Y35.028
X9.261Y44.
X9.276Y18.053
X9.685Y45.001
X11.05Y45.887
X11.224Y13.993
X11.46Y6.771
X11.467Y5.648
X11.65Y23.9
X11.826Y45.098
T3
X4.96Y53.008
X5.055Y42.192
X5.055Y18.133
X6.325Y39.652
X6.325Y15.592
X7.595Y42.192
X7.595Y18.133
X8.865Y39.652
X8.865Y15.592
X8.96Y53.008
T4
X3.56Y3.108
X10.36Y3.108
T5
X3.71Y33.892
X3.71Y23.892
X9.71Y33.892
X9.71Y23.892
T6
X3.15Y48.542
X3.15Y9.242
X10.77Y48.542
X10.77Y9.242
T2
X3.385Y54.707G85X3.385Y55.907
G05
X3.385Y51.258G85X3.385Y52.457
G05
X10.535Y54.707G85X10.535Y55.907
G05
X10.535Y51.258G85X10.535Y52.457
G05
T0
M30
